SplineFontDB: 3.0
FontName: Boon-600
FullName: Boon 600
FamilyName: Boon
Weight: 600
Copyright: Copyright 2013-2015, Sungsit Sawaiwan (https://fontuni.com | uni@fontuni.com). This Font Software is licensed under the SIL Open Font License, Version 1.1 (http://scripts.sil.org/OFL).
Version: 1.0-beta2
ItalicAngle: 0
UnderlinePosition: -120
UnderlineWidth: 60
Ascent: 960
Descent: 240
InvalidEm: 0
woffMajor: 1
woffMinor: 0
UFOAscent: 960
UFODescent: -240
LayerCount: 2
Layer: 0 0 "Back" 1
Layer: 1 0 "Fore" 0
StyleMap: 0x0000
FSType: 0
OS2Version: 0
OS2_WeightWidthSlopeOnly: 0
OS2_UseTypoMetrics: 0
CreationTime: 1369324892
ModificationTime: 1445520275
PfmFamily: 33
TTFWeight: 600
TTFWidth: 5
LineGap: 90
VLineGap: 0
OS2TypoAscent: 960
OS2TypoAOffset: 0
OS2TypoDescent: -240
OS2TypoDOffset: 0
OS2TypoLinegap: 90
OS2WinAscent: 1320
OS2WinAOffset: 0
OS2WinDescent: 480
OS2WinDOffset: 0
HheadAscent: 1320
HheadAOffset: 0
HheadDescent: -480
HheadDOffset: 0
OS2CapHeight: 780
OS2XHeight: 600
OS2Vendor: 'FUni'
Lookup: 1 0 0 "ThaiRC.rd" { "ThaiRC.rd subtable"  } ['ss01' ('thai' <'dflt' > ) 'salt' ('thai' <'dflt' > ) 'ccmp' ('thai' <'PAL ' 'SAN ' > ) 'locl' ('thai' <'PAL ' 'SAN ' > ) ]
Lookup: 6 0 0 "ThaiContextRC.rd" { "ThaiContextRC.rd subtable"  } ['ccmp' ('thai' <'dflt' > ) ]
Lookup: 2 0 0 "ThaiDecomp" { "ThaiDecomp subtable"  } ['ccmp' ('thai' <'dflt' > ) ]
Lookup: 1 0 0 "ThaiT.0E4D" { "ThaiT.0E4D subtable"  } []
Lookup: 1 0 0 "Thai0E4D.0E48" { "Thai0E4D.0E48 subtable"  } []
Lookup: 1 0 0 "Thai0E4D.0E49" { "Thai0E4D.0E49 subtable"  } []
Lookup: 1 0 0 "Thai0E4D.0E4A" { "Thai0E4D.0E4A subtable"  } []
Lookup: 1 0 0 "Thai0E4D.0E4B" { "Thai0E4D.0E4B subtable"  } []
Lookup: 6 0 0 "ThaiContext.ro" { "ThaiContext.ro contextual 0"  "ThaiContext.ro contextual 1"  "ThaiContext.ro contextual 2"  "ThaiContext.ro contextual 3"  } ['ccmp' ('thai' <'dflt' > ) ]
Lookup: 1 0 0 "Thai.sd" { "Thai.sd subtable"  } []
Lookup: 1 0 0 "ThaiBV.sd" { "ThaiBV.sd subtable"  } []

StartChar: .notdef
Encoding: 844 -1 0
GlifName: _notdef
Width: 660
VWidth: 0
Flags: HMW
LayerCount: 2
Fore
SplineSet
88 0 m 1
 88 600 l 1
 330 600 l 1
 572 600 l 1
 572 0 l 1
 330 0 l 1
 88 0 l 1
330 103 m 1
 444 103 l 1
 444 497 l 1
 330 497 l 1
 216 497 l 1
 216 103 l 1
 330 103 l 1
EndSplineSet
PickledDataWithLists: "(dp0
Vcom.fontlab.hintData
p1
(dp2
Vvhints
p3
(lp4
(dp5
Vwidth
p6
L10L
sVposition
p7
L160L
sa(dp8
g6
L10L
sg7
L190L
sa(dp9
g6
L10L
sg7
L520L
sa(dp10
g6
L10L
sg7
L550L
sasVhhints
p11
(lp12
(dp13
g6
L10L
sg7
L0L
sa(dp14
g6
L10L
sg7
L30L
sa(dp15
g6
L10L
sg7
L560L
sa(dp16
g6
L10L
sg7
L590L
sass."
EndChar

StartChar: exclam
Encoding: 4 33 5
GlifName: exclam
Width: 330
VWidth: 0
Flags: HMW
LayerCount: 2
Fore
SplineSet
83 810 m 1
 247 810 l 1
 213 270 l 1
 117 270 l 1
 83 810 l 1
EndSplineSet
Refer: 18 46 N 1 0 0 1 0 0 2
PickledDataWithLists: "(dp0
Vcom.fontlab.hintData
p1
(dp2
Vvhints
p3
(lp4
(dp5
Vwidth
p6
L10L
sVposition
p7
L81L
sa(dp8
g6
L10L
sg7
L101L
sa(dp9
g6
L10L
sg7
L125L
sa(dp10
g6
L10L
sg7
L195L
sa(dp11
g6
L10L
sg7
L210L
sa(dp12
g6
L10L
sg7
L239L
sasVhhints
p13
(lp14
(dp15
g6
L10L
sg7
L-5L
sa(dp16
g6
L10L
sg7
L122L
sa(dp17
g6
L10L
sg7
L268L
sa(dp18
g6
L10L
sg7
L826L
sass."
EndChar

StartChar: numbersign
Encoding: 6 35 7
GlifName: numbersign
Width: 810
VWidth: 0
Flags: HMW
LayerCount: 2
Fore
SplineSet
40 198 m 1
 40 292 l 1
 181 292 l 1
 233 488 l 1
 100 488 l 1
 100 582 l 1
 259 582 l 1
 312 780 l 1
 424 780 l 1
 371 582 l 1
 543 582 l 1
 596 780 l 1
 708 780 l 1
 655 582 l 1
 770 582 l 1
 770 488 l 1
 629 488 l 1
 577 292 l 1
 710 292 l 1
 710 198 l 1
 551 198 l 1
 498 0 l 1
 386 0 l 1
 439 198 l 1
 267 198 l 1
 214 0 l 1
 102 0 l 1
 155 198 l 1
 40 198 l 1
345 488 m 1
 293 292 l 1
 465 292 l 1
 517 488 l 1
 345 488 l 1
EndSplineSet
PickledDataWithLists: "(dp0
Vcom.fontlab.hintData
p1
(dp2
Vvhints
p3
(lp4
(dp5
Vwidth
p6
L10L
sVposition
p7
L111L
sa(dp8
g6
L10L
sg7
L329L
sa(dp9
g6
L10L
sg7
L381L
sa(dp10
g6
L10L
sg7
L599L
sa(dp11
g6
L10L
sg7
L649L
sa(dp12
g6
L10L
sg7
L689L
sasVhhints
p13
(lp14
(dp15
g6
L10L
sg7
L-29L
sa(dp16
g6
L10L
sg7
L-19L
sa(dp17
g6
L7L
sg7
L241L
sa(dp18
g6
L10L
sg7
L284L
sa(dp19
g6
L7L
sg7
L521L
sa(dp20
g6
L10L
sg7
L564L
sa(dp21
g6
L10L
sg7
L819L
sa(dp22
g6
L10L
sg7
L829L
sass."
EndChar

StartChar: dollar
Encoding: 7 36 8
GlifName: dollar
Width: 660
VWidth: 0
Flags: HMW
LayerCount: 2
Fore
SplineSet
52 188 m 1
 193 196 l 1
 202 135 256 88 330 88 c 0
 412 88 466 123 466 206 c 0
 466 280 409 305 383 314 c 0
 332 330 261 360 212 379 c 0
 144 407 70 470 70 578 c 0
 70 681 142 775 283 792 c 1
 283 900 l 1
 386 900 l 1
 386 791 l 1
 526 768 581 661 591 597 c 1
 450 587 l 1
 441 650 396 692 330 692 c 0
 270 692 210 659 210 578 c 0
 210 517 262 492 297 478 c 0
 346 459 414 433 456 419 c 0
 535 393 607 329 607 206 c 0
 607 103 534 7 386 -12 c 1
 386 -120 l 1
 283 -120 l 1
 283 -12 l 1
 125 7 62 119 52 188 c 1
EndSplineSet
PickledDataWithLists: "(dp0
Vcom.fontlab.hintData
p1
(dp2
Vvhints
p3
(lp4
(dp5
Vwidth
p6
L10L
sVposition
p7
L70L
sa(dp8
g6
L10L
sg7
L78L
sa(dp9
g6
L10L
sg7
L169L
sa(dp10
g6
L10L
sg7
L319L
sa(dp11
g6
L10L
sg7
L323L
sa(dp12
g6
L10L
sg7
L382L
sa(dp13
g6
L10L
sg7
L392L
sa(dp14
g6
L10L
sg7
L504L
sa(dp15
g6
L10L
sg7
L565L
sa(dp16
g6
L10L
sg7
L604L
sa(dp17
g6
L10L
sg7
L664L
sasVhhints
p18
(lp19
(dp20
g6
L10L
sg7
L-127L
sa(dp21
g6
L10L
sg7
L46L
sa(dp22
g6
L10L
sg7
L192L
sa(dp23
g6
L10L
sg7
L584L
sa(dp24
g6
L10L
sg7
L812L
sa(dp25
g6
L10L
sg7
L916L
sass."
EndChar

StartChar: ampersand
Encoding: 9 38 10
GlifName: ampersand
Width: 810
VWidth: 0
Flags: HMW
LayerCount: 2
Fore
SplineSet
653 157 m 1
 733 74 798 7 798 7 c 1
 798 0 l 1
 639 0 l 1
 639 0 612 29 572 72 c 1
 502 15 413 -20 312 -20 c 0
 139 -20 58 71 58 175 c 0
 58 286 154 365 251 427 c 1
 209 484 171 554 171 618 c 0
 171 735 254 800 362 800 c 0
 491 800 547 719 547 643 c 0
 547 554 495 474 409 413 c 1
 451 369 513 304 576 238 c 1
 604 290 621 351 626 415 c 1
 746 398 l 1
 739 314 706 228 653 157 c 1
502 147 m 1
 438 216 365 296 315 351 c 1
 233 290 199 230 199 175 c 0
 199 113 243 85 312 85 c 0
 391 85 454 108 502 147 c 1
362 709 m 0
 313 709 296 665 296 615 c 0
 296 576 316 531 345 489 c 1
 401 537 427 596 427 643 c 0
 427 687 399 709 362 709 c 0
EndSplineSet
PickledDataWithLists: "(dp0
Vcom.fontlab.hintData
p1
(dp2
Vvhints
p3
(lp4
(dp5
Vwidth
p6
L10L
sVposition
p7
L66L
sa(dp8
g6
L10L
sg7
L164L
sa(dp9
g6
L10L
sg7
L202L
sa(dp10
g6
L10L
sg7
L296L
sa(dp11
g6
L10L
sg7
L450L
sa(dp12
g6
L10L
sg7
L538L
sa(dp13
g6
L10L
sg7
L695L
sa(dp14
g6
L10L
sg7
L749L
sasVhhints
p15
(lp16
(dp17
g6
L10L
sg7
L-25L
sa(dp18
g6
L10L
sg7
L39L
sa(dp19
g6
L10L
sg7
L389L
sa(dp20
g6
L10L
sg7
L734L
sa(dp21
g6
L10L
sg7
L796L
sass."
EndChar

StartChar: quotesingle
Encoding: 10 39 11
GlifName: quotesingle
Width: 330
VWidth: 0
Flags: HMW
LayerCount: 2
Fore
SplineSet
100 900 m 1
 230 900 l 1
 208 540 l 1
 121 540 l 1
 100 900 l 1
EndSplineSet
PickledDataWithLists: "(dp0
Vcom.fontlab.hintData
p1
(dp2
Vvhints
p3
(lp4
(dp5
Vwidth
p6
L10L
sVposition
p7
L110L
sa(dp8
g6
L10L
sg7
L209L
sasVhhints
p9
(lp10
(dp11
g6
L10L
sg7
L544L
sa(dp12
g6
L10L
sg7
L832L
sass."
EndChar

StartChar: parenleft
Encoding: 11 40 12
GlifName: parenleft
Width: 390
VWidth: 0
Flags: HMW
LayerCount: 2
Fore
SplineSet
57 390 m 0
 57 612 133 785 241 913 c 1
 327 879 l 1
 233 760 181 598 181 390 c 0
 181 182 233 20 327 -99 c 1
 241 -133 l 1
 133 -5 57 168 57 390 c 0
EndSplineSet
PickledDataWithLists: "(dp0
Vcom.fontlab.hintData
p1
(dp2
Vvhints
p3
(lp4
(dp5
Vwidth
p6
L10L
sVposition
p7
L55L
sa(dp8
g6
L10L
sg7
L135L
sa(dp9
g6
L10L
sg7
L270L
sasVhhints
p10
(lp11
(dp12
g6
L10L
sg7
L-112L
sa(dp13
g6
L10L
sg7
L882L
sass."
Substitution2: "Latin.subs subtable" parenleft.subs
Substitution2: "Latin.subs subtable" parenleft.subs
Substitution2: "Latin.sups subtable" parenleft.sups
Substitution2: "Latin.sups subtable" parenleft.sups
EndChar

StartChar: asterisk
Encoding: 13 42 14
GlifName: asterisk
Width: 570
VWidth: 0
Flags: HMW
LayerCount: 2
Fore
SplineSet
40 679 m 1
 77 793 l 1
 250 710 l 1
 225 900 l 1
 345 900 l 1
 319 710 l 1
 493 793 l 1
 529 679 l 1
 341 644 l 1
 473 506 l 1
 377 435 l 1
 285 604 l 1
 193 435 l 1
 96 506 l 1
 229 644 l 1
 40 679 l 1
EndSplineSet
PickledDataWithLists: "(dp0
Vcom.fontlab.hintData
p1
(dp2
Vvhints
p3
(lp4
(dp5
Vwidth
p6
L10L
sVposition
p7
L84L
sa(dp8
g6
L10L
sg7
L89L
sa(dp9
g6
L10L
sg7
L256L
sa(dp10
g6
L10L
sg7
L265L
sa(dp11
g6
L10L
sg7
L272L
sa(dp12
g6
L10L
sg7
L326L
sa(dp13
g6
L10L
sg7
L335L
sa(dp14
g6
L10L
sg7
L501L
sa(dp15
g6
L10L
sg7
L506L
sasVhhints
p16
(lp17
(dp18
g6
L10L
sg7
L392L
sa(dp19
g6
L10L
sg7
L488L
sa(dp20
g6
L10L
sg7
L495L
sa(dp21
g6
L10L
sg7
L735L
sa(dp22
g6
L10L
sg7
L742L
sa(dp23
g6
L10L
sg7
L839L
sass."
EndChar

StartChar: plus
Encoding: 14 43 15
GlifName: plus
Width: 600
VWidth: 0
Flags: HMW
LayerCount: 2
Fore
SplineSet
82 313 m 1
 82 407 l 1
 236 407 l 1
 236 565 l 1
 365 565 l 1
 365 407 l 1
 518 407 l 1
 518 313 l 1
 365 313 l 1
 365 155 l 1
 236 155 l 1
 236 313 l 1
 82 313 l 1
EndSplineSet
PickledDataWithLists: "(dp0
Vcom.fontlab.hintData
p1
(dp2
Vvhints
p3
(lp4
(dp5
Vwidth
p6
L10L
sVposition
p7
L80L
sa(dp8
g6
L10L
sg7
L250L
sa(dp9
g6
L10L
sg7
L259L
sa(dp10
g6
L10L
sg7
L340L
sa(dp11
g6
L10L
sg7
L510L
sasVhhints
p12
(lp13
(dp14
g6
L10L
sg7
L145L
sa(dp15
g6
L10L
sg7
L302L
sa(dp16
g6
L10L
sg7
L362L
sa(dp17
g6
L10L
sg7
L370L
sa(dp18
g6
L10L
sg7
L525L
sass."
EndChar

StartChar: comma
Encoding: 15 44 16
GlifName: comma
Width: 330
VWidth: 0
Flags: HMW
LayerCount: 2
Fore
SplineSet
77 73 m 0
 77 122 110 158 165 158 c 0
 238 158 267 98 267 39 c 0
 267 -77 189 -161 119 -205 c 1
 77 -149 l 1
 122 -121 161 -73 173 -4 c 1
 169 -4 164 -5 160 -5 c 0
 113 -5 77 25 77 73 c 0
EndSplineSet
PickledDataWithLists: "(dp0
Vcom.fontlab.hintData
p1
(dp2
Vvhints
p3
(lp4
(dp5
Vwidth
p6
L10L
sVposition
p7
L61L
sa(dp8
g6
L10L
sg7
L170L
sa(dp9
g6
L10L
sg7
L251L
sasVhhints
p10
(lp11
(dp12
g6
L10L
sg7
L-182L
sa(dp13
g6
L10L
sg7
L48L
sa(dp14
g6
L10L
sg7
L117L
sass."
EndChar

StartChar: hyphen
Encoding: 16 45 17
GlifName: hyphen
Width: 600
VWidth: 0
Flags: HMW
LayerCount: 2
Fore
SplineSet
82 412 m 1
 518 412 l 1
 518 308 l 1
 82 308 l 1
 82 412 l 1
EndSplineSet
PickledDataWithLists: "(dp0
Vcom.fontlab.hintData
p1
(dp2
Vvhints
p3
(lp4
(dp5
Vwidth
p6
L10L
sVposition
p7
L75L
sa(dp8
g6
L10L
sg7
L514L
sasVhhints
p9
(lp10
(dp11
g6
L10L
sg7
L301L
sa(dp12
g6
L10L
sg7
L363L
sa(dp13
g6
L10L
sg7
L371L
sass."
EndChar

StartChar: period
Encoding: 17 46 18
GlifName: period
Width: 330
VWidth: 0
Flags: HMW
LayerCount: 2
Fore
SplineSet
165 157 m 0
 215 157 253 126 253 76 c 0
 253 26 215 -5 165 -5 c 0
 115 -5 77 26 77 76 c 0
 77 126 115 157 165 157 c 0
EndSplineSet
PickledDataWithLists: "(dp0
Vcom.fontlab.hintData
p1
(dp2
Vvhints
p3
(lp4
(dp5
Vwidth
p6
L10L
sVposition
p7
L81L
sa(dp8
g6
L10L
sg7
L239L
sasVhhints
p9
(lp10
(dp11
g6
L10L
sg7
L-5L
sa(dp12
g6
L10L
sg7
L122L
sass."
EndChar

StartChar: slash
Encoding: 18 47 19
GlifName: slash
Width: 510
VWidth: 0
Flags: HMW
LayerCount: 2
Fore
SplineSet
30 0 m 1
 30 7 l 1
 356 780 l 1
 480 780 l 1
 480 773 l 1
 154 0 l 1
 30 0 l 1
EndSplineSet
PickledDataWithLists: "(dp0
Vcom.fontlab.hintData
p1
(dp2
Vvhints
p3
(lp4
(dp5
Vwidth
p6
L10L
sVposition
p7
L41L
sa(dp8
g6
L10L
sg7
L429L
sasVhhints
p9
(lp10
(dp11
g6
L10L
sg7
L-29L
sa(dp12
g6
L10L
sg7
L818L
sass."
Substitution2: "LatinSlash.frac subtable" fraction
EndChar

StartChar: zero
Encoding: 19 48 20
GlifName: zero
Width: 660
VWidth: 0
Flags: HMW
LayerCount: 2
Fore
SplineSet
53 372 m 2
 53 408 l 2
 53 575 97 800 330 800 c 0
 563 800 607 575 607 408 c 2
 607 372 l 2
 607 205 563 -20 330 -20 c 0
 97 -20 53 205 53 372 c 2
330 85 m 0
 406 85 465 181 465 372 c 2
 465 408 l 2
 465 599 406 695 330 695 c 0
 254 695 195 599 195 408 c 2
 195 372 l 2
 195 181 254 85 330 85 c 0
EndSplineSet
PickledDataWithLists: "(dp0
Vcom.fontlab.hintData
p1
(dp2
Vvhints
p3
(lp4
(dp5
Vwidth
p6
L10L
sVposition
p7
L66L
sa(dp8
g6
L10L
sg7
L164L
sa(dp9
g6
L10L
sg7
L456L
sa(dp10
g6
L10L
sg7
L546L
sa(dp11
g6
L10L
sg7
L564L
sa(dp12
g6
L10L
sg7
L644L
sasVhhints
p13
(lp14
(dp15
g6
L10L
sg7
L-24L
sa(dp16
g6
L10L
sg7
L46L
sa(dp17
g6
L10L
sg7
L742L
sa(dp18
g6
L10L
sg7
L811L
sass."
Substitution2: "Latin.dnom subtable" zero.dnom
Substitution2: "Latin.numr subtable" zero.numr
Substitution2: "Latin.subs subtable" zero.subs
Substitution2: "Latin.sups subtable" zero.sups
Substitution2: "Latin.pnum subtable" zero.pnum
EndChar

StartChar: one
Encoding: 20 49 21
GlifName: one
Width: 660
VWidth: 0
Flags: HMW
LayerCount: 2
Fore
SplineSet
88 630 m 1
 352 786 l 1
 453 776 l 1
 453 112 l 1
 598 112 l 1
 598 0 l 1
 128 0 l 1
 128 112 l 1
 313 112 l 1
 313 630 l 1
 148 529 l 1
 88 630 l 1
EndSplineSet
PickledDataWithLists: "(dp0
Vcom.fontlab.hintData
p1
(dp2
Vvhints
p3
(lp4
(dp5
Vwidth
p6
L10L
sVposition
p7
L126L
sa(dp8
g6
L10L
sg7
L364L
sa(dp9
g6
L10L
sg7
L371L
sa(dp10
g6
L10L
sg7
L462L
sa(dp11
g6
L10L
sg7
L469L
sa(dp12
g6
L10L
sg7
L677L
sasVhhints
p13
(lp14
(dp15
g6
L10L
sg7
L-19L
sa(dp16
g6
L10L
sg7
L-9L
sa(dp17
g6
L10L
sg7
L49L
sa(dp18
g6
L10L
sg7
L57L
sa(dp19
g6
L10L
sg7
L591L
sa(dp20
g6
L10L
sg7
L802L
sass."
Substitution2: "Latin.dnom subtable" one.dnom
Substitution2: "Latin.numr subtable" one.numr
Substitution2: "Latin.subs subtable" one.subs
Substitution2: "Latin.sups subtable" one.sups
Substitution2: "Latin.pnum subtable" one.pnum
EndChar

StartChar: two
Encoding: 21 50 22
GlifName: two
Width: 660
VWidth: 0
Flags: HMW
LayerCount: 2
Fore
SplineSet
62 52 m 0
 62 229 210 334 318 404 c 0
 394 454 453 500 453 574 c 0
 453 636 425 696 332 696 c 0
 270 696 224 646 214 593 c 1
 68 607 l 1
 82 678 156 800 330 800 c 0
 557 800 591 639 591 574 c 0
 591 446 480 364 406 315 c 0
 313 253 239 196 220 112 c 1
 597 112 l 1
 597 0 l 1
 70 0 l 1
 70 0 62 22 62 52 c 0
EndSplineSet
PickledDataWithLists: "(dp0
Vcom.fontlab.hintData
p1
(dp2
Vvhints
p3
(lp4
(dp5
Vwidth
p6
L10L
sVposition
p7
L71L
sa(dp8
g6
L10L
sg7
L81L
sa(dp9
g6
L10L
sg7
L501L
sa(dp10
g6
L10L
sg7
L599L
sa(dp11
g6
L10L
sg7
L639L
sasVhhints
p12
(lp13
(dp14
g6
L10L
sg7
L-13L
sa(dp15
g6
L10L
sg7
L61L
sa(dp16
g6
L10L
sg7
L74L
sa(dp17
g6
L10L
sg7
L620L
sa(dp18
g6
L10L
sg7
L740L
sa(dp19
g6
L10L
sg7
L809L
sass."
Substitution2: "Latin.dnom subtable" two.dnom
Substitution2: "Latin.numr subtable" two.numr
Substitution2: "Latin.subs subtable" two.subs
Substitution2: "Latin.sups subtable" two.sups
Substitution2: "Latin.pnum subtable" two.pnum
EndChar

StartChar: three
Encoding: 22 51 23
GlifName: three
Width: 660
VWidth: 0
Flags: HMW
LayerCount: 2
Fore
SplineSet
32 134 m 1
 172 160 l 1
 183 131 213 83 303 83 c 0
 417 83 448 153 448 217 c 0
 448 284 413 336 311 336 c 2
 201 336 l 1
 201 439 l 1
 297 439 l 2
 372 439 427 493 427 573 c 0
 427 635 399 695 306 695 c 0
 244 695 199 646 189 593 c 1
 43 606 l 1
 57 677 130 800 304 800 c 0
 531 800 566 638 566 573 c 0
 566 489 519 436 467 402 c 1
 564 365 592 283 592 226 c 0
 592 146 550 -20 303 -20 c 0
 118 -20 48 89 32 134 c 1
EndSplineSet
PickledDataWithLists: "(dp0
Vcom.fontlab.hintData
p1
(dp2
Vvhints
p3
(lp4
(dp5
Vwidth
p6
L10L
sVposition
p7
L66L
sa(dp8
g6
L10L
sg7
L76L
sa(dp9
g6
L10L
sg7
L203L
sa(dp10
g6
L10L
sg7
L491L
sa(dp11
g6
L10L
sg7
L546L
sa(dp12
g6
L10L
sg7
L589L
sa(dp13
g6
L10L
sg7
L644L
sasVhhints
p14
(lp15
(dp16
g6
L10L
sg7
L-27L
sa(dp17
g6
L10L
sg7
L44L
sa(dp18
g6
L10L
sg7
L150L
sa(dp19
g6
L10L
sg7
L361L
sa(dp20
g6
L10L
sg7
L372L
sa(dp21
g6
L10L
sg7
L630L
sa(dp22
g6
L10L
sg7
L741L
sa(dp23
g6
L10L
sg7
L810L
sass."
Substitution2: "Latin.dnom subtable" three.dnom
Substitution2: "Latin.numr subtable" three.numr
Substitution2: "Latin.subs subtable" three.subs
Substitution2: "Latin.sups subtable" three.sups
Substitution2: "Latin.pnum subtable" three.pnum
EndChar

StartChar: four
Encoding: 23 52 24
GlifName: four
Width: 660
VWidth: 0
Flags: HMW
LayerCount: 2
Fore
SplineSet
376 188 m 1
 33 188 l 1
 23 256 l 1
 394 786 l 1
 513 776 l 1
 513 292 l 1
 638 292 l 1
 638 188 l 1
 513 188 l 1
 513 0 l 1
 376 0 l 1
 376 188 l 1
380 292 m 1
 380 593 l 1
 174 292 l 1
 380 292 l 1
EndSplineSet
PickledDataWithLists: "(dp0
Vcom.fontlab.hintData
p1
(dp2
Vvhints
p3
(lp4
(dp5
Vwidth
p6
L10L
sVposition
p7
L31L
sa(dp8
g6
L10L
sg7
L276L
sa(dp9
g6
L10L
sg7
L374L
sa(dp10
g6
L10L
sg7
L455L
sa(dp11
g6
L10L
sg7
L554L
sa(dp12
g6
L10L
sg7
L679L
sasVhhints
p13
(lp14
(dp15
g6
L10L
sg7
L-30L
sa(dp16
g6
L10L
sg7
L174L
sa(dp17
g6
L10L
sg7
L243L
sa(dp18
g6
L10L
sg7
L259L
sa(dp19
g6
L10L
sg7
L609L
sa(dp20
g6
L10L
sg7
L819L
sass."
Substitution2: "Latin.dnom subtable" four.dnom
Substitution2: "Latin.numr subtable" four.numr
Substitution2: "Latin.subs subtable" four.subs
Substitution2: "Latin.sups subtable" four.sups
Substitution2: "Latin.pnum subtable" four.pnum
EndChar

StartChar: five
Encoding: 24 53 25
GlifName: five
Width: 660
VWidth: 0
Flags: HMW
LayerCount: 2
Fore
SplineSet
52 134 m 1
 192 160 l 1
 203 131 232 83 322 83 c 0
 436 83 467 163 467 237 c 0
 467 315 440 391 339 391 c 0
 275 391 222 344 191 299 c 1
 88 354 l 1
 103 780 l 1
 564 780 l 1
 564 677 l 1
 235 677 l 1
 227 451 l 1
 261 473 307 490 366 490 c 0
 572 490 612 317 612 245 c 0
 612 161 569 -20 322 -20 c 0
 137 -20 68 89 52 134 c 1
EndSplineSet
PickledDataWithLists: "(dp0
Vcom.fontlab.hintData
p1
(dp2
Vvhints
p3
(lp4
(dp5
Vwidth
p6
L10L
sVposition
p7
L76L
sa(dp8
g6
L10L
sg7
L106L
sa(dp9
g6
L10L
sg7
L125L
sa(dp10
g6
L10L
sg7
L226L
sa(dp11
g6
L10L
sg7
L541L
sa(dp12
g6
L10L
sg7
L614L
sa(dp13
g6
L10L
sg7
L639L
sasVhhints
p14
(lp15
(dp16
g6
L10L
sg7
L-26L
sa(dp17
g6
L10L
sg7
L43L
sa(dp18
g6
L10L
sg7
L150L
sa(dp19
g6
L10L
sg7
L334L
sa(dp20
g6
L10L
sg7
L409L
sa(dp21
g6
L10L
sg7
L477L
sa(dp22
g6
L10L
sg7
L716L
sa(dp23
g6
L10L
sg7
L784L
sa(dp24
g6
L10L
sg7
L795L
sass."
Substitution2: "Latin.dnom subtable" five.dnom
Substitution2: "Latin.numr subtable" five.numr
Substitution2: "Latin.subs subtable" five.subs
Substitution2: "Latin.sups subtable" five.sups
Substitution2: "Latin.pnum subtable" five.pnum
EndChar

StartChar: six
Encoding: 25 54 26
GlifName: six
Width: 660
VWidth: 0
Flags: HMW
LayerCount: 2
Fore
SplineSet
72 299 m 2
 72 435 l 2
 72 555 93 800 343 800 c 0
 525 800 580 677 593 635 c 1
 454 613 l 1
 442 650 415 695 343 695 c 0
 251 695 215 594 214 444 c 1
 252 472 302 489 363 489 c 0
 533 489 612 363 612 237 c 0
 612 103 522 -20 343 -20 c 0
 157 -20 72 109 72 299 c 2
214 275 m 1
 220 113 286 85 343 85 c 0
 410 85 471 126 471 237 c 0
 471 338 419 391 338 391 c 0
 278 391 229 352 214 275 c 1
EndSplineSet
PickledDataWithLists: "(dp0
Vcom.fontlab.hintData
p1
(dp2
Vvhints
p3
(lp4
(dp5
Vwidth
p6
L10L
sVposition
p7
L32L
sa(dp8
g6
L10L
sg7
L90L
sa(dp9
g6
L10L
sg7
L188L
sa(dp10
g6
L10L
sg7
L464L
sa(dp11
g6
L10L
sg7
L560L
sa(dp12
g6
L10L
sg7
L658L
sasVhhints
p13
(lp14
(dp15
g6
L10L
sg7
L-29L
sa(dp16
g6
L10L
sg7
L39L
sa(dp17
g6
L10L
sg7
L251L
sa(dp18
g6
L10L
sg7
L397L
sa(dp19
g6
L10L
sg7
L466L
sa(dp20
g6
L10L
sg7
L819L
sass."
Substitution2: "Latin.dnom subtable" six.dnom
Substitution2: "Latin.numr subtable" six.numr
Substitution2: "Latin.subs subtable" six.subs
Substitution2: "Latin.sups subtable" six.sups
Substitution2: "Latin.pnum subtable" six.pnum
EndChar

StartChar: seven
Encoding: 26 55 27
GlifName: seven
Width: 660
VWidth: 0
Flags: HMW
LayerCount: 2
Fore
SplineSet
57 668 m 1
 57 780 l 1
 582 780 l 1
 592 702 l 1
 487 561 358 288 358 55 c 2
 358 0 l 1
 209 0 l 1
 209 55 l 2
 209 263 322 503 425 668 c 1
 57 668 l 1
EndSplineSet
PickledDataWithLists: "(dp0
Vcom.fontlab.hintData
p1
(dp2
Vvhints
p3
(lp4
(dp5
Vwidth
p6
L10L
sVposition
p7
L69L
sa(dp8
g6
L10L
sg7
L199L
sa(dp9
g6
L10L
sg7
L274L
sa(dp10
g6
L10L
sg7
L648L
sasVhhints
p11
(lp12
(dp13
g6
L10L
sg7
L-19L
sa(dp14
g6
L10L
sg7
L554L
sa(dp15
g6
L10L
sg7
L716L
sa(dp16
g6
L10L
sg7
L784L
sa(dp17
g6
L10L
sg7
L795L
sass."
Substitution2: "Latin.dnom subtable" seven.dnom
Substitution2: "Latin.numr subtable" seven.numr
Substitution2: "Latin.subs subtable" seven.subs
Substitution2: "Latin.sups subtable" seven.sups
Substitution2: "Latin.pnum subtable" seven.pnum
EndChar

StartChar: eight
Encoding: 27 56 28
GlifName: eight
Width: 660
VWidth: 0
Flags: HMW
LayerCount: 2
Fore
SplineSet
330 -20 m 0
 153 -20 43 83 43 206 c 0
 43 325 134 376 197 401 c 1
 135 431 77 484 77 578 c 0
 77 697 172 800 330 800 c 0
 488 800 583 697 583 578 c 0
 583 484 525 431 463 401 c 1
 526 376 617 325 617 206 c 0
 617 83 507 -20 330 -20 c 0
330 83 m 0
 417 83 472 124 472 206 c 0
 472 286 423 318 377 334 c 0
 365 339 348 345 330 351 c 1
 312 345 295 339 283 334 c 0
 237 318 188 286 188 206 c 0
 188 124 243 83 330 83 c 0
330 697 m 0
 274 697 218 664 218 578 c 0
 218 510 260 473 296 461 c 0
 306 457 317 453 330 449 c 1
 343 453 354 457 364 461 c 0
 400 473 442 510 442 578 c 0
 442 664 386 697 330 697 c 0
EndSplineSet
PickledDataWithLists: "(dp0
Vcom.fontlab.hintData
p1
(dp2
Vvhints
p3
(lp4
(dp5
Vwidth
p6
L10L
sVposition
p7
L76L
sa(dp8
g6
L10L
sg7
L87L
sa(dp9
g6
L10L
sg7
L174L
sa(dp10
g6
L10L
sg7
L185L
sa(dp11
g6
L10L
sg7
L549L
sa(dp12
g6
L10L
sg7
L584L
sa(dp13
g6
L10L
sg7
L594L
sa(dp14
g6
L10L
sg7
L649L
sasVhhints
p15
(lp16
(dp17
g6
L10L
sg7
L-24L
sa(dp18
g6
L10L
sg7
L44L
sa(dp19
g6
L9L
sg7
L394L
sa(dp20
g6
L10L
sg7
L610L
sa(dp21
g6
L10L
sg7
L651L
sa(dp22
g6
L10L
sg7
L741L
sa(dp23
g6
L10L
sg7
L809L
sass."
Substitution2: "Latin.dnom subtable" eight.dnom
Substitution2: "Latin.numr subtable" eight.numr
Substitution2: "Latin.subs subtable" eight.subs
Substitution2: "Latin.sups subtable" eight.sups
Substitution2: "Latin.pnum subtable" eight.pnum
EndChar

StartChar: less
Encoding: 31 60 32
GlifName: less
Width: 600
VWidth: 0
Flags: HMW
LayerCount: 2
Fore
SplineSet
82 322 m 1
 82 360 l 1
 82 398 l 1
 492 646 l 1
 517 539 l 1
 211 360 l 1
 517 181 l 1
 492 74 l 1
 82 322 l 1
EndSplineSet
PickledDataWithLists: "(dp0
Vcom.fontlab.hintData
p1
(dp2
Vvhints
p3
(lp4
(dp5
Vwidth
p6
L10L
sVposition
p7
L63L
sa(dp8
g6
L10L
sg7
L514L
sa(dp9
g6
L10L
sg7
L524L
sasVhhints
p10
(lp11
(dp12
g6
L10L
sg7
L65L
sa(dp13
g6
L10L
sg7
L606L
sass."
EndChar

StartChar: equal
Encoding: 32 61 33
GlifName: equal
Width: 600
VWidth: 0
Flags: HMW
LayerCount: 2
Fore
SplineSet
82 421 m 1
 82 519 l 1
 518 519 l 1
 518 421 l 1
 82 421 l 1
82 201 m 1
 82 299 l 1
 518 299 l 1
 518 201 l 1
 82 201 l 1
EndSplineSet
PickledDataWithLists: "(dp0
Vcom.fontlab.hintData
p1
(dp2
Vvhints
p3
(lp4
(dp5
Vwidth
p6
L10L
sVposition
p7
L75L
sa(dp8
g6
L10L
sg7
L514L
sasVhhints
p9
(lp10
(dp11
g6
L10L
sg7
L201L
sa(dp12
g6
L10L
sg7
L263L
sa(dp13
g6
L10L
sg7
L271L
sa(dp14
g6
L10L
sg7
L401L
sa(dp15
g6
L10L
sg7
L463L
sa(dp16
g6
L10L
sg7
L471L
sass."
EndChar

StartChar: question
Encoding: 34 63 35
GlifName: question
Width: 570
VWidth: 0
Flags: HMW
LayerCount: 2
Fore
SplineSet
48 643 m 0
 48 746 139 830 286 830 c 0
 426 830 513 751 513 632 c 0
 513 468 319 431 319 323 c 0
 319 305 322 288 329 273 c 1
 218 261 l 1
 205 284 198 306 198 331 c 0
 198 486 368 507 368 628 c 0
 368 705 322 724 282 724 c 0
 232 724 193 699 193 643 c 0
 193 624 197 605 205 588 c 1
 68 554 l 1
 55 583 48 613 48 643 c 0
EndSplineSet
Refer: 18 46 N 1 0 0 1 120 0 2
PickledDataWithLists: "(dp0
Vcom.fontlab.hintData
p1
(dp2
Vvhints
p3
(lp4
(dp5
Vwidth
p6
L10L
sVposition
p7
L11L
sa(dp8
g6
L10L
sg7
L98L
sa(dp9
g6
L10L
sg7
L120L
sa(dp10
g6
L10L
sg7
L152L
sa(dp11
g6
L10L
sg7
L161L
sa(dp12
g6
L10L
sg7
L241L
sa(dp13
g6
L10L
sg7
L254L
sa(dp14
g6
L10L
sg7
L310L
sa(dp15
g6
L10L
sg7
L351L
sa(dp16
g6
L10L
sg7
L439L
sasVhhints
p17
(lp18
(dp19
g6
L10L
sg7
L-5L
sa(dp20
g6
L10L
sg7
L122L
sa(dp21
g6
L10L
sg7
L255L
sa(dp22
g6
L10L
sg7
L594L
sa(dp23
g6
L10L
sg7
L784L
sa(dp24
g6
L10L
sg7
L846L
sass."
EndChar

StartChar: at
Encoding: 35 64 36
GlifName: at
Width: 1020
VWidth: 0
Flags: HMW
LayerCount: 2
Fore
SplineSet
75 237 m 0
 75 489 247 780 558 780 c 0
 818 780 945 596 945 396 c 0
 945 234 852 34 699 34 c 0
 641 34 614 63 602 97 c 1
 568 56 525 28 471 28 c 0
 329 28 282 140 282 230 c 0
 282 365 377 564 580 565 c 1
 581 565 l 1
 679 565 714 491 714 434 c 0
 714 390 694 309 691 294 c 0
 680 232 674 187 674 156 c 0
 674 119 682 103 699 103 c 0
 769 103 867 239 867 396 c 0
 867 572 765 711 558 711 c 0
 312 711 153 470 153 237 c 0
 153 44 259 -121 502 -121 c 0
 568 -121 650 -86 675 -71 c 1
 718 -128 l 1
 683 -150 594 -190 502 -190 c 0
 204 -190 75 21 75 237 c 0
471 106 m 0
 538 106 576 180 598 308 c 0
 601 322 619 406 619 434 c 0
 619 477 599 487 580 487 c 0
 482 486 385 359 385 230 c 0
 385 145 427 106 471 106 c 0
EndSplineSet
PickledDataWithLists: "(dp0
Vcom.fontlab.hintData
p1
(dp2
Vvhints
p3
(lp4
(dp5
Vwidth
p6
L10L
sVposition
p7
L74L
sa(dp8
g6
L10L
sg7
L143L
sa(dp9
g6
L10L
sg7
L293L
sa(dp10
g6
L10L
sg7
L372L
sa(dp11
g6
L10L
sg7
L622L
sa(dp12
g6
L10L
sg7
L670L
sa(dp13
g6
L10L
sg7
L702L
sa(dp14
g6
L10L
sg7
L726L
sa(dp15
g6
L10L
sg7
L865L
sa(dp16
g6
L10L
sg7
L935L
sasVhhints
p17
(lp18
(dp19
g6
L10L
sg7
L-179L
sa(dp20
g6
L10L
sg7
L-131L
sa(dp21
g6
L10L
sg7
L-76L
sa(dp22
g6
L10L
sg7
L38L
sa(dp23
g6
L10L
sg7
L92L
sa(dp24
g6
L10L
sg7
L352L
sa(dp25
g6
L10L
sg7
L399L
sa(dp26
g6
L10L
sg7
L490L
sa(dp27
g6
L10L
sg7
L544L
sa(dp28
g6
L10L
sg7
L711L
sa(dp29
g6
L10L
sg7
L759L
sass."
EndChar

StartChar: A
Encoding: 36 65 37
GlifName: A_
Width: 750
VWidth: 0
Flags: HMW
AnchorPoint: "LatinOgonek.mark" 670 0 basechar 0
AnchorPoint: "LatinBelow.mark" 375 0 basechar 0
AnchorPoint: "LatinAbove.mark" 375 150 basechar 0
LayerCount: 2
Fore
SplineSet
742 0 m 1
 579 0 l 1
 525 158 l 1
 225 158 l 1
 171 0 l 1
 8 0 l 1
 8 10 l 1
 314 780 l 1
 436 780 l 1
 742 10 l 1
 742 0 l 1
490 262 m 1
 375 600 l 1
 260 262 l 1
 490 262 l 1
EndSplineSet
PickledDataWithLists: "(dp0
Vcom.fontlab.hintData
p1
(dp2
Vvhints
p3
(lp4
(dp5
Vwidth
p6
L10L
sVposition
p7
L33L
sa(dp8
g6
L10L
sg7
L39L
sa(dp9
g6
L10L
sg7
L763L
sasVhhints
p10
(lp11
(dp12
g6
L10L
sg7
L-16L
sa(dp13
g6
L10L
sg7
L3L
sa(dp14
g6
L10L
sg7
L179L
sa(dp15
g6
L10L
sg7
L209L
sa(dp16
g6
L10L
sg7
L271L
sa(dp17
g6
L10L
sg7
L810L
sass."
EndChar

StartChar: B
Encoding: 37 66 38
GlifName: B_
Width: 745
VWidth: 0
Flags: HMW
AnchorPoint: "LatinBelow.mark" 320 0 basechar 0
AnchorPoint: "LatinAbove.mark" 320 150 basechar 0
LayerCount: 2
Fore
SplineSet
526 436 m 1
 632 404 697 335 697 230 c 0
 697 80 563 -9 369 -9 c 0
 240 -9 91 -1 82 0 c 1
 82 780 l 1
 90 781 226 789 342 789 c 0
 496 789 622 719 622 591 c 0
 622 516 582 467 526 436 c 1
369 457 m 1
 424 464 481 500 481 579 c 0
 481 655 421 687 325 687 c 0
 280 687 237 685 219 684 c 1
 219 454 l 1
 264 456 317 457 369 457 c 1
219 98 m 1
 254 96 307 94 353 94 c 0
 464 94 555 125 555 230 c 0
 555 335 464 362 353 362 c 0
 307 362 254 360 219 358 c 1
 219 98 l 1
EndSplineSet
PickledDataWithLists: "(dp0
Vcom.fontlab.hintData
p1
(dp2
Vvhints
p3
(lp4
(dp5
Vwidth
p6
L10L
sVposition
p7
L26L
sa(dp8
g6
L10L
sg7
L116L
sa(dp9
g6
L10L
sg7
L121L
sa(dp10
g6
L10L
sg7
L223L
sa(dp11
g6
L10L
sg7
L537L
sa(dp12
g6
L10L
sg7
L636L
sa(dp13
g6
L10L
sg7
L735L
sasVhhints
p14
(lp15
(dp16
g6
L10L
sg7
L-22L
sa(dp17
g6
L10L
sg7
L49L
sa(dp18
g6
L10L
sg7
L395L
sa(dp19
g6
L10L
sg7
L634L
sa(dp20
g6
L10L
sg7
L661L
sa(dp21
g6
L10L
sg7
L742L
sa(dp22
g6
L10L
sg7
L809L
sass."
Colour: ff00
EndChar

StartChar: C
Encoding: 38 67 39
GlifName: C_
Width: 755
VWidth: 0
Flags: HMW
AnchorPoint: "LatinCedilla.mark" 412 0 basechar 0
AnchorPoint: "LatinBelow.mark" 410 0 basechar 0
AnchorPoint: "LatinAbove.mark" 410 150 basechar 0
LayerCount: 2
Fore
SplineSet
52 406 m 2
 52 585 132 800 412 800 c 0
 618 800 707 666 722 585 c 1
 573 572 l 1
 563 626 510 690 412 690 c 0
 278 690 204 586 204 406 c 2
 204 374 l 2
 204 194 278 90 412 90 c 0
 510 90 563 154 573 208 c 1
 722 195 l 1
 707 114 618 -20 412 -20 c 0
 132 -20 52 195 52 374 c 2
 52 406 l 2
EndSplineSet
PickledDataWithLists: "(dp0
Vcom.fontlab.hintData
p1
(dp2
Vvhints
p3
(lp4
(dp5
Vwidth
p6
L10L
sVposition
p7
L68L
sa(dp8
g6
L10L
sg7
L172L
sa(dp9
g6
L10L
sg7
L569L
sa(dp10
g6
L10L
sg7
L673L
sa(dp11
g6
L10L
sg7
L707L
sasVhhints
p12
(lp13
(dp14
g6
L10L
sg7
L-20L
sa(dp15
g6
L10L
sg7
L52L
sa(dp16
g6
L10L
sg7
L169L
sa(dp17
g6
L10L
sg7
L586L
sa(dp18
g6
L10L
sg7
L739L
sa(dp19
g6
L10L
sg7
L811L
sass."
Colour: ff00
EndChar

StartChar: D
Encoding: 39 68 40
GlifName: D_
Width: 770
VWidth: 0
Flags: HMW
AnchorPoint: "LatinBelow.mark" 320 0 basechar 0
AnchorPoint: "LatinAbove.mark" 320 150 basechar 0
LayerCount: 2
Fore
SplineSet
227 97 m 1
 250 96 276 96 296 96 c 0
 497 96 572 208 572 378 c 2
 572 402 l 2
 572 572 497 684 296 684 c 0
 276 684 250 684 227 683 c 1
 227 97 l 1
82 780 m 1
 82 780 193 789 296 789 c 0
 613 789 717 588 717 402 c 2
 717 378 l 2
 717 192 613 -9 296 -9 c 0
 193 -9 82 0 82 0 c 1
 82 780 l 1
EndSplineSet
PickledDataWithLists: "(dp0
Vcom.fontlab.hintData
p1
(dp2
Vvhints
p3
(lp4
(dp5
Vwidth
p6
L10L
sVposition
p7
L26L
sa(dp8
g6
L10L
sg7
L116L
sa(dp9
g6
L10L
sg7
L121L
sa(dp10
g6
L10L
sg7
L223L
sa(dp11
g6
L10L
sg7
L630L
sa(dp12
g6
L10L
sg7
L729L
sasVhhints
p13
(lp14
(dp15
g6
L10L
sg7
L-21L
sa(dp16
g6
L10L
sg7
L49L
sa(dp17
g6
L10L
sg7
L634L
sa(dp18
g6
L10L
sg7
L661L
sa(dp19
g6
L10L
sg7
L742L
sa(dp20
g6
L10L
sg7
L810L
sass."
EndChar

StartChar: E
Encoding: 40 69 41
GlifName: E_
Width: 675
VWidth: 0
Flags: HMW
AnchorPoint: "LatinOgonek.mark" 545 0 basechar 0
AnchorPoint: "LatinBelow.mark" 350 0 basechar 0
AnchorPoint: "LatinAbove.mark" 350 150 basechar 0
LayerCount: 2
Fore
SplineSet
82 0 m 1
 82 780 l 1
 612 780 l 1
 612 669 l 1
 227 669 l 1
 227 436 l 1
 574 436 l 1
 574 334 l 1
 227 334 l 1
 227 111 l 1
 627 111 l 1
 627 0 l 1
 82 0 l 1
EndSplineSet
PickledDataWithLists: "(dp0
Vcom.fontlab.hintData
p1
(dp2
Vvhints
p3
(lp4
(dp5
Vwidth
p6
L10L
sVposition
p7
L66L
sa(dp8
g6
L10L
sg7
L106L
sa(dp9
g6
L10L
sg7
L121L
sa(dp10
g6
L10L
sg7
L204L
sa(dp11
g6
L10L
sg7
L220L
sa(dp12
g6
L10L
sg7
L564L
sa(dp13
g6
L10L
sg7
L644L
sa(dp14
g6
L10L
sg7
L674L
sasVhhints
p15
(lp16
(dp17
g6
L10L
sg7
L-24L
sa(dp18
g6
L10L
sg7
L-9L
sa(dp19
g6
L10L
sg7
L46L
sa(dp20
g6
L10L
sg7
L59L
sa(dp21
g6
L10L
sg7
L361L
sa(dp22
g6
L10L
sg7
L423L
sa(dp23
g6
L10L
sg7
L726L
sa(dp24
g6
L10L
sg7
L794L
sa(dp25
g6
L10L
sg7
L799L
sa(dp26
g6
L10L
sg7
L804L
sass."
Colour: ff00
EndChar

StartChar: F
Encoding: 41 70 42
GlifName: F_
Width: 640
VWidth: 0
Flags: HMW
AnchorPoint: "LatinBelow.mark" 160 0 basechar 0
AnchorPoint: "LatinAbove.mark" 340 150 basechar 0
LayerCount: 2
Fore
SplineSet
82 0 m 1
 82 780 l 1
 602 780 l 1
 602 669 l 1
 229 669 l 1
 229 441 l 1
 564 441 l 1
 564 329 l 1
 229 329 l 1
 229 0 l 1
 82 0 l 1
EndSplineSet
PickledDataWithLists: "(dp0
Vcom.fontlab.hintData
p1
(dp2
Vvhints
p3
(lp4
(dp5
Vwidth
p6
L10L
sVposition
p7
L59L
sa(dp8
g6
L10L
sg7
L66L
sa(dp9
g6
L10L
sg7
L116L
sa(dp10
g6
L10L
sg7
L124L
sa(dp11
g6
L10L
sg7
L214L
sa(dp12
g6
L10L
sg7
L222L
sa(dp13
g6
L10L
sg7
L564L
sa(dp14
g6
L10L
sg7
L644L
sasVhhints
p15
(lp16
(dp17
g6
L10L
sg7
L-14L
sa(dp18
g6
L10L
sg7
L355L
sa(dp19
g6
L10L
sg7
L360L
sa(dp20
g6
L10L
sg7
L423L
sa(dp21
g6
L10L
sg7
L726L
sa(dp22
g6
L10L
sg7
L794L
sa(dp23
g6
L10L
sg7
L799L
sa(dp24
g6
L10L
sg7
L804L
sass."
Colour: ff00
EndChar

StartChar: G
Encoding: 42 71 43
GlifName: G_
Width: 770
VWidth: 0
Flags: HMW
AnchorPoint: "LatinBelow.mark" 410 0 basechar 0
AnchorPoint: "LatinAbove.mark" 410 150 basechar 0
LayerCount: 2
Fore
SplineSet
417 294 m 1
 417 397 l 1
 717 397 l 1
 717 136 l 1
 680 68 585 -20 412 -20 c 0
 132 -20 52 196 52 375 c 2
 52 405 l 2
 52 584 132 800 412 800 c 0
 618 800 707 666 722 585 c 1
 575 571 l 1
 565 625 512 692 412 692 c 0
 275 692 201 589 201 405 c 2
 201 375 l 2
 201 191 275 88 412 88 c 0
 508 88 557 120 584 154 c 1
 584 294 l 1
 417 294 l 1
EndSplineSet
PickledDataWithLists: "(dp0
Vcom.fontlab.hintData
p1
(dp2
Vvhints
p3
(lp4
(dp5
Vwidth
p6
L10L
sVposition
p7
L71L
sa(dp8
g6
L10L
sg7
L169L
sa(dp9
g6
L10L
sg7
L386L
sa(dp10
g6
L10L
sg7
L572L
sa(dp11
g6
L10L
sg7
L615L
sa(dp12
g6
L10L
sg7
L670L
sa(dp13
g6
L10L
sg7
L715L
sasVhhints
p14
(lp15
(dp16
g6
L10L
sg7
L-24L
sa(dp17
g6
L10L
sg7
L44L
sa(dp18
g6
L10L
sg7
L290L
sa(dp19
g6
L10L
sg7
L390L
sa(dp20
g6
L10L
sg7
L587L
sa(dp21
g6
L10L
sg7
L741L
sa(dp22
g6
L10L
sg7
L810L
sass."
Colour: ff00
EndChar

StartChar: H
Encoding: 43 72 44
GlifName: H_
Width: 790
VWidth: 0
Flags: HMW
AnchorPoint: "LatinBelow.mark" 395 0 basechar 0
AnchorPoint: "LatinAbove.mark" 395 150 basechar 0
LayerCount: 2
Fore
SplineSet
82 0 m 1
 82 780 l 1
 227 780 l 1
 227 446 l 1
 563 446 l 1
 563 780 l 1
 708 780 l 1
 708 0 l 1
 563 0 l 1
 563 334 l 1
 227 334 l 1
 227 0 l 1
 82 0 l 1
EndSplineSet
PickledDataWithLists: "(dp0
Vcom.fontlab.hintData
p1
(dp2
Vvhints
p3
(lp4
(dp5
Vwidth
p6
L10L
sVposition
p7
L66L
sa(dp8
g6
L10L
sg7
L101L
sa(dp9
g6
L10L
sg7
L111L
sa(dp10
g6
L10L
sg7
L211L
sa(dp11
g6
L10L
sg7
L605L
sa(dp12
g6
L10L
sg7
L704L
sa(dp13
g6
L10L
sg7
L744L
sasVhhints
p14
(lp15
(dp16
g6
L10L
sg7
L-14L
sa(dp17
g6
L10L
sg7
L355L
sa(dp18
g6
L10L
sg7
L423L
sa(dp19
g6
L10L
sg7
L794L
sa(dp20
g6
L10L
sg7
L799L
sass."
Colour: ff00
EndChar

StartChar: I
Encoding: 44 73 45
GlifName: I_
Width: 320
VWidth: 0
Flags: HMW
AnchorPoint: "LatinOgonek.mark" 165 0 basechar 0
AnchorPoint: "LatinBelow.mark" 160 0 basechar 0
AnchorPoint: "LatinAbove.mark" 160 150 basechar 0
LayerCount: 2
Fore
SplineSet
87 0 m 1
 87 780 l 1
 233 780 l 1
 233 0 l 1
 87 0 l 1
EndSplineSet
PickledDataWithLists: "(dp0
Vcom.fontlab.hintData
p1
(dp2
Vvhints
p3
(lp4
(dp5
Vwidth
p6
L10L
sVposition
p7
L53L
sa(dp8
g6
L10L
sg7
L77L
sa(dp9
g6
L10L
sg7
L188L
sa(dp10
g6
L10L
sg7
L194L
sa(dp11
g6
L10L
sg7
L282L
sa(dp12
g6
L10L
sg7
L288L
sa(dp13
g6
L10L
sg7
L414L
sasVhhints
p14
(lp15
(dp16
g6
L10L
sg7
L-3L
sa(dp17
g6
L10L
sg7
L3L
sa(dp18
g6
L10L
sg7
L59L
sa(dp19
g6
L10L
sg7
L67L
sa(dp20
g6
L10L
sg7
L729L
sa(dp21
g6
L10L
sg7
L788L
sass."
Colour: ff00
EndChar

StartChar: J
Encoding: 45 74 46
GlifName: J_
Width: 520
VWidth: 0
Flags: HMW
AnchorPoint: "LatinBelow.mark" 230 0 basechar 0
AnchorPoint: "LatinAbove.mark" 360 150 basechar 0
LayerCount: 2
Fore
SplineSet
12 140 m 1
 157 151 l 1
 165 101 191 83 224 83 c 0
 256 83 292 98 292 166 c 2
 292 780 l 1
 437 780 l 1
 437 166 l 2
 437 68 362 -20 224 -20 c 0
 87 -20 23 66 12 140 c 1
EndSplineSet
PickledDataWithLists: "(dp0
Vcom.fontlab.hintData
p1
(dp2
Vvhints
p3
(lp4
(dp5
Vwidth
p6
L10L
sVposition
p7
L16L
sa(dp8
g6
L10L
sg7
L152L
sa(dp9
g6
L10L
sg7
L318L
sa(dp10
g6
L10L
sg7
L412L
sa(dp11
g6
L10L
sg7
L492L
sasVhhints
p12
(lp13
(dp14
g6
L10L
sg7
L-14L
sa(dp15
g6
L9L
sg7
L55L
sa(dp16
g6
L10L
sg7
L129L
sa(dp17
g6
L10L
sg7
L730L
sa(dp18
g6
L10L
sg7
L788L
sass."
Colour: ff00
EndChar

StartChar: K
Encoding: 46 75 47
GlifName: K_
Width: 715
VWidth: 0
Flags: HMW
AnchorPoint: "LatinBelow.mark" 360 0 basechar 0
AnchorPoint: "LatinAbove.mark" 360 150 basechar 0
LayerCount: 2
Fore
SplineSet
82 0 m 1
 82 780 l 1
 222 780 l 1
 222 437 l 1
 519 780 l 1
 681 769 l 1
 681 762 l 1
 379 448 l 1
 717 7 l 1
 717 0 l 1
 547 0 l 1
 286 351 l 1
 222 284 l 1
 222 0 l 1
 82 0 l 1
EndSplineSet
PickledDataWithLists: "(dp0
Vcom.fontlab.hintData
p1
(dp2
Vvhints
p3
(lp4
(dp5
Vwidth
p6
L10L
sVposition
p7
L64L
sa(dp8
g6
L10L
sg7
L86L
sa(dp9
g6
L10L
sg7
L116L
sa(dp10
g6
L10L
sg7
L211L
sa(dp11
g6
L10L
sg7
L219L
sa(dp12
g6
L10L
sg7
L679L
sa(dp13
g6
L10L
sg7
L734L
sasVhhints
p14
(lp15
(dp16
g6
L10L
sg7
L-14L
sa(dp17
g6
L10L
sg7
L-9L
sa(dp18
g6
L10L
sg7
L799L
sass."
Colour: ff00
EndChar

StartChar: L
Encoding: 47 76 48
GlifName: L_
Width: 570
VWidth: 0
Flags: HMW
AnchorPoint: "LatinBelow.mark" 320 0 basechar 0
AnchorPoint: "LatinAbove.mark" 160 150 basechar 0
LayerCount: 2
Fore
SplineSet
82 0 m 1
 82 780 l 1
 229 780 l 1
 229 111 l 1
 552 111 l 1
 552 0 l 1
 82 0 l 1
EndSplineSet
PickledDataWithLists: "(dp0
Vcom.fontlab.hintData
p1
(dp2
Vvhints
p3
(lp4
(dp5
Vwidth
p6
L10L
sVposition
p7
L126L
sa(dp8
g6
L10L
sg7
L131L
sa(dp9
g6
L10L
sg7
L144L
sa(dp10
g6
L10L
sg7
L224L
sa(dp11
g6
L10L
sg7
L242L
sa(dp12
g6
L10L
sg7
L624L
sasVhhints
p13
(lp14
(dp15
g6
L10L
sg7
L-23L
sa(dp16
g6
L10L
sg7
L-9L
sa(dp17
g6
L10L
sg7
L45L
sa(dp18
g6
L10L
sg7
L59L
sa(dp19
g6
L10L
sg7
L794L
sass."
Colour: ff00
EndChar

StartChar: M
Encoding: 48 77 49
GlifName: M_
Width: 880
VWidth: 0
Flags: HMW
AnchorPoint: "LatinBelow.mark" 440 0 basechar 0
AnchorPoint: "LatinAbove.mark" 440 150 basechar 0
LayerCount: 2
Fore
SplineSet
798 0 m 1
 655 0 l 1
 655 511 l 1
 474 195 l 1
 406 195 l 1
 225 511 l 1
 225 0 l 1
 82 0 l 1
 82 767 l 1
 202 780 l 1
 440 341 l 1
 678 780 l 1
 798 767 l 1
 798 0 l 1
EndSplineSet
PickledDataWithLists: "(dp0
Vcom.fontlab.hintData
p1
(dp2
Vvhints
p3
(lp4
(dp5
Vwidth
p6
L10L
sVposition
p7
L66L
sa(dp8
g6
L10L
sg7
L102L
sa(dp9
g6
L10L
sg7
L197L
sa(dp10
g6
L10L
sg7
L691L
sa(dp11
g6
L10L
sg7
L785L
sa(dp12
g6
L10L
sg7
L824L
sasVhhints
p13
(lp14
(dp15
g6
L10L
sg7
L-19L
sa(dp16
g6
L10L
sg7
L-9L
sa(dp17
g6
L10L
sg7
L137L
sa(dp18
g6
L20L
sg7
L604L
sa(dp19
g6
L10L
sg7
L783L
sa(dp20
g6
L10L
sg7
L795L
sass."
Colour: ff00
EndChar

StartChar: N
Encoding: 49 78 50
GlifName: N_
Width: 790
VWidth: 0
Flags: HMW
AnchorPoint: "LatinBelow.mark" 395 0 basechar 0
AnchorPoint: "LatinAbove.mark" 395 150 basechar 0
LayerCount: 2
Fore
SplineSet
83 0 m 1
 83 767 l 1
 207 780 l 1
 565 233 l 1
 565 780 l 1
 707 780 l 1
 707 0 l 1
 583 0 l 1
 225 547 l 1
 225 0 l 1
 83 0 l 1
EndSplineSet
PickledDataWithLists: "(dp0
Vcom.fontlab.hintData
p1
(dp2
Vvhints
p3
(lp4
(dp5
Vwidth
p6
L10L
sVposition
p7
L97L
sa(dp8
g6
L10L
sg7
L111L
sa(dp9
g6
L10L
sg7
L209L
sa(dp10
g6
L10L
sg7
L601L
sa(dp11
g6
L10L
sg7
L613L
sa(dp12
g6
L10L
sg7
L699L
sa(dp13
g6
L10L
sg7
L711L
sasVhhints
p14
(lp15
(dp16
g6
L10L
sg7
L-14L
sa(dp17
g6
L10L
sg7
L-8L
sa(dp18
g6
L10L
sg7
L794L
sass."
Colour: ff00
EndChar

StartChar: O
Encoding: 50 79 51
GlifName: O_
Width: 820
VWidth: 0
Flags: HMW
AnchorPoint: "LatinOgonek.mark" 480 0 basechar 0
AnchorPoint: "LatinBelow.mark" 410 0 basechar 0
AnchorPoint: "LatinAbove.mark" 410 150 basechar 0
LayerCount: 2
Fore
SplineSet
52 373 m 2
 52 407 l 2
 52 585 130 800 410 800 c 0
 690 800 768 585 768 407 c 2
 768 373 l 2
 768 195 690 -20 410 -20 c 0
 130 -20 52 195 52 373 c 2
410 87 m 0
 547 87 619 194 619 373 c 2
 619 407 l 2
 619 586 547 693 410 693 c 0
 273 693 201 586 201 407 c 2
 201 373 l 2
 201 194 273 87 410 87 c 0
EndSplineSet
PickledDataWithLists: "(dp0
Vcom.fontlab.hintData
p1
(dp2
Vvhints
p3
(lp4
(dp5
Vwidth
p6
L10L
sVposition
p7
L66L
sa(dp8
g6
L10L
sg7
L164L
sa(dp9
g6
L10L
sg7
L572L
sa(dp10
g6
L10L
sg7
L659L
sa(dp11
g6
L10L
sg7
L690L
sa(dp12
g6
L10L
sg7
L757L
sasVhhints
p13
(lp14
(dp15
g6
L10L
sg7
L-22L
sa(dp16
g6
L10L
sg7
L47L
sa(dp17
g6
L10L
sg7
L742L
sa(dp18
g6
L10L
sg7
L811L
sass."
Colour: ff00
EndChar

StartChar: P
Encoding: 51 80 52
GlifName: P_
Width: 710
VWidth: 0
Flags: HMW
AnchorPoint: "LatinBelow.mark" 160 0 basechar 0
AnchorPoint: "LatinAbove.mark" 360 150 basechar 0
LayerCount: 2
Fore
SplineSet
225 416 m 1
 253 414 293 413 333 413 c 0
 444 413 534 445 534 550 c 0
 534 655 444 686 333 686 c 0
 293 686 253 685 225 683 c 1
 225 416 l 1
225 312 m 1
 225 0 l 1
 82 0 l 1
 82 319 l 1
 82 780 l 1
 91 781 220 789 349 789 c 0
 543 789 677 700 677 550 c 0
 677 400 543 310 349 310 c 0
 306 310 263 311 225 312 c 1
EndSplineSet
PickledDataWithLists: "(dp0
Vcom.fontlab.hintData
p1
(dp2
Vvhints
p3
(lp4
(dp5
Vwidth
p6
L10L
sVposition
p7
L26L
sa(dp8
g6
L10L
sg7
L36L
sa(dp9
g6
L10L
sg7
L116L
sa(dp10
g6
L10L
sg7
L130L
sa(dp11
g6
L10L
sg7
L228L
sa(dp12
g6
L10L
sg7
L592L
sa(dp13
g6
L10L
sg7
L693L
sasVhhints
p14
(lp15
(dp16
g6
L10L
sg7
L-24L
sa(dp17
g6
L10L
sg7
L302L
sa(dp18
g6
L10L
sg7
L369L
sa(dp19
g6
L10L
sg7
L429L
sa(dp20
g6
L10L
sg7
L634L
sa(dp21
g6
L10L
sg7
L661L
sa(dp22
g6
L10L
sg7
L744L
sa(dp23
g6
L10L
sg7
L813L
sass."
Colour: ff00
EndChar

StartChar: Q
Encoding: 52 81 53
GlifName: Q_
Width: 820
VWidth: 0
Flags: HMW
AnchorPoint: "LatinBelow.mark" 410 0 basechar 0
AnchorPoint: "LatinAbove.mark" 410 150 basechar 0
LayerCount: 2
Fore
SplineSet
52 373 m 2
 52 407 l 2
 52 585 130 800 410 800 c 0
 690 800 768 585 768 407 c 2
 768 373 l 2
 768 289 751 197 703 123 c 1
 805 43 l 1
 744 -39 l 1
 636 49 l 1
 582 7 508 -20 410 -20 c 0
 130 -20 52 195 52 373 c 2
379 257 m 1
 436 330 l 1
 591 209 l 1
 609 253 619 309 619 373 c 2
 619 407 l 2
 619 586 547 693 410 693 c 0
 273 693 201 586 201 407 c 2
 201 373 l 2
 201 194 273 87 410 87 c 0
 461 87 503 102 536 130 c 1
 379 257 l 1
EndSplineSet
PickledDataWithLists: "(dp0
Vcom.fontlab.hintData
p1
(dp2
Vvhints
p3
(lp4
(dp5
Vwidth
p6
L10L
sVposition
p7
L66L
sa(dp8
g6
L10L
sg7
L164L
sa(dp9
g6
L10L
sg7
L407L
sa(dp10
g6
L10L
sg7
L491L
sa(dp11
g6
L10L
sg7
L675L
sa(dp12
g6
L10L
sg7
L690L
sa(dp13
g6
L10L
sg7
L760L
sa(dp14
g6
L10L
sg7
L769L
sasVhhints
p15
(lp16
(dp17
g6
L10L
sg7
L-206L
sa(dp18
g6
L10L
sg7
L-17L
sa(dp19
g6
L10L
sg7
L46L
sa(dp20
g6
L10L
sg7
L514L
sa(dp21
g6
L10L
sg7
L576L
sa(dp22
g6
L10L
sg7
L598L
sa(dp23
g6
L10L
sg7
L742L
sa(dp24
g6
L10L
sg7
L811L
sass."
Colour: ff00
EndChar

StartChar: R
Encoding: 53 82 54
GlifName: R_
Width: 730
VWidth: 0
Flags: HMW
AnchorPoint: "LatinBelow.mark" 360 0 basechar 0
AnchorPoint: "LatinAbove.mark" 360 150 basechar 0
LayerCount: 2
Fore
SplineSet
291 310 m 1
 268 310 246 311 225 312 c 1
 225 0 l 1
 82 0 l 1
 82 319 l 1
 82 780 l 1
 91 781 220 789 349 789 c 0
 543 789 677 700 677 550 c 0
 677 427 587 345 448 319 c 1
 707 7 l 1
 707 0 l 1
 543 0 l 1
 291 310 l 1
225 416 m 1
 253 414 293 413 333 413 c 0
 444 413 534 445 534 550 c 0
 534 655 444 686 333 686 c 0
 293 686 253 685 225 683 c 1
 225 416 l 1
EndSplineSet
PickledDataWithLists: "(dp0
Vcom.fontlab.hintData
p1
(dp2
Vvhints
p3
(lp4
(dp5
Vwidth
p6
L10L
sVposition
p7
L26L
sa(dp8
g6
L10L
sg7
L116L
sa(dp9
g6
L10L
sg7
L126L
sa(dp10
g6
L10L
sg7
L228L
sa(dp11
g6
L10L
sg7
L605L
sa(dp12
g6
L10L
sg7
L705L
sa(dp13
g6
L10L
sg7
L734L
sasVhhints
p14
(lp15
(dp16
g6
L10L
sg7
L-29L
sa(dp17
g6
L10L
sg7
L-24L
sa(dp18
g6
L10L
sg7
L332L
sa(dp19
g6
L10L
sg7
L401L
sa(dp20
g6
L10L
sg7
L430L
sa(dp21
g6
L10L
sg7
L634L
sa(dp22
g6
L10L
sg7
L661L
sa(dp23
g6
L10L
sg7
L745L
sa(dp24
g6
L10L
sg7
L812L
sass."
Colour: ff00
EndChar

StartChar: S
Encoding: 54 83 55
GlifName: S_
Width: 710
VWidth: 0
Flags: HMW
AnchorPoint: "LatinCedilla.mark" 380 0 basechar 0
AnchorPoint: "LatinBelow.mark" 355 0 basechar 0
AnchorPoint: "LatinAbove.mark" 355 150 basechar 0
LayerCount: 2
Fore
SplineSet
47 182 m 1
 190 202 l 1
 200 147 254 85 355 85 c 0
 465 85 521 129 521 204 c 0
 521 274 470 297 434 307 c 0
 378 322 292 351 234 371 c 0
 162 397 65 457 65 574 c 0
 65 704 182 800 355 800 c 0
 538 800 627 680 642 602 c 1
 499 582 l 1
 489 637 438 695 355 695 c 0
 264 695 206 651 206 581 c 0
 206 525 251 504 297 487 c 0
 351 468 434 442 485 427 c 0
 569 401 662 338 662 210 c 0
 662 80 546 -20 355 -20 c 0
 155 -20 62 102 47 182 c 1
EndSplineSet
PickledDataWithLists: "(dp0
Vcom.fontlab.hintData
p1
(dp2
Vvhints
p3
(lp4
(dp5
Vwidth
p6
L10L
sVposition
p7
L60L
sa(dp8
g6
L10L
sg7
L68L
sa(dp9
g6
L10L
sg7
L159L
sa(dp10
g6
L10L
sg7
L494L
sa(dp11
g6
L10L
sg7
L555L
sa(dp12
g6
L10L
sg7
L594L
sa(dp13
g6
L10L
sg7
L654L
sasVhhints
p14
(lp15
(dp16
g6
L10L
sg7
L-22L
sa(dp17
g6
L10L
sg7
L46L
sa(dp18
g6
L10L
sg7
L192L
sa(dp19
g6
L10L
sg7
L584L
sa(dp20
g6
L10L
sg7
L744L
sa(dp21
g6
L10L
sg7
L812L
sass."
Colour: ff00
EndChar

StartChar: T
Encoding: 55 84 56
GlifName: T_
Width: 620
VWidth: 0
Flags: HMW
AnchorPoint: "LatinCedilla.mark" 320 0 basechar 0
AnchorPoint: "LatinBelow.mark" 310 0 basechar 0
AnchorPoint: "LatinAbove.mark" 310 150 basechar 0
LayerCount: 2
Fore
SplineSet
22 673 m 1
 22 780 l 1
 598 780 l 1
 598 673 l 1
 383 673 l 1
 383 0 l 1
 237 0 l 1
 237 673 l 1
 22 673 l 1
EndSplineSet
PickledDataWithLists: "(dp0
Vcom.fontlab.hintData
p1
(dp2
Vvhints
p3
(lp4
(dp5
Vwidth
p6
L10L
sVposition
p7
L25L
sa(dp8
g6
L10L
sg7
L301L
sa(dp9
g6
L10L
sg7
L306L
sa(dp10
g6
L10L
sg7
L407L
sa(dp11
g6
L10L
sg7
L674L
sasVhhints
p12
(lp13
(dp14
g6
L10L
sg7
L-19L
sa(dp15
g6
L10L
sg7
L722L
sa(dp16
g6
L10L
sg7
L731L
sa(dp17
g6
L10L
sg7
L790L
sa(dp18
g6
L10L
sg7
L800L
sass."
Colour: ff00
EndChar

StartChar: U
Encoding: 56 85 57
GlifName: U_
Width: 770
VWidth: 0
Flags: HMW
AnchorPoint: "LatinOgonek.mark" 480 0 basechar 0
AnchorPoint: "LatinBelow.mark" 385 0 basechar 0
AnchorPoint: "LatinAbove.mark" 385 150 basechar 0
LayerCount: 2
Fore
SplineSet
73 242 m 2
 73 780 l 1
 220 780 l 1
 220 242 l 2
 220 134 290 86 385 86 c 0
 480 86 550 134 550 242 c 2
 550 780 l 1
 697 780 l 1
 697 242 l 2
 697 95 577 -20 385 -20 c 0
 193 -20 73 95 73 242 c 2
EndSplineSet
PickledDataWithLists: "(dp0
Vcom.fontlab.hintData
p1
(dp2
Vvhints
p3
(lp4
(dp5
Vwidth
p6
L10L
sVposition
p7
L96L
sa(dp8
g6
L10L
sg7
L107L
sa(dp9
g6
L10L
sg7
L194L
sa(dp10
g6
L10L
sg7
L205L
sa(dp11
g6
L10L
sg7
L603L
sa(dp12
g6
L10L
sg7
L616L
sa(dp13
g6
L10L
sg7
L704L
sa(dp14
g6
L10L
sg7
L714L
sasVhhints
p15
(lp16
(dp17
g6
L10L
sg7
L-24L
sa(dp18
g6
L10L
sg7
L44L
sa(dp19
g6
L10L
sg7
L789L
sass."
EndChar

StartChar: V
Encoding: 57 86 58
GlifName: V_
Width: 750
VWidth: 0
Flags: HMW
AnchorPoint: "LatinBelow.mark" 375 0 basechar 0
AnchorPoint: "LatinAbove.mark" 375 150 basechar 0
LayerCount: 2
Fore
SplineSet
13 758 m 1
 13 767 l 1
 184 780 l 1
 375 189 l 1
 566 780 l 1
 737 767 l 1
 737 758 l 1
 436 0 l 1
 314 0 l 1
 13 758 l 1
EndSplineSet
PickledDataWithLists: "(dp0
Vcom.fontlab.hintData
p1
(dp2
Vvhints
p3
(lp4
(dp5
Vwidth
p6
L10L
sVposition
p7
L41L
sa(dp8
g6
L10L
sg7
L759L
sasVhhints
p9
(lp10
(dp11
g6
L10L
sg7
L-21L
sa(dp12
g6
L10L
sg7
L781L
sa(dp13
g6
L10L
sg7
L794L
sass."
EndChar

StartChar: W
Encoding: 58 87 59
GlifName: W_
Width: 1060
VWidth: 0
Flags: HMW
AnchorPoint: "LatinBelow.mark" 530 0 basechar 0
AnchorPoint: "LatinAbove.mark" 530 150 basechar 0
LayerCount: 2
Fore
SplineSet
1043 758 m 1
 816 0 l 1
 692 0 l 1
 530 555 l 1
 368 0 l 1
 244 0 l 1
 17 758 l 1
 17 766 l 1
 175 780 l 1
 317 206 l 1
 470 760 l 1
 590 760 l 1
 743 206 l 1
 885 780 l 1
 1043 766 l 1
 1043 758 l 1
EndSplineSet
PickledDataWithLists: "(dp0
Vcom.fontlab.hintData
p1
(dp2
Vvhints
p3
(lp4
(dp5
Vwidth
p6
L10L
sVposition
p7
L46L
sa(dp8
g6
L10L
sg7
L1045L
sasVhhints
p9
(lp10
(dp11
g6
L10L
sg7
L-10L
sa(dp12
g6
L10L
sg7
L762L
sa(dp13
g6
L10L
sg7
L790L
sass."
Colour: ff00
EndChar

StartChar: X
Encoding: 59 88 60
GlifName: X_
Width: 740
VWidth: 0
Flags: HMW
AnchorPoint: "LatinBelow.mark" 370 0 basechar 0
AnchorPoint: "LatinAbove.mark" 370 150 basechar 0
LayerCount: 2
Fore
SplineSet
48 758 m 1
 48 766 l 1
 208 780 l 1
 370 507 l 1
 533 780 l 1
 693 766 l 1
 693 758 l 1
 452 414 l 1
 743 7 l 1
 743 0 l 1
 575 0 l 1
 370 297 l 1
 166 0 l 1
 -2 0 l 1
 -2 7 l 1
 289 414 l 1
 48 758 l 1
EndSplineSet
PickledDataWithLists: "(dp0
Vcom.fontlab.hintData
p1
(dp2
Vvhints
p3
(lp4
(dp5
Vwidth
p6
L10L
sVposition
p7
L31L
sa(dp8
g6
L10L
sg7
L91L
sa(dp9
g6
L10L
sg7
L687L
sa(dp10
g6
L10L
sg7
L734L
sasVhhints
p11
(lp12
(dp13
g6
L10L
sg7
L-9L
sa(dp14
g6
L10L
sg7
L4L
sa(dp15
g6
L10L
sg7
L789L
sass."
Colour: ff00
EndChar

StartChar: Y
Encoding: 60 89 61
GlifName: Y_
Width: 670
VWidth: 0
Flags: HMW
AnchorPoint: "LatinBelow.mark" 335 0 basechar 0
AnchorPoint: "LatinAbove.mark" 335 150 basechar 0
LayerCount: 2
Fore
SplineSet
3 758 m 1
 3 767 l 1
 165 780 l 1
 335 431 l 1
 505 780 l 1
 667 767 l 1
 667 758 l 1
 407 291 l 1
 407 0 l 1
 263 0 l 1
 263 291 l 1
 3 758 l 1
EndSplineSet
PickledDataWithLists: "(dp0
Vcom.fontlab.hintData
p1
(dp2
Vvhints
p3
(lp4
(dp5
Vwidth
p6
L10L
sVposition
p7
L35L
sa(dp8
g6
L10L
sg7
L310L
sa(dp9
g6
L10L
sg7
L408L
sa(dp10
g6
L10L
sg7
L414L
sa(dp11
g6
L10L
sg7
L675L
sasVhhints
p12
(lp13
(dp14
g6
L10L
sg7
L-20L
sa(dp15
g6
L10L
sg7
L789L
sa(dp16
g6
L10L
sg7
L800L
sass."
EndChar

StartChar: Z
Encoding: 61 90 62
GlifName: Z_
Width: 670
VWidth: 0
Flags: HMW
AnchorPoint: "LatinBelow.mark" 335 0 basechar 0
AnchorPoint: "LatinAbove.mark" 335 150 basechar 0
LayerCount: 2
Fore
SplineSet
28 82 m 1
 439 668 l 1
 56 668 l 1
 56 780 l 1
 622 780 l 1
 632 698 l 1
 223 112 l 1
 643 112 l 1
 643 0 l 1
 38 0 l 1
 28 82 l 1
EndSplineSet
PickledDataWithLists: "(dp0
Vcom.fontlab.hintData
p1
(dp2
Vvhints
p3
(lp4
(dp5
Vwidth
p6
L10L
sVposition
p7
L46L
sa(dp8
g6
L10L
sg7
L66L
sa(dp9
g6
L10L
sg7
L679L
sa(dp10
g6
L10L
sg7
L699L
sasVhhints
p11
(lp12
(dp13
g6
L10L
sg7
L-13L
sa(dp14
g6
L10L
sg7
L64L
sa(dp15
g6
L10L
sg7
L75L
sa(dp16
g6
L10L
sg7
L709L
sa(dp17
g6
L10L
sg7
L779L
sa(dp18
g6
L10L
sg7
L785L
sa(dp19
g6
L10L
sg7
L790L
sass."
Colour: ff00
EndChar

StartChar: bracketleft
Encoding: 62 91 63
GlifName: bracketleft
Width: 435
VWidth: 0
Flags: HMW
LayerCount: 2
Fore
SplineSet
112 -120 m 1
 112 900 l 1
 352 900 l 1
 352 818 l 1
 228 818 l 1
 228 -38 l 1
 350 -38 l 1
 350 -120 l 1
 112 -120 l 1
EndSplineSet
PickledDataWithLists: "(dp0
Vcom.fontlab.hintData
p1
(dp2
Vvhints
p3
(lp4
(dp5
Vwidth
p6
L10L
sVposition
p7
L71L
sa(dp8
g6
L10L
sg7
L92L
sa(dp9
g6
L10L
sg7
L161L
sa(dp10
g6
L10L
sg7
L289L
sasVhhints
p11
(lp12
(dp13
g6
L10L
sg7
L-91L
sa(dp14
g6
L10L
sg7
L-44L
sa(dp15
g6
L10L
sg7
L830L
sa(dp16
g6
L10L
sg7
L877L
sass."
EndChar

StartChar: backslash
Encoding: 63 92 64
GlifName: backslash
Width: 510
VWidth: 0
Flags: HMW
LayerCount: 2
Fore
SplineSet
480 0 m 1
 356 0 l 1
 30 773 l 1
 30 780 l 1
 154 780 l 1
 480 7 l 1
 480 0 l 1
EndSplineSet
PickledDataWithLists: "(dp0
Vcom.fontlab.hintData
p1
(dp2
Vvhints
p3
(lp4
(dp5
Vwidth
p6
L10L
sVposition
p7
L40L
sa(dp8
g6
L10L
sg7
L430L
sasVhhints
p9
(lp10
(dp11
g6
L10L
sg7
L-29L
sa(dp12
g6
L10L
sg7
L819L
sass."
EndChar

StartChar: asciicircum
Encoding: 65 94 66
GlifName: asciicircum
Width: 630
VWidth: 0
Flags: HMW
LayerCount: 2
Fore
SplineSet
22 592 m 1
 288 894 l 1
 341 894 l 1
 607 592 l 1
 538 544 l 1
 314 750 l 1
 91 544 l 1
 22 592 l 1
EndSplineSet
PickledDataWithLists: "(dp0
Vcom.fontlab.hintData
p1
(dp2
Vvhints
p3
(lp4
(dp5
Vwidth
p6
L10L
sVposition
p7
L23L
sasVhhints
p8
(lp9
(dp10
g6
L10L
sg7
L532L
sa(dp11
g6
L10L
sg7
L839L
sass."
EndChar

StartChar: underscore
Encoding: 66 95 67
GlifName: underscore
Width: 600
VWidth: 0
Flags: HMW
LayerCount: 2
Fore
SplineSet
0 0 m 25
 600 0 l 25
 600 -104 l 25
 0 -104 l 25
 0 0 l 25
EndSplineSet
PickledDataWithLists: "(dp0
Vcom.fontlab.hintData
p1
(dp2
Vvhints
p3
(lp4
(dp5
Vwidth
p6
L10L
sVposition
p7
L30L
sa(dp8
g6
L10L
sg7
L559L
sasVhhints
p9
(lp10
(dp11
g6
L10L
sg7
L-69L
sa(dp12
g6
L10L
sg7
L-6L
sa(dp13
g6
L10L
sg7
L1L
sass."
EndChar

StartChar: grave
Encoding: 67 96 68
GlifName: grave
Width: 390
VWidth: 0
Flags: HMW
LayerCount: 2
Fore
SplineSet
-7 818 m 1
 96 894 l 1
 368 592 l 1
 299 544 l 1
 -7 818 l 1
EndSplineSet
PickledDataWithLists: "(dp0
Vcom.fontlab.hintData
p1
(dp2
Vvhints
p3
(lp4
(dp5
Vwidth
p6
L10L
sVposition
p7
L20L
sasVhhints
p8
(lp9
(dp10
g6
L10L
sg7
L541L
sa(dp11
g6
L10L
sg7
L838L
sass."
EndChar

StartChar: a
Encoding: 68 97 69
GlifName: a
Width: 625
VWidth: 0
Flags: HMW
AnchorPoint: "LatinOgonek.mark" 515 0 basechar 0
AnchorPoint: "LatinBelow.mark" 330 0 basechar 0
AnchorPoint: "LatinAbove.mark" 310 0 basechar 0
LayerCount: 2
Fore
SplineSet
48 173 m 0
 48 249 111 326 253 326 c 0
 311 326 369 322 415 318 c 1
 415 415 l 2
 415 494 364 522 301 522 c 0
 243 522 200 489 190 419 c 1
 53 430 l 1
 66 522 144 620 301 620 c 0
 453 620 548 531 548 415 c 2
 548 149 l 2
 548 98 559 79 608 73 c 1
 574 -15 l 1
 536 -10 472 4 447 64 c 1
 411 20 356 -15 272 -15 c 0
 132 -15 48 59 48 173 c 0
422 237 m 1
 379 242 319 248 260 248 c 0
 222 248 180 226 180 172 c 0
 180 95 235 67 289 67 c 0
 375 67 410 133 422 204 c 1
 422 237 l 1
EndSplineSet
PickledDataWithLists: "(dp0
Vcom.fontlab.hintData
p1
(dp2
Vvhints
p3
(lp4
(dp5
Vwidth
p6
L10L
sVposition
p7
L60L
sa(dp8
g6
L10L
sg7
L149L
sa(dp9
g6
L10L
sg7
L441L
sa(dp10
g6
L10L
sg7
L529L
sa(dp11
g6
L10L
sg7
L649L
sasVhhints
p12
(lp13
(dp14
g6
L10L
sg7
L-21L
sa(dp15
g6
L10L
sg7
L-11L
sa(dp16
g6
L10L
sg7
L41L
sa(dp17
g6
L10L
sg7
L362L
sa(dp18
g6
L10L
sg7
L432L
sa(dp19
g6
L10L
sg7
L549L
sa(dp20
g6
L10L
sg7
L611L
sass."
Substitution2: "Latin.ss20 subtable" uni0251
Substitution2: "Latin.ss19 subtable" uni0251
Colour: ff00
EndChar

StartChar: b
Encoding: 69 98 70
GlifName: b
Width: 675
VWidth: 0
Flags: HMW
AnchorPoint: "LatinBelow.mark" 360 0 basechar 0
AnchorPoint: "LatinAbove.mark" 135 180 basechar 0
LayerCount: 2
Fore
SplineSet
627 311 m 2
 627 289 l 2
 627 155 562 -15 374 -15 c 0
 296 -15 241 28 203 82 c 1
 193 0 l 1
 77 0 l 1
 77 810 l 1
 210 810 l 1
 210 528 l 1
 247 578 301 615 374 615 c 0
 562 615 627 445 627 311 c 2
210 371 m 1
 210 229 l 1
 229 149 277 84 357 84 c 0
 438 84 490 150 490 289 c 2
 490 311 l 2
 490 450 438 516 357 516 c 0
 277 516 229 451 210 371 c 1
EndSplineSet
PickledDataWithLists: "(dp0
Vcom.fontlab.hintData
p1
(dp2
Vvhints
p3
(lp4
(dp5
Vwidth
p6
L10L
sVposition
p7
L81L
sa(dp8
g6
L10L
sg7
L91L
sa(dp9
g6
L10L
sg7
L179L
sa(dp10
g6
L10L
sg7
L211L
sa(dp11
g6
L10L
sg7
L504L
sa(dp12
g6
L10L
sg7
L593L
sasVhhints
p13
(lp14
(dp15
g6
L10L
sg7
L-21L
sa(dp16
g6
L10L
sg7
L41L
sa(dp17
g6
L10L
sg7
L524L
sa(dp18
g6
L10L
sg7
L546L
sa(dp19
g6
L10L
sg7
L607L
sa(dp20
g6
L10L
sg7
L836L
sass."
Colour: ff00
EndChar

StartChar: c
Encoding: 70 99 71
GlifName: c
Width: 605
VWidth: 0
Flags: HMW
AnchorPoint: "LatinCedilla.mark" 330 0 basechar 0
AnchorPoint: "LatinBelow.mark" 330 0 basechar 0
AnchorPoint: "LatinAbove.mark" 330 0 basechar 0
LayerCount: 2
Fore
SplineSet
48 288 m 2
 48 312 l 2
 48 446 104 620 331 620 c 0
 497 620 567 513 578 449 c 1
 440 437 l 1
 432 476 393 521 331 521 c 0
 245 521 188 449 188 312 c 2
 188 288 l 2
 188 151 245 79 331 79 c 0
 393 79 432 124 440 163 c 1
 578 151 l 1
 567 87 497 -20 331 -20 c 0
 104 -20 48 154 48 288 c 2
EndSplineSet
PickledDataWithLists: "(dp0
Vcom.fontlab.hintData
p1
(dp2
Vvhints
p3
(lp4
(dp5
Vwidth
p6
L10L
sVposition
p7
L58L
sa(dp8
g6
L10L
sg7
L152L
sa(dp9
g6
L10L
sg7
L433L
sa(dp10
g6
L10L
sg7
L527L
sa(dp11
g6
L10L
sg7
L552L
sasVhhints
p12
(lp13
(dp14
g6
L10L
sg7
L-22L
sa(dp15
g6
L10L
sg7
L44L
sa(dp16
g6
L10L
sg7
L133L
sa(dp17
g6
L10L
sg7
L433L
sa(dp18
g6
L10L
sg7
L548L
sa(dp19
g6
L10L
sg7
L614L
sass."
Colour: ff00
EndChar

StartChar: d
Encoding: 71 100 72
GlifName: d
Width: 680
VWidth: 0
Flags: HMW
AnchorPoint: "LatinBelow.mark" 360 0 basechar 0
AnchorPoint: "LatinAbove.mark" 525 180 basechar 0
LayerCount: 2
Fore
SplineSet
48 289 m 2
 48 311 l 2
 48 445 113 615 301 615 c 0
 374 615 428 578 465 528 c 1
 465 810 l 1
 598 810 l 1
 598 149 l 2
 598 98 609 79 658 73 c 1
 624 -15 l 1
 578 -9 497 11 487 105 c 1
 450 40 390 -15 301 -15 c 0
 113 -15 48 155 48 289 c 2
465 371 m 1
 446 451 398 516 318 516 c 0
 237 516 185 450 185 311 c 2
 185 289 l 2
 185 150 237 84 318 84 c 0
 398 84 446 149 465 229 c 1
 465 371 l 1
EndSplineSet
PickledDataWithLists: "(dp0
Vcom.fontlab.hintData
p1
(dp2
Vvhints
p3
(lp4
(dp5
Vwidth
p6
L10L
sVposition
p7
L61L
sa(dp8
g6
L10L
sg7
L149L
sa(dp9
g6
L10L
sg7
L476L
sa(dp10
g6
L10L
sg7
L564L
sa(dp11
g6
L10L
sg7
L679L
sasVhhints
p12
(lp13
(dp14
g6
L10L
sg7
L-21L
sa(dp15
g6
L10L
sg7
L41L
sa(dp16
g6
L10L
sg7
L544L
sa(dp17
g6
L10L
sg7
L606L
sa(dp18
g6
L10L
sg7
L836L
sass."
Colour: ff00
EndChar

StartChar: e
Encoding: 72 101 73
GlifName: e
Width: 640
VWidth: 0
Flags: HMW
AnchorPoint: "LatinOgonek.mark" 410 0 basechar 0
AnchorPoint: "LatinBelow.mark" 330 0 basechar 0
AnchorPoint: "LatinAbove.mark" 330 0 basechar 0
LayerCount: 2
Fore
SplineSet
48 287 m 2
 48 313 l 2
 48 448 108 620 328 620 c 0
 507 620 593 489 593 359 c 0
 593 330 590 301 584 273 c 1
 585 272 l 1
 584 272 l 1
 181 272 l 1
 185 145 240 76 328 76 c 0
 397 76 438 123 445 162 c 1
 577 150 l 1
 565 84 492 -20 328 -20 c 0
 104 -20 48 152 48 287 c 2
183 358 m 1
 465 358 l 2
 465 359 l 0
 465 475 405 524 328 524 c 0
 248 524 194 465 183 358 c 1
EndSplineSet
PickledDataWithLists: "(dp0
Vcom.fontlab.hintData
p1
(dp2
Vvhints
p3
(lp4
(dp5
Vwidth
p6
L10L
sVposition
p7
L45L
sa(dp8
g6
L10L
sg7
L71L
sa(dp9
g6
L10L
sg7
L159L
sa(dp10
g6
L10L
sg7
L471L
sa(dp11
g6
L10L
sg7
L559L
sa(dp12
g6
L10L
sg7
L570L
sasVhhints
p13
(lp14
(dp15
g6
L10L
sg7
L-20L
sa(dp16
g6
L10L
sg7
L42L
sa(dp17
g6
L10L
sg7
L131L
sa(dp18
g6
L10L
sg7
L552L
sa(dp19
g6
L10L
sg7
L613L
sass."
Colour: ff00
EndChar

StartChar: f
Encoding: 73 102 74
GlifName: f
Width: 400
VWidth: 0
Flags: HMW
AnchorPoint: "LatinBelow.mark" 180 0 basechar 0
AnchorPoint: "LatinAbove.mark" 270 180 basechar 0
LayerCount: 2
Fore
SplineSet
25 514 m 1
 25 600 l 1
 110 600 l 1
 110 672 l 2
 110 730 147 830 283 830 c 0
 365 830 416 792 430 781 c 1
 373 708 l 1
 361 716 331 735 293 735 c 0
 261 735 243 710 243 672 c 2
 243 600 l 1
 385 600 l 1
 385 514 l 1
 247 514 l 1
 247 0 l 1
 110 0 l 1
 110 514 l 1
 25 514 l 1
EndSplineSet
PickledDataWithLists: "(dp0
Vcom.fontlab.hintData
p1
(dp2
Vvhints
p3
(lp4
(dp5
Vwidth
p6
L10L
sVposition
p7
L20L
sa(dp8
g6
L10L
sg7
L132L
sa(dp9
g6
L10L
sg7
L166L
sa(dp10
g6
L9L
sg7
L219L
sa(dp11
g6
L10L
sg7
L255L
sa(dp12
g6
L10L
sg7
L399L
sa(dp13
g6
L10L
sg7
L469L
sasVhhints
p14
(lp15
(dp16
g6
L10L
sg7
L-20L
sa(dp17
g6
L10L
sg7
L521L
sa(dp18
g6
L10L
sg7
L586L
sa(dp19
g6
L10L
sg7
L591L
sa(dp20
g6
L10L
sg7
L759L
sa(dp21
g6
L10L
sg7
L803L
sa(dp22
g6
L10L
sg7
L864L
sass."
Colour: ff00
EndChar

StartChar: h
Encoding: 75 104 76
GlifName: h
Width: 665
VWidth: 0
Flags: HMW
AnchorPoint: "LatinBelow.mark" 360 0 basechar 0
AnchorPoint: "LatinAbove.mark" 135 180 basechar 0
LayerCount: 2
Fore
SplineSet
77 0 m 1
 77 810 l 1
 209 810 l 1
 209 465 l 1
 251 545 321 615 428 615 c 0
 548 615 602 515 602 411 c 2
 602 0 l 1
 465 0 l 1
 465 406 l 2
 465 488 425 507 390 507 c 0
 310 507 234 409 214 306 c 1
 214 0 l 1
 77 0 l 1
EndSplineSet
PickledDataWithLists: "(dp0
Vcom.fontlab.hintData
p1
(dp2
Vvhints
p3
(lp4
(dp5
Vwidth
p6
L10L
sVposition
p7
L65L
sa(dp8
g6
L10L
sg7
L106L
sa(dp9
g6
L10L
sg7
L187L
sa(dp10
g6
L10L
sg7
L491L
sa(dp11
g6
L10L
sg7
L496L
sa(dp12
g6
L10L
sg7
L579L
sa(dp13
g6
L10L
sg7
L584L
sasVhhints
p14
(lp15
(dp16
g6
L10L
sg7
L-14L
sa(dp17
g6
L10L
sg7
L549L
sa(dp18
g6
L10L
sg7
L611L
sa(dp19
g6
L10L
sg7
L836L
sass."
Colour: ff00
EndChar

StartChar: i
Encoding: 76 105 77
GlifName: i
Width: 300
VWidth: 0
GlyphClass: 3
Flags: HMW
AnchorPoint: "LatinOgonek.mark" 155 0 basechar 0
AnchorPoint: "LatinBelow.mark" 150 0 basechar 0
AnchorPoint: "LatinAbove.mark" 150 180 basechar 0
LayerCount: 2
Fore
SplineSet
81 0 m 1
 81 600 l 1
 219 600 l 1
 219 0 l 1
 81 0 l 1
150 861 m 0
 200 861 238 830 238 780 c 0
 238 730 200 699 150 699 c 0
 100 699 62 730 62 780 c 0
 62 830 100 861 150 861 c 0
EndSplineSet
PickledDataWithLists: "(dp0
Vcom.fontlab.hintData
p1
(dp2
Vvhints
p3
(lp4
(dp5
Vwidth
p6
L10L
sVposition
p7
L86L
sa(dp8
g6
L10L
sg7
L116L
sa(dp9
g6
L10L
sg7
L204L
sa(dp10
g6
L10L
sg7
L234L
sa(dp11
g6
L10L
sg7
L244L
sasVhhints
p12
(lp13
(dp14
g6
L10L
sg7
L-21L
sa(dp15
g6
L10L
sg7
L595L
sa(dp16
g6
L10L
sg7
L725L
sa(dp17
g6
L20L
sg7
L826L
sa(dp18
g6
L10L
sg7
L852L
sass."
Substitution2: "Latin.ij.dotless subtable" dotlessi
Ligature2: "Latin.ij subtable" dotlessi uni0307
EndChar

StartChar: j
Encoding: 77 106 78
GlifName: j
Width: 310
VWidth: 0
GlyphClass: 3
Flags: HMW
AnchorPoint: "LatinBelow.mark" 150 -180 basechar 0
AnchorPoint: "LatinAbove.mark" 150 180 basechar 0
LayerCount: 2
Fore
SplineSet
-11 -138 m 1
 55 -119 91 -89 91 -10 c 2
 91 600 l 1
 227 600 l 1
 227 -18 l 2
 227 -135 132 -201 32 -225 c 1
 -11 -138 l 1
159 861 m 0
 209 861 247 830 247 780 c 0
 247 730 209 699 159 699 c 0
 109 699 71 730 71 780 c 0
 71 830 109 861 159 861 c 0
EndSplineSet
PickledDataWithLists: "(dp0
Vcom.fontlab.hintData
p1
(dp2
Vvhints
p3
(lp4
(dp5
Vwidth
p6
L10L
sVposition
p7
L31L
sa(dp8
g6
L10L
sg7
L86L
sa(dp9
g6
L10L
sg7
L126L
sa(dp10
g6
L10L
sg7
L146L
sa(dp11
g6
L10L
sg7
L234L
sa(dp12
g6
L10L
sg7
L244L
sasVhhints
p13
(lp14
(dp15
g6
L10L
sg7
L-246L
sa(dp16
g6
L10L
sg7
L596L
sa(dp17
g6
L10L
sg7
L725L
sa(dp18
g6
L20L
sg7
L826L
sa(dp19
g6
L10L
sg7
L852L
sass."
Substitution2: "Latin.ij.dotless subtable" uni0237
Ligature2: "Latin.ij subtable" uni0237 uni200D uni0307
Ligature2: "Latin.ij subtable" uni0237 uni0307
Ligature2: "Latin.ij subtable" dotlessi uni200D uni0307
EndChar

StartChar: k
Encoding: 78 107 79
GlifName: k
Width: 605
VWidth: 0
Flags: HMW
AnchorPoint: "LatinBelow.mark" 360 0 basechar 0
AnchorPoint: "LatinAbove.mark" 135 180 basechar 0
LayerCount: 2
Fore
SplineSet
88 0 m 1
 88 810 l 1
 218 810 l 1
 218 355 l 1
 434 600 l 1
 583 591 l 1
 583 586 l 1
 346 343 l 1
 608 5 l 1
 608 0 l 1
 452 0 l 1
 260 254 l 1
 218 212 l 1
 218 0 l 1
 88 0 l 1
EndSplineSet
PickledDataWithLists: "(dp0
Vcom.fontlab.hintData
p1
(dp2
Vvhints
p3
(lp4
(dp5
Vwidth
p6
L10L
sVposition
p7
L75L
sa(dp8
g6
L10L
sg7
L105L
sa(dp9
g6
L10L
sg7
L194L
sa(dp10
g6
L10L
sg7
L539L
sa(dp11
g6
L10L
sg7
L580L
sasVhhints
p12
(lp13
(dp14
g6
L10L
sg7
L-11L
sa(dp15
g6
L10L
sg7
L596L
sa(dp16
g6
L10L
sg7
L836L
sass."
Colour: ff00
EndChar

StartChar: l
Encoding: 79 108 80
GlifName: l
Width: 315
VWidth: 0
Flags: HMW
AnchorPoint: "LatinBelow.mark" 190 0 basechar 0
AnchorPoint: "LatinAbove.mark" 140 180 basechar 0
LayerCount: 2
Fore
SplineSet
80 134 m 2
 80 810 l 1
 217 810 l 1
 217 147 l 2
 217 97 246 80 310 74 c 1
 284 -15 l 1
 200 -9 80 14 80 134 c 2
EndSplineSet
PickledDataWithLists: "(dp0
Vcom.fontlab.hintData
p1
(dp2
Vvhints
p3
(lp4
(dp5
Vwidth
p6
L10L
sVposition
p7
L106L
sa(dp8
g6
L10L
sg7
L111L
sa(dp9
g6
L10L
sg7
L194L
sa(dp10
g6
L10L
sg7
L199L
sa(dp11
g6
L10L
sg7
L315L
sasVhhints
p12
(lp13
(dp14
g6
L10L
sg7
L-23L
sa(dp15
g6
L10L
sg7
L830L
sass."
EndChar

StartChar: m
Encoding: 80 109 81
GlifName: m
Width: 945
VWidth: 0
Flags: HMW
AnchorPoint: "LatinBelow.mark" 480 0 basechar 0
AnchorPoint: "LatinAbove.mark" 480 0 basechar 0
LayerCount: 2
Fore
SplineSet
67 593 m 1
 191 603 l 1
 205 495 l 1
 239 561 292 613 380 613 c 0
 467 613 517 559 537 490 c 1
 570 558 625 613 715 613 c 0
 833 613 882 514 882 411 c 2
 882 0 l 1
 745 0 l 1
 745 406 l 2
 745 488 710 505 677 505 c 0
 610 505 564 419 548 323 c 1
 548 0 l 1
 411 0 l 1
 411 406 l 2
 411 488 376 505 343 505 c 0
 276 505 230 419 214 323 c 1
 214 0 l 1
 77 0 l 1
 77 420 l 1
 67 593 l 1
EndSplineSet
PickledDataWithLists: "(dp0
Vcom.fontlab.hintData
p1
(dp2
Vvhints
p3
(lp4
(dp5
Vwidth
p6
L10L
sVposition
p7
L76L
sa(dp8
g6
L10L
sg7
L96L
sa(dp9
g6
L10L
sg7
L167L
sa(dp10
g6
L10L
sg7
L436L
sa(dp11
g6
L10L
sg7
L441L
sa(dp12
g6
L10L
sg7
L776L
sa(dp13
g6
L10L
sg7
L781L
sa(dp14
g6
L10L
sg7
L864L
sa(dp15
g6
L10L
sg7
L869L
sasVhhints
p16
(lp17
(dp18
g6
L10L
sg7
L-19L
sa(dp19
g6
L10L
sg7
L-10L
sa(dp20
g6
L10L
sg7
L549L
sa(dp21
g6
L10L
sg7
L606L
sa(dp22
g6
L10L
sg7
L611L
sass."
Colour: ff00
EndChar

StartChar: n
Encoding: 81 110 82
GlifName: n
Width: 655
VWidth: 0
Flags: HMW
AnchorPoint: "LatinBelow.mark" 360 0 basechar 0
AnchorPoint: "LatinAbove.mark" 330 0 basechar 0
LayerCount: 2
Fore
SplineSet
77 0 m 1
 77 420 l 1
 67 593 l 1
 191 603 l 1
 208 470 l 1
 248 548 315 615 419 615 c 0
 539 615 592 515 592 411 c 2
 592 0 l 1
 455 0 l 1
 455 406 l 2
 455 488 415 507 381 507 c 0
 303 507 233 410 214 307 c 1
 214 0 l 1
 77 0 l 1
EndSplineSet
PickledDataWithLists: "(dp0
Vcom.fontlab.hintData
p1
(dp2
Vvhints
p3
(lp4
(dp5
Vwidth
p6
L10L
sVposition
p7
L55L
sa(dp8
g6
L10L
sg7
L96L
sa(dp9
g6
L10L
sg7
L481L
sa(dp10
g6
L10L
sg7
L486L
sa(dp11
g6
L10L
sg7
L569L
sa(dp12
g6
L10L
sg7
L574L
sasVhhints
p13
(lp14
(dp15
g6
L10L
sg7
L-15L
sa(dp16
g6
L10L
sg7
L-10L
sa(dp17
g6
L10L
sg7
L549L
sa(dp18
g6
L10L
sg7
L606L
sa(dp19
g6
L10L
sg7
L611L
sass."
Substitution2: "Latin.sups subtable" n.sups
Substitution2: "Latin.sups subtable" n.sups
Colour: ff00
EndChar

StartChar: o
Encoding: 82 111 83
GlifName: o
Width: 660
VWidth: 0
Flags: HMW
AnchorPoint: "LatinOgonek.mark" 400 0 basechar 0
AnchorPoint: "LatinBelow.mark" 330 0 basechar 0
AnchorPoint: "LatinAbove.mark" 330 0 basechar 0
LayerCount: 2
Fore
SplineSet
48 287 m 2
 48 313 l 2
 48 447 104 620 330 620 c 0
 556 620 612 447 612 313 c 2
 612 287 l 2
 612 153 556 -20 330 -20 c 0
 104 -20 48 153 48 287 c 2
330 78 m 0
 420 78 475 150 475 287 c 2
 475 313 l 2
 475 450 420 522 330 522 c 0
 240 522 185 450 185 313 c 2
 185 287 l 2
 185 150 240 78 330 78 c 0
EndSplineSet
PickledDataWithLists: "(dp0
Vcom.fontlab.hintData
p1
(dp2
Vvhints
p3
(lp4
(dp5
Vwidth
p6
L10L
sVposition
p7
L61L
sa(dp8
g6
L10L
sg7
L149L
sa(dp9
g6
L10L
sg7
L441L
sa(dp10
g6
L10L
sg7
L506L
sa(dp11
g6
L10L
sg7
L594L
sasVhhints
p12
(lp13
(dp14
g6
L10L
sg7
L-21L
sa(dp15
g6
L9L
sg7
L42L
sa(dp16
g6
L10L
sg7
L552L
sa(dp17
g6
L10L
sg7
L614L
sass."
Colour: ff00
EndChar

StartChar: p
Encoding: 83 112 84
GlifName: p
Width: 675
VWidth: 0
Flags: HMW
AnchorPoint: "LatinBelow.mark" 150 -180 basechar 0
AnchorPoint: "LatinAbove.mark" 330 0 basechar 0
LayerCount: 2
Fore
SplineSet
627 311 m 2
 627 289 l 2
 627 155 562 -15 374 -15 c 0
 303 -15 251 20 214 67 c 1
 214 -210 l 1
 77 -210 l 1
 77 420 l 1
 67 593 l 1
 191 603 l 1
 202 517 l 1
 240 572 295 615 374 615 c 0
 562 615 627 445 627 311 c 2
214 214 m 1
 235 141 282 84 357 84 c 0
 438 84 490 150 490 289 c 2
 490 311 l 2
 490 450 438 516 357 516 c 0
 282 516 235 459 214 386 c 1
 214 214 l 1
EndSplineSet
PickledDataWithLists: "(dp0
Vcom.fontlab.hintData
p1
(dp2
Vvhints
p3
(lp4
(dp5
Vwidth
p6
L10L
sVposition
p7
L41L
sa(dp8
g6
L10L
sg7
L101L
sa(dp9
g6
L10L
sg7
L108L
sa(dp10
g6
L10L
sg7
L193L
sa(dp11
g6
L10L
sg7
L523L
sa(dp12
g6
L10L
sg7
L612L
sasVhhints
p13
(lp14
(dp15
g6
L10L
sg7
L-246L
sa(dp16
g6
L10L
sg7
L-16L
sa(dp17
g6
L10L
sg7
L46L
sa(dp18
g6
L10L
sg7
L549L
sa(dp19
g6
L10L
sg7
L610L
sass."
Colour: ff00
EndChar

StartChar: q
Encoding: 84 113 85
GlifName: q
Width: 675
VWidth: 0
Flags: HMW
AnchorPoint: "LatinBelow.mark" 535 -240 basechar 0
AnchorPoint: "LatinAbove.mark" 360 0 basechar 0
LayerCount: 2
Fore
SplineSet
48 289 m 2
 48 311 l 2
 48 445 113 615 301 615 c 0
 379 615 434 572 472 518 c 1
 482 600 l 1
 598 600 l 1
 598 -210 l 1
 465 -210 l 1
 465 72 l 1
 428 22 374 -15 301 -15 c 0
 113 -15 48 155 48 289 c 2
465 229 m 1
 465 371 l 1
 446 451 398 516 318 516 c 0
 237 516 185 450 185 311 c 2
 185 289 l 2
 185 150 237 84 318 84 c 0
 398 84 446 149 465 229 c 1
EndSplineSet
PickledDataWithLists: "(dp0
Vcom.fontlab.hintData
p1
(dp2
Vvhints
p3
(lp4
(dp5
Vwidth
p6
L10L
sVposition
p7
L59L
sa(dp8
g6
L10L
sg7
L149L
sa(dp9
g6
L10L
sg7
L444L
sa(dp10
g6
L10L
sg7
L459L
sa(dp11
g6
L10L
sg7
L471L
sa(dp12
g6
L10L
sg7
L547L
sa(dp13
g6
L10L
sg7
L559L
sa(dp14
g6
L10L
sg7
L649L
sasVhhints
p15
(lp16
(dp17
g6
L10L
sg7
L-261L
sa(dp18
g6
L10L
sg7
L-184L
sa(dp19
g6
L10L
sg7
L-17L
sa(dp20
g6
L10L
sg7
L44L
sa(dp21
g6
L10L
sg7
L66L
sa(dp22
g6
L10L
sg7
L549L
sa(dp23
g6
L10L
sg7
L611L
sass."
Colour: ff00
EndChar

StartChar: r
Encoding: 85 114 86
GlifName: r
Width: 435
VWidth: 0
Flags: HMW
AnchorPoint: "LatinBelow.mark" 170 0 basechar 0
AnchorPoint: "LatinAbove.mark" 240 0 basechar 0
LayerCount: 2
Fore
SplineSet
62 590 m 1
 177 603 l 1
 210 475 l 1
 235 550 282 615 371 615 c 0
 399 615 422 609 442 599 c 1
 390 487 l 1
 378 494 365 498 348 498 c 0
 287 498 248 417 234 323 c 1
 234 0 l 1
 97 0 l 1
 97 443 l 1
 62 590 l 1
EndSplineSet
PickledDataWithLists: "(dp0
Vcom.fontlab.hintData
p1
(dp2
Vvhints
p3
(lp4
(dp5
Vwidth
p6
L10L
sVposition
p7
L20L
sa(dp8
g6
L10L
sg7
L171L
sa(dp9
g6
L10L
sg7
L261L
sa(dp10
g6
L10L
sg7
L479L
sasVhhints
p11
(lp12
(dp13
g6
L10L
sg7
L-13L
sa(dp14
g6
L10L
sg7
L524L
sa(dp15
g6
L10L
sg7
L549L
sa(dp16
g6
L10L
sg7
L596L
sa(dp17
g6
L10L
sg7
L611L
sass."
Colour: ff00
EndChar

StartChar: s
Encoding: 86 115 87
GlifName: s
Width: 570
VWidth: 0
Flags: HMW
AnchorPoint: "LatinCedilla.mark" 310 0 basechar 0
AnchorPoint: "LatinBelow.mark" 285 0 basechar 0
AnchorPoint: "LatinAbove.mark" 285 0 basechar 0
LayerCount: 2
Fore
SplineSet
37 141 m 1
 169 158 l 1
 175 116 216 76 289 76 c 0
 361 76 402 108 402 159 c 0
 402 207 363 226 339 233 c 0
 295 246 233 263 189 279 c 0
 131 300 52 340 52 439 c 0
 52 541 145 620 285 620 c 0
 437 620 505 526 517 462 c 1
 384 445 l 1
 377 487 347 524 285 524 c 0
 223 524 182 493 182 444 c 0
 182 405 219 387 248 378 c 0
 290 364 355 346 390 335 c 0
 459 314 532 272 532 164 c 0
 532 60 438 -20 285 -20 c 0
 122 -20 49 76 37 141 c 1
EndSplineSet
PickledDataWithLists: "(dp0
Vcom.fontlab.hintData
p1
(dp2
Vvhints
p3
(lp4
(dp5
Vwidth
p6
L10L
sVposition
p7
L60L
sa(dp8
g6
L10L
sg7
L139L
sa(dp9
g6
L10L
sg7
L381L
sa(dp10
g6
L10L
sg7
L431L
sa(dp11
g6
L10L
sg7
L470L
sa(dp12
g6
L10L
sg7
L516L
sasVhhints
p13
(lp14
(dp15
g6
L10L
sg7
L-20L
sa(dp16
g6
L10L
sg7
L42L
sa(dp17
g6
L10L
sg7
L151L
sa(dp18
g6
L10L
sg7
L434L
sa(dp19
g6
L10L
sg7
L554L
sa(dp20
g6
L10L
sg7
L616L
sass."
Colour: ff00
EndChar

StartChar: t
Encoding: 87 116 88
GlifName: t
Width: 415
VWidth: 0
Flags: HMW
AnchorPoint: "LatinCedilla.mark" 270 0 basechar 0
AnchorPoint: "LatinBelow.mark" 280 0 basechar 0
AnchorPoint: "LatinAbove.mark" 180 120 basechar 0
LayerCount: 2
Fore
SplineSet
25 514 m 1
 25 600 l 1
 115 600 l 1
 115 725 l 1
 244 735 l 1
 244 600 l 1
 385 600 l 1
 385 514 l 1
 247 514 l 1
 247 154 l 2
 247 97 260 83 293 83 c 0
 331 83 369 96 383 105 c 1
 415 16 l 1
 385 0 338 -15 276 -15 c 0
 178 -15 110 26 110 134 c 2
 110 514 l 1
 25 514 l 1
EndSplineSet
PickledDataWithLists: "(dp0
Vcom.fontlab.hintData
p1
(dp2
Vvhints
p3
(lp4
(dp5
Vwidth
p6
L10L
sVposition
p7
L20L
sa(dp8
g6
L10L
sg7
L131L
sa(dp9
g6
L10L
sg7
L136L
sa(dp10
g6
L10L
sg7
L141L
sa(dp11
g6
L10L
sg7
L219L
sa(dp12
g6
L10L
sg7
L225L
sa(dp13
g6
L10L
sg7
L399L
sa(dp14
g6
L10L
sg7
L439L
sasVhhints
p15
(lp16
(dp17
g6
L10L
sg7
L-18L
sa(dp18
g6
L10L
sg7
L41L
sa(dp19
g6
L10L
sg7
L86L
sa(dp20
g6
L10L
sg7
L524L
sa(dp21
g6
L10L
sg7
L586L
sa(dp22
g6
L10L
sg7
L741L
sass."
Colour: ff00
EndChar

StartChar: u
Encoding: 88 117 89
GlifName: u
Width: 620
VWidth: 0
Flags: HMW
AnchorPoint: "LatinOgonek.mark" 380 0 basechar 0
AnchorPoint: "LatinBelow.mark" 310 0 basechar 0
AnchorPoint: "LatinAbove.mark" 310 0 basechar 0
LayerCount: 2
Fore
SplineSet
58 191 m 2
 58 600 l 1
 195 600 l 1
 195 191 l 2
 195 110 246 78 310 78 c 0
 374 78 425 110 425 191 c 2
 425 600 l 1
 562 600 l 1
 562 191 l 2
 562 75 466 -20 310 -20 c 0
 154 -20 58 75 58 191 c 2
EndSplineSet
PickledDataWithLists: "(dp0
Vcom.fontlab.hintData
p1
(dp2
Vvhints
p3
(lp4
(dp5
Vwidth
p6
L10L
sVposition
p7
L81L
sa(dp8
g6
L10L
sg7
L86L
sa(dp9
g6
L10L
sg7
L174L
sa(dp10
g6
L10L
sg7
L471L
sa(dp11
g6
L10L
sg7
L649L
sasVhhints
p12
(lp13
(dp14
g6
L10L
sg7
L-21L
sa(dp15
g6
L10L
sg7
L-16L
sa(dp16
g6
L10L
sg7
L41L
sa(dp17
g6
L10L
sg7
L601L
sass."
EndChar

StartChar: v
Encoding: 89 118 90
GlifName: v
Width: 600
VWidth: 0
Flags: HMW
AnchorPoint: "LatinBelow.mark" 300 0 basechar 0
AnchorPoint: "LatinAbove.mark" 300 0 basechar 0
LayerCount: 2
Fore
SplineSet
7 583 m 1
 7 590 l 1
 156 600 l 1
 300 168 l 1
 444 600 l 1
 593 590 l 1
 593 583 l 1
 356 0 l 1
 244 0 l 1
 7 583 l 1
EndSplineSet
PickledDataWithLists: "(dp0
Vcom.fontlab.hintData
p1
(dp2
Vvhints
p3
(lp4
(dp5
Vwidth
p6
L10L
sVposition
p7
L35L
sa(dp8
g6
L10L
sg7
L584L
sasVhhints
p9
(lp10
(dp11
g6
L10L
sg7
L-18L
sa(dp12
g6
L10L
sg7
L581L
sa(dp13
g6
L10L
sg7
L591L
sass."
Colour: ff00
EndChar

StartChar: w
Encoding: 90 119 91
GlifName: w
Width: 830
VWidth: 0
Flags: HMW
AnchorPoint: "LatinBelow.mark" 415 0 basechar 0
AnchorPoint: "LatinAbove.mark" 415 0 basechar 0
LayerCount: 2
Fore
SplineSet
818 582 m 1
 644 0 l 1
 528 0 l 1
 527 0 l 1
 414 394 l 1
 302 0 l 1
 186 0 l 1
 12 582 l 1
 12 590 l 1
 157 600 l 1
 255 196 l 1
 360 585 l 1
 469 585 l 1
 575 194 l 1
 673 600 l 1
 818 590 l 1
 818 582 l 1
EndSplineSet
PickledDataWithLists: "(dp0
Vcom.fontlab.hintData
p1
(dp2
Vvhints
p3
(lp4
(dp5
Vwidth
p6
L10L
sVposition
p7
L41L
sa(dp8
g6
L10L
sg7
L790L
sasVhhints
p9
(lp10
(dp11
g6
L10L
sg7
L-11L
sa(dp12
g6
L10L
sg7
L568L
sa(dp13
g6
L10L
sg7
L590L
sass."
Colour: ff00
EndChar

StartChar: x
Encoding: 91 120 92
GlifName: x
Width: 600
VWidth: 0
Flags: HMW
AnchorPoint: "LatinBelow.mark" 300 0 basechar 0
AnchorPoint: "LatinAbove.mark" 300 0 basechar 0
LayerCount: 2
Fore
SplineSet
43 583 m 1
 43 590 l 1
 188 600 l 1
 301 410 l 1
 413 600 l 1
 558 590 l 1
 558 583 l 1
 376 323 l 1
 598 5 l 1
 598 0 l 1
 446 0 l 1
 301 214 l 1
 155 0 l 1
 3 0 l 1
 3 5 l 1
 225 323 l 1
 43 583 l 1
EndSplineSet
PickledDataWithLists: "(dp0
Vcom.fontlab.hintData
p1
(dp2
Vvhints
p3
(lp4
(dp5
Vwidth
p6
L10L
sVposition
p7
L26L
sa(dp8
g6
L10L
sg7
L71L
sa(dp9
g6
L10L
sg7
L524L
sa(dp10
g6
L10L
sg7
L559L
sasVhhints
p11
(lp12
(dp13
g6
L10L
sg7
L-6L
sa(dp14
g6
L10L
sg7
L5L
sa(dp15
g6
L10L
sg7
L591L
sass."
Colour: ff00
EndChar

StartChar: y
Encoding: 92 121 93
GlifName: y
Width: 600
VWidth: 0
Flags: HMW
AnchorPoint: "LatinBelow.mark" 300 -180 basechar 0
AnchorPoint: "LatinAbove.mark" 300 0 basechar 0
LayerCount: 2
Fore
SplineSet
7 583 m 1
 7 590 l 1
 156 600 l 1
 301 164 l 1
 444 600 l 1
 593 590 l 1
 593 583 l 1
 352 -20 l 1
 306 -121 267 -230 138 -230 c 0
 83 -230 43 -208 17 -188 c 1
 82 -107 l 1
 98 -121 114 -136 134 -136 c 0
 177 -136 201 -84 241 6 c 2
 241 7 l 1
 7 583 l 1
EndSplineSet
PickledDataWithLists: "(dp0
Vcom.fontlab.hintData
p1
(dp2
Vvhints
p3
(lp4
(dp5
Vwidth
p6
L10L
sVposition
p7
L56L
sa(dp8
g6
L10L
sg7
L130L
sasVhhints
p9
(lp10
(dp11
g6
L10L
sg7
L-257L
sa(dp12
g6
L10L
sg7
L-195L
sa(dp13
g6
L10L
sg7
L-164L
sa(dp14
g6
L10L
sg7
L4L
sa(dp15
g6
L10L
sg7
L584L
sa(dp16
g6
L10L
sg7
L595L
sass."
Colour: ff00
EndChar

StartChar: z
Encoding: 93 122 94
GlifName: z
Width: 530
VWidth: 0
Flags: HMW
AnchorPoint: "LatinBelow.mark" 265 0 basechar 0
AnchorPoint: "LatinAbove.mark" 265 0 basechar 0
LayerCount: 2
Fore
SplineSet
22 68 m 1
 322 505 l 1
 45 505 l 1
 45 600 l 1
 493 600 l 1
 501 532 l 1
 201 95 l 1
 507 95 l 1
 507 0 l 1
 30 0 l 1
 22 68 l 1
EndSplineSet
PickledDataWithLists: "(dp0
Vcom.fontlab.hintData
p1
(dp2
Vvhints
p3
(lp4
(dp5
Vwidth
p6
L10L
sVposition
p7
L46L
sa(dp8
g6
L10L
sg7
L61L
sa(dp9
g6
L10L
sg7
L531L
sa(dp10
g6
L10L
sg7
L544L
sasVhhints
p11
(lp12
(dp13
g6
L10L
sg7
L-17L
sa(dp14
g6
L10L
sg7
L51L
sa(dp15
g6
L10L
sg7
L59L
sa(dp16
g6
L15L
sg7
L525L
sa(dp17
g6
L10L
sg7
L587L
sa(dp18
g6
L10L
sg7
L592L
sass."
Colour: ff00
EndChar

StartChar: braceleft
Encoding: 94 123 95
GlifName: braceleft
Width: 390
VWidth: 0
Flags: HMW
LayerCount: 2
Fore
SplineSet
37 368 m 1
 37 390 l 1
 37 412 l 1
 82 424 133 455 133 539 c 0
 133 576 99 672 99 732 c 0
 99 822 156 900 267 900 c 2
 322 900 l 1
 322 831 l 1
 284 831 l 2
 259 831 219 818 219 724 c 0
 219 675 249 578 249 527 c 0
 249 454 213 411 162 390 c 1
 213 369 249 326 249 253 c 0
 249 202 219 105 219 56 c 0
 219 -38 259 -51 284 -51 c 2
 322 -51 l 1
 322 -120 l 1
 267 -120 l 2
 156 -120 99 -42 99 48 c 0
 99 108 133 204 133 241 c 0
 133 325 82 356 37 368 c 1
EndSplineSet
PickledDataWithLists: "(dp0
Vcom.fontlab.hintData
p1
(dp2
Vvhints
p3
(lp4
(dp5
Vwidth
p6
L10L
sVposition
p7
L22L
sa(dp8
g6
L10L
sg7
L112L
sa(dp9
g6
L10L
sg7
L128L
sa(dp10
g6
L10L
sg7
L182L
sa(dp11
g6
L10L
sg7
L197L
sa(dp12
g6
L10L
sg7
L205L
sa(dp13
g6
L10L
sg7
L289L
sasVhhints
p14
(lp15
(dp16
g6
L10L
sg7
L-89L
sa(dp17
g6
L10L
sg7
L-41L
sa(dp18
g6
L10L
sg7
L830L
sa(dp19
g6
L10L
sg7
L879L
sass."
EndChar

StartChar: bar
Encoding: 95 124 96
GlifName: bar
Width: 360
VWidth: 0
Flags: HMW
LayerCount: 2
Fore
SplineSet
120 -120 m 1
 120 900 l 1
 240 900 l 1
 240 -120 l 1
 120 -120 l 1
EndSplineSet
PickledDataWithLists: "(dp0
Vcom.fontlab.hintData
p1
(dp2
Vvhints
p3
(lp4
(dp5
Vwidth
p6
L10L
sVposition
p7
L131L
sa(dp8
g6
L10L
sg7
L209L
sa(dp9
g6
L10L
sg7
L216L
sasVhhints
p10
(lp11
(dp12
g6
L10L
sg7
L-92L
sa(dp13
g6
L10L
sg7
L882L
sass."
EndChar

StartChar: asciitilde
Encoding: 97 126 98
GlifName: asciitilde
Width: 600
VWidth: 0
Flags: HMW
LayerCount: 2
Fore
SplineSet
37 320 m 1
 66 405 104 497 202 497 c 0
 268 497 309 453 336 426 c 0
 366 396 385 381 401 381 c 0
 435 381 461 430 476 486 c 1
 562 460 l 1
 533 375 495 283 397 283 c 0
 331 283 290 327 263 354 c 0
 233 384 214 399 198 399 c 0
 164 399 138 350 123 294 c 1
 37 320 l 1
EndSplineSet
PickledDataWithLists: "(dp0
Vcom.fontlab.hintData
p1
(dp2
Vvhints
p3
(lp4
(dp5
Vwidth
p6
L10L
sVposition
p7
L51L
sa(dp8
g6
L10L
sg7
L539L
sasVhhints
p9
(lp10
(dp11
g6
L10L
sg7
L249L
sa(dp12
g6
L10L
sg7
L260L
sa(dp13
g6
L10L
sg7
L311L
sa(dp14
g6
L10L
sg7
L359L
sa(dp15
g6
L10L
sg7
L411L
sa(dp16
g6
L10L
sg7
L421L
sass."
EndChar

StartChar: copyright
Encoding: 107 169 100
GlifName: copyright
Width: 1020
VWidth: 0
Flags: HMW
LayerCount: 2
Fore
SplineSet
335 396 m 2
 335 411 l 2
 335 499 375 609 519 609 c 0
 625 609 669 540 677 499 c 1
 591 491 l 1
 587 516 562 545 519 545 c 0
 461 545 424 499 424 411 c 2
 424 396 l 2
 424 308 461 262 519 262 c 0
 562 262 587 290 591 315 c 1
 677 307 l 1
 669 266 625 198 519 198 c 0
 375 198 335 308 335 396 c 2
510 -15 m 0
 249 -15 81 166 81 405 c 0
 81 644 249 825 510 825 c 0
 771 825 939 644 939 405 c 0
 939 166 771 -15 510 -15 c 0
510 55 m 0
 723 55 861 196 861 405 c 0
 861 614 723 755 510 755 c 0
 297 755 159 614 159 405 c 0
 159 196 297 55 510 55 c 0
EndSplineSet
PickledDataWithLists: "(dp0
Vcom.fontlab.hintData
p1
(dp2
Vvhints
p3
(lp4
(dp5
Vwidth
p6
L10L
sVposition
p7
L83L
sa(dp8
g6
L10L
sg7
L147L
sa(dp9
g6
L10L
sg7
L315L
sa(dp10
g6
L10L
sg7
L395L
sa(dp11
g6
L10L
sg7
L565L
sa(dp12
g6
L10L
sg7
L645L
sa(dp13
g6
L10L
sg7
L661L
sa(dp14
g6
L10L
sg7
L798L
sa(dp15
g6
L10L
sg7
L863L
sa(dp16
g6
L10L
sg7
L927L
sasVhhints
p17
(lp18
(dp19
g6
L10L
sg7
L-27L
sa(dp20
g6
L10L
sg7
L17L
sa(dp21
g6
L10L
sg7
L170L
sa(dp22
g6
L10L
sg7
L224L
sa(dp23
g6
L10L
sg7
L283L
sa(dp24
g6
L10L
sg7
L472L
sa(dp25
g6
L10L
sg7
L549L
sa(dp26
g6
L10L
sg7
L603L
sa(dp27
g6
L10L
sg7
L773L
sa(dp28
g6
L10L
sg7
L817L
sass."
EndChar

StartChar: registered
Encoding: 112 174 101
GlifName: registered
Width: 870
VWidth: 0
Flags: HMW
LayerCount: 2
Fore
SplineSet
435 263 m 0
 223 263 89 409 89 600 c 0
 89 791 223 937 435 937 c 0
 647 937 781 791 781 600 c 0
 781 409 647 263 435 263 c 0
435 315 m 0
 605 315 718 429 718 600 c 0
 718 771 605 885 435 885 c 0
 265 885 152 771 152 600 c 0
 152 429 265 315 435 315 c 0
399 551 m 1
 393 551 387 551 381 551 c 1
 381 400 l 1
 297 400 l 1
 297 555 l 1
 297 790 l 1
 297 790 366 795 435 795 c 0
 535 795 602 748 602 673 c 0
 602 613 558 570 490 556 c 1
 617 404 l 1
 617 400 l 1
 521 400 l 1
 399 551 l 1
381 612 m 1
 393 611 409 611 425 611 c 0
 476 611 518 623 518 673 c 0
 518 723 476 735 425 735 c 0
 409 735 393 734 381 733 c 1
 381 612 l 1
EndSplineSet
PickledDataWithLists: "(dp0
Vcom.fontlab.hintData
p1
(dp2
Vvhints
p3
(lp4
(dp5
Vwidth
p6
L10L
sVposition
p7
L90L
sa(dp8
g6
L10L
sg7
L140L
sa(dp9
g6
L10L
sg7
L263L
sa(dp10
g6
L10L
sg7
L301L
sa(dp11
g6
L10L
sg7
L303L
sa(dp12
g6
L10L
sg7
L363L
sa(dp13
g6
L10L
sg7
L480L
sa(dp14
g6
L10L
sg7
L544L
sa(dp15
g6
L10L
sg7
L557L
sa(dp16
g6
L10L
sg7
L628L
sa(dp17
g6
L10L
sg7
L677L
sa(dp18
g6
L10L
sg7
L727L
sasVhhints
p19
(lp20
(dp21
g6
L10L
sg7
L319L
sa(dp22
g6
L10L
sg7
L351L
sa(dp23
g6
L10L
sg7
L469L
sa(dp24
g6
L20L
sg7
L596L
sa(dp25
g6
L10L
sg7
L644L
sa(dp26
g6
L10L
sg7
L654L
sa(dp27
g6
L11L
sg7
L725L
sa(dp28
g6
L10L
sg7
L757L
sa(dp29
g6
L10L
sg7
L799L
sa(dp30
g6
L10L
sg7
L919L
sa(dp31
g6
L10L
sg7
L951L
sass."
EndChar

StartChar: guillemotleft
Encoding: 109 171 102
GlifName: guillemotleft
Width: 780
VWidth: 0
Flags: HMW
LayerCount: 2
Fore
SplineSet
67 334 m 1
 67 386 l 1
 369 652 l 1
 417 584 l 1
 211 360 l 1
 417 136 l 1
 369 68 l 1
 67 334 l 1
362 334 m 1
 362 386 l 1
 665 652 l 1
 712 584 l 1
 506 360 l 1
 712 136 l 1
 665 68 l 1
 362 334 l 1
EndSplineSet
PickledDataWithLists: "(dp0
Vcom.fontlab.hintData
p1
(dp2
Vvhints
p3
(lp4
(dp5
Vwidth
p6
L10L
sVposition
p7
L66L
sa(dp8
g6
L10L
sg7
L336L
sa(dp9
g6
L10L
sg7
L356L
sa(dp10
g6
L10L
sg7
L368L
sa(dp11
g6
L10L
sg7
L626L
sa(dp12
g6
L10L
sg7
L638L
sasVhhints
p13
(lp14
(dp15
g6
L10L
sg7
L65L
sa(dp16
g6
L10L
sg7
L605L
sass."
EndChar

StartChar: figuredash
Encoding: 706 8210 113
GlifName: figuredash
Width: 660
VWidth: 0
Flags: HMW
LayerCount: 2
Fore
SplineSet
82 412 m 1
 578 412 l 1
 578 308 l 1
 82 308 l 1
 82 412 l 1
EndSplineSet
PickledDataWithLists: "(dp0
Vcom.fontlab.hintData
p1
(dp2
Vvhints
p3
(lp4
(dp5
Vwidth
p6
L10L
sVposition
p7
L105L
sa(dp8
g6
L10L
sg7
L604L
sasVhhints
p9
(lp10
(dp11
g6
L10L
sg7
L301L
sa(dp12
g6
L10L
sg7
L364L
sa(dp13
g6
L10L
sg7
L371L
sass."
EndChar

StartChar: emdash
Encoding: 708 8212 116
GlifName: emdash
Width: 1200
VWidth: 0
Flags: HMW
LayerCount: 2
Fore
SplineSet
82 412 m 1
 1118 412 l 1
 1118 308 l 1
 82 308 l 1
 82 412 l 1
EndSplineSet
PickledDataWithLists: "(dp0
Vcom.fontlab.hintData
p1
(dp2
Vvhints
p3
(lp4
(dp5
Vwidth
p6
L10L
sVposition
p7
L90L
sa(dp8
g6
L10L
sg7
L1099L
sasVhhints
p9
(lp10
(dp11
g6
L10L
sg7
L299L
sa(dp12
g6
L10L
sg7
L304L
sa(dp13
g6
L10L
sg7
L309L
sa(dp14
g6
L10L
sg7
L361L
sa(dp15
g6
L10L
sg7
L366L
sa(dp16
g6
L10L
sg7
L371L
sass."
EndChar

StartChar: bullet
Encoding: 718 8226 121
GlifName: bullet
Width: 660
VWidth: 0
Flags: HMW
LayerCount: 2
Fore
SplineSet
194 360 m 0
 194 438 253 486 330 486 c 0
 407 486 466 438 466 360 c 0
 466 282 407 234 330 234 c 0
 253 234 194 282 194 360 c 0
EndSplineSet
PickledDataWithLists: "(dp0
Vcom.fontlab.hintData
p1
(dp2
Vvhints
p3
(lp4
(dp5
Vwidth
p6
L10L
sVposition
p7
L231L
sa(dp8
g6
L10L
sg7
L479L
sasVhhints
p9
(lp10
(dp11
g6
L10L
sg7
L234L
sa(dp12
g6
L10L
sg7
L456L
sass."
EndChar

StartChar: Euro
Encoding: 756 8364 124
GlifName: E_uro
Width: 660
VWidth: 0
Flags: HMW
LayerCount: 2
Fore
SplineSet
7 426 m 1
 7 504 l 1
 89 504 l 1
 108 652 179 800 374 800 c 0
 553 800 617 659 628 586 c 1
 492 574 l 1
 483 636 438 696 374 696 c 0
 301 696 246 629 227 504 c 1
 477 504 l 1
 477 426 l 1
 220 426 l 1
 220 419 220 413 220 406 c 2
 220 374 l 2
 220 367 220 361 220 354 c 1
 477 354 l 1
 477 276 l 1
 227 276 l 1
 246 151 301 84 374 84 c 0
 438 84 483 144 492 206 c 1
 628 194 l 1
 617 121 553 -20 374 -20 c 0
 179 -20 108 128 89 276 c 1
 7 276 l 1
 7 354 l 1
 83 354 l 1
 83 361 83 367 83 374 c 2
 83 406 l 2
 83 413 83 419 83 426 c 1
 7 426 l 1
EndSplineSet
PickledDataWithLists: "(dp0
Vcom.fontlab.hintData
p1
(dp2
Vvhints
p3
(lp4
(dp5
Vwidth
p6
L10L
sVposition
p7
L21L
sa(dp8
g6
L10L
sg7
L115L
sa(dp9
g6
L10L
sg7
L203L
sa(dp10
g6
L10L
sg7
L484L
sa(dp11
g6
L10L
sg7
L659L
sasVhhints
p12
(lp13
(dp14
g6
L10L
sg7
L-15L
sa(dp15
g6
L9L
sg7
L48L
sa(dp16
g6
L10L
sg7
L165L
sa(dp17
g6
L10L
sg7
L268L
sa(dp18
g6
L10L
sg7
L323L
sa(dp19
g6
L10L
sg7
L448L
sa(dp20
g6
L10L
sg7
L453L
sa(dp21
g6
L10L
sg7
L503L
sa(dp22
g6
L10L
sg7
L590L
sa(dp23
g6
L10L
sg7
L745L
sa(dp24
g6
L10L
sg7
L806L
sass."
EndChar

StartChar: trademark
Encoding: 767 8482 125
GlifName: trademark
Width: 765
VWidth: 0
Flags: HMW
LayerCount: 2
Fore
SplineSet
10 838 m 1
 10 900 l 1
 305 900 l 1
 305 838 l 1
 200 838 l 1
 200 510 l 1
 115 510 l 1
 115 838 l 1
 10 838 l 1
722 510 m 1
 638 510 l 1
 638 743 l 1
 560 608 l 1
 520 608 l 1
 442 743 l 1
 442 510 l 1
 358 510 l 1
 358 892 l 1
 428 900 l 1
 540 694 l 1
 652 900 l 1
 722 892 l 1
 722 510 l 1
EndSplineSet
PickledDataWithLists: "(dp0
Vcom.fontlab.hintData
p1
(dp2
Vvhints
p3
(lp4
(dp5
Vwidth
p6
L10L
sVposition
p7
L39L
sa(dp8
g6
L10L
sg7
L180L
sa(dp9
g6
L10L
sg7
L251L
sa(dp10
g6
L10L
sg7
L383L
sa(dp11
g6
L10L
sg7
L421L
sa(dp12
g6
L10L
sg7
L440L
sa(dp13
g6
L10L
sg7
L504L
sa(dp14
g6
L10L
sg7
L735L
sa(dp15
g6
L10L
sg7
L800L
sa(dp16
g6
L10L
sg7
L819L
sasVhhints
p17
(lp18
(dp19
g6
L10L
sg7
L381L
sa(dp20
g6
L10L
sg7
L390L
sa(dp21
g6
L10L
sg7
L395L
sa(dp22
g6
L10L
sg7
L473L
sa(dp23
g6
L10L
sg7
L745L
sa(dp24
g6
L10L
sg7
L751L
sa(dp25
g6
L10L
sg7
L803L
sass."
EndChar

StartChar: uni25CC
Encoding: 806 9676 126
GlifName: uni25C_C_
Width: 720
VWidth: 0
GlyphClass: 2
Flags: HMW
AnchorPoint: "LatinCedilla.mark" 380 0 basechar 0
AnchorPoint: "LatinBelow.mark" 360 0 basechar 0
AnchorPoint: "LatinAbove.mark" 360 0 basechar 0
LayerCount: 2
Fore
SplineSet
390 15 m 0
 390 -2 377 -15 360 -15 c 0
 343 -15 330 -2 330 15 c 0
 330 32 343 45 360 45 c 0
 377 45 390 32 390 15 c 0
390 585 m 0
 390 568 377 555 360 555 c 0
 343 555 330 568 330 585 c 0
 330 602 343 615 360 615 c 0
 377 615 390 602 390 585 c 0
645 330 m 0
 662 330 675 317 675 300 c 0
 675 283 662 270 645 270 c 0
 628 270 615 283 615 300 c 0
 615 317 628 330 645 330 c 0
75 330 m 0
 92 330 105 317 105 300 c 0
 105 283 92 270 75 270 c 0
 58 270 45 283 45 300 c 0
 45 317 58 330 75 330 c 0
97 439 m 0
 114 439 127 426 127 409 c 0
 127 392 114 379 97 379 c 0
 80 379 67 392 67 409 c 0
 67 426 80 439 97 439 c 0
97 221 m 0
 114 221 127 208 127 191 c 0
 127 174 114 161 97 161 c 0
 80 161 67 174 67 191 c 0
 67 208 80 221 97 221 c 0
623 439 m 0
 640 439 653 426 653 409 c 0
 653 392 640 379 623 379 c 0
 606 379 593 392 593 409 c 0
 593 426 606 439 623 439 c 0
623 221 m 0
 640 221 653 208 653 191 c 0
 653 174 640 161 623 161 c 0
 606 161 593 174 593 191 c 0
 593 208 606 221 623 221 c 0
158 531 m 0
 175 531 188 518 188 501 c 0
 188 484 175 471 158 471 c 0
 141 471 128 484 128 501 c 0
 128 518 141 531 158 531 c 0
561 531 m 0
 578 531 591 518 591 501 c 0
 591 484 578 471 561 471 c 0
 544 471 531 484 531 501 c 0
 531 518 544 531 561 531 c 0
158 128 m 0
 175 128 188 115 188 98 c 0
 188 81 175 68 158 68 c 0
 141 68 128 81 128 98 c 0
 128 115 141 128 158 128 c 0
561 128 m 0
 578 128 591 115 591 98 c 0
 591 81 578 68 561 68 c 0
 544 68 531 81 531 98 c 0
 531 115 544 128 561 128 c 0
469 67 m 0
 486 67 499 54 499 37 c 0
 499 20 486 7 469 7 c 0
 452 7 439 20 439 37 c 0
 439 54 452 67 469 67 c 0
251 67 m 0
 268 67 281 54 281 37 c 0
 281 20 268 7 251 7 c 0
 234 7 221 20 221 37 c 0
 221 54 234 67 251 67 c 0
469 593 m 0
 486 593 499 580 499 563 c 0
 499 546 486 533 469 533 c 0
 452 533 439 546 439 563 c 0
 439 580 452 593 469 593 c 0
251 593 m 0
 268 593 281 580 281 563 c 0
 281 546 268 533 251 533 c 0
 234 533 221 546 221 563 c 0
 221 580 234 593 251 593 c 0
EndSplineSet
PickledDataWithLists: "(dp0
Vcom.fontlab.hintData
p1
(dp2
Vvhints
p3
(lp4
(dp5
Vwidth
p6
L10L
sVposition
p7
L40L
sa(dp8
g6
L10L
sg7
L76L
sa(dp9
g6
L10L
sg7
L90L
sa(dp10
g6
L10L
sg7
L132L
sa(dp11
g6
L10L
sg7
L180L
sa(dp12
g6
L10L
sg7
L238L
sa(dp13
g6
L10L
sg7
L325L
sa(dp14
g6
L10L
sg7
L385L
sa(dp15
g6
L10L
sg7
L472L
sa(dp16
g6
L10L
sg7
L528L
sa(dp17
g6
L10L
sg7
L581L
sa(dp18
g6
L10L
sg7
L620L
sa(dp19
g6
L10L
sg7
L631L
sa(dp20
g6
L10L
sg7
L670L
sasVhhints
p21
(lp22
(dp23
g6
L10L
sg7
L-20L
sa(dp24
g6
L10L
sg7
L16L
sa(dp25
g6
L10L
sg7
L30L
sa(dp26
g6
L10L
sg7
L69L
sa(dp27
g6
L10L
sg7
L122L
sa(dp28
g6
L10L
sg7
L178L
sa(dp29
g6
L10L
sg7
L265L
sa(dp30
g6
L10L
sg7
L325L
sa(dp31
g6
L10L
sg7
L410L
sa(dp32
g6
L10L
sg7
L468L
sa(dp33
g6
L10L
sg7
L518L
sa(dp34
g6
L10L
sg7
L560L
sa(dp35
g6
L10L
sg7
L574L
sa(dp36
g6
L10L
sg7
L610L
sass."
Colour: ff00
EndChar

StartChar: uni0E01
Encoding: 401 3585 127
GlifName: uni0E_01
Width: 655
VWidth: 0
GlyphClass: 2
Flags: HMW
LayerCount: 2
Fore
SplineSet
93 0 m 1
 93 292 l 2
 93 340 117 374 160 389 c 1
 43 412 l 1
 58 516 147 620 315 620 c 0
 480 620 588 524 588 395 c 2
 588 0 l 1
 460 0 l 1
 460 395 l 2
 460 486 400 525 315 525 c 0
 247 525 202 494 181 440 c 1
 317 411 l 1
 303 358 l 2
 302 358 284 362 270 362 c 0
 232 362 221 337 221 305 c 2
 221 0 l 1
 93 0 l 1
EndSplineSet
PickledDataWithLists: "(dp0
Vcom.fontlab.hintData
p1
(dp2
Vvhints
p3
(lp4
(dp5
Vwidth
p6
L10L
sVposition
p7
L91L
sa(dp8
g6
L10L
sg7
L105L
sa(dp9
g6
L10L
sg7
L179L
sa(dp10
g6
L10L
sg7
L193L
sa(dp11
g6
L10L
sg7
L467L
sa(dp12
g6
L10L
sg7
L476L
sa(dp13
g6
L10L
sg7
L559L
sa(dp14
g6
L10L
sg7
L564L
sasVhhints
p15
(lp16
(dp17
g6
L10L
sg7
L-16L
sa(dp18
g6
L10L
sg7
L4L
sa(dp19
g6
L10L
sg7
L544L
sa(dp20
g6
L10L
sg7
L606L
sass."
EndChar

StartChar: uni0E02
Encoding: 402 3586 128
GlifName: uni0E_02
Width: 635
VWidth: 0
GlyphClass: 2
Flags: HMW
LayerCount: 2
Fore
SplineSet
119 512 m 0
 95 512 81 495 81 472 c 0
 81 449 95 432 119 432 c 0
 143 432 157 449 157 472 c 0
 157 495 143 512 119 512 c 0
8 472 m 0
 8 547 73 614 194 614 c 0
 314 614 383 550 383 460 c 0
 383 321 236 279 236 163 c 0
 236 104 281 75 335 75 c 0
 388 75 434 102 434 180 c 2
 434 600 l 1
 563 600 l 1
 563 180 l 2
 563 70 478 -20 335 -20 c 0
 193 -20 108 56 108 153 c 0
 108 321 288 349 288 468 c 0
 288 517 255 545 195 549 c 1
 217 531 230 504 230 472 c 0
 230 410 182 370 119 370 c 0
 56 370 8 410 8 472 c 0
EndSplineSet
PickledDataWithLists: "(dp0
Vcom.fontlab.hintData
p1
(dp2
Vvhints
p3
(lp4
(dp5
Vwidth
p6
L10L
sVposition
p7
L14L
sa(dp8
g6
L10L
sg7
L547L
sasVhhints
p9
(lp10
(dp11
g6
L10L
sg7
L-19L
sa(dp12
g6
L10L
sg7
L432L
sa(dp13
g6
L10L
sg7
L584L
sa(dp14
g6
L10L
sg7
L594L
sass."
EndChar

StartChar: uni0E03
Encoding: 403 3587 129
GlifName: uni0E_03
Width: 635
VWidth: 0
GlyphClass: 2
Flags: HMW
LayerCount: 2
Fore
SplineSet
119 548 m 0
 95 548 81 531 81 508 c 0
 81 485 95 468 119 468 c 0
 143 468 157 485 157 508 c 0
 157 531 143 548 119 548 c 0
119 610 m 0
 182 610 230 570 230 508 c 0
 230 500 230 491 228 484 c 1
 257 514 278 557 290 599 c 1
 334 605 l 1
 356 584 383 538 383 473 c 0
 383 334 236 279 236 163 c 0
 236 104 281 75 335 75 c 0
 388 75 435 103 435 181 c 2
 435 600 l 1
 563 600 l 1
 563 181 l 2
 563 71 478 -20 335 -20 c 0
 193 -20 108 56 108 153 c 0
 108 315 279 350 292 475 c 1
 261 429 215 395 136 395 c 0
 56 395 8 441 8 508 c 0
 8 570 56 610 119 610 c 0
EndSplineSet
PickledDataWithLists: "(dp0
Vcom.fontlab.hintData
p1
(dp2
Vvhints
p3
(lp4
(dp5
Vwidth
p6
L10L
sVposition
p7
L11L
sa(dp8
g6
L10L
sg7
L224L
sa(dp9
g6
L10L
sg7
L230L
sa(dp10
g6
L10L
sg7
L297L
sasVhhints
p11
(lp12
(dp13
g6
L10L
sg7
L-24L
sa(dp14
g6
L10L
sg7
L400L
sa(dp15
g6
L10L
sg7
L584L
sa(dp16
g6
L10L
sg7
L603L
sass."
EndChar

StartChar: uni0E04
Encoding: 404 3588 130
GlifName: uni0E_04
Width: 665
VWidth: 0
GlyphClass: 2
Flags: HMW
LayerCount: 2
Fore
SplineSet
330 357 m 0
 306 357 292 340 292 317 c 0
 292 294 306 277 330 277 c 0
 354 277 368 294 368 317 c 0
 368 340 354 357 330 357 c 0
330 419 m 0
 393 419 440 379 440 317 c 0
 440 255 393 215 330 215 c 0
 295 215 265 227 245 248 c 1
 229 214 219 167 216 95 c 2
 214 0 l 1
 76 0 l 1
 76 0 86 71 86 117 c 0
 86 215 62 243 62 395 c 0
 62 523 167 620 330 620 c 0
 493 620 597 523 597 395 c 2
 597 0 l 1
 469 0 l 1
 469 95 l 2
 469 162 474 235 474 395 c 0
 474 487 415 525 330 525 c 0
 245 525 185 487 185 395 c 0
 185 343 186 304 187 272 c 1
 199 319 219 361 252 390 c 0
 272 408 299 419 330 419 c 0
EndSplineSet
PickledDataWithLists: "(dp0
Vcom.fontlab.hintData
p1
(dp2
Vvhints
p3
(lp4
(dp5
Vwidth
p6
L10L
sVposition
p7
L59L
sa(dp8
g6
L10L
sg7
L142L
sa(dp9
g6
L10L
sg7
L381L
sa(dp10
g6
L10L
sg7
L439L
sa(dp11
g6
L10L
sg7
L508L
sa(dp12
g6
L10L
sg7
L590L
sasVhhints
p13
(lp14
(dp15
g6
L10L
sg7
L-19L
sa(dp16
g6
L10L
sg7
L-4L
sa(dp17
g6
L10L
sg7
L363L
sa(dp18
g6
L10L
sg7
L551L
sa(dp19
g6
L10L
sg7
L608L
sass."
EndChar

StartChar: uni0E05
Encoding: 405 3589 131
GlifName: uni0E_05
Width: 665
VWidth: 0
GlyphClass: 2
Flags: HMW
LayerCount: 2
Fore
SplineSet
330 357 m 0
 306 357 292 340 292 317 c 0
 292 294 306 277 330 277 c 0
 354 277 368 294 368 317 c 0
 368 340 354 357 330 357 c 0
330 419 m 0
 393 419 440 379 440 317 c 0
 440 255 393 215 330 215 c 0
 295 215 265 227 245 248 c 1
 229 214 219 167 216 95 c 2
 214 0 l 1
 76 0 l 1
 76 0 86 71 86 117 c 0
 86 215 62 243 62 395 c 0
 62 473 86 614 240 614 c 1
 330 537 l 1
 420 614 l 1
 574 614 597 473 597 395 c 2
 597 0 l 1
 469 0 l 1
 469 95 l 2
 469 162 474 235 474 395 c 0
 474 481 456 518 426 524 c 1
 344 459 l 1
 330 459 l 1
 316 459 l 1
 233 524 l 1
 202 518 180 481 180 395 c 0
 180 338 182 295 185 262 c 1
 197 313 217 359 252 390 c 0
 272 408 299 419 330 419 c 0
EndSplineSet
PickledDataWithLists: "(dp0
Vcom.fontlab.hintData
p1
(dp2
Vvhints
p3
(lp4
(dp5
Vwidth
p6
L10L
sVposition
p7
L60L
sa(dp8
g6
L10L
sg7
L142L
sa(dp9
g6
L10L
sg7
L444L
sa(dp10
g6
L10L
sg7
L508L
sa(dp11
g6
L10L
sg7
L590L
sasVhhints
p12
(lp13
(dp14
g6
L10L
sg7
L-18L
sa(dp15
g6
L10L
sg7
L-4L
sa(dp16
g6
L10L
sg7
L363L
sa(dp17
g6
L10L
sg7
L469L
sa(dp18
g6
L10L
sg7
L549L
sa(dp19
g6
L10L
sg7
L606L
sass."
EndChar

StartChar: uni0E06
Encoding: 406 3590 132
GlifName: uni0E_06
Width: 650
VWidth: 0
GlyphClass: 2
Flags: HMW
LayerCount: 2
Fore
SplineSet
164 132 m 0
 140 132 126 115 126 92 c 0
 126 69 140 52 164 52 c 0
 188 52 202 69 202 92 c 0
 202 115 188 132 164 132 c 0
129 548 m 0
 105 548 91 531 91 508 c 0
 91 485 105 468 129 468 c 0
 153 468 167 485 167 508 c 0
 167 531 153 548 129 548 c 0
129 610 m 0
 192 610 240 570 240 508 c 0
 240 500 240 491 238 484 c 1
 267 514 288 557 300 599 c 1
 344 605 l 1
 366 584 393 538 393 473 c 0
 393 347 274 290 251 195 c 1
 340 184 402 148 448 110 c 1
 446 143 445 178 445 210 c 2
 445 600 l 1
 573 600 l 1
 573 0 l 1
 455 0 l 1
 416 52 358 101 272 118 c 1
 274 110 275 101 275 92 c 0
 275 30 227 -10 164 -10 c 0
 101 -10 53 30 53 92 c 0
 53 139 81 173 121 187 c 1
 143 321 290 360 302 475 c 1
 271 429 225 395 146 395 c 0
 66 395 18 441 18 508 c 0
 18 570 66 610 129 610 c 0
EndSplineSet
PickledDataWithLists: "(dp0
Vcom.fontlab.hintData
p1
(dp2
Vvhints
p3
(lp4
(dp5
Vwidth
p6
L10L
sVposition
p7
L11L
sa(dp8
g6
L10L
sg7
L35L
sa(dp9
g6
L10L
sg7
L110L
sa(dp10
g6
L10L
sg7
L239L
sa(dp11
g6
L10L
sg7
L251L
sa(dp12
g6
L10L
sg7
L317L
sa(dp13
g6
L10L
sg7
L325L
sa(dp14
g6
L10L
sg7
L486L
sa(dp15
g6
L10L
sg7
L494L
sa(dp16
g6
L10L
sg7
L566L
sa(dp17
g6
L10L
sg7
L576L
sasVhhints
p18
(lp19
(dp20
g6
L10L
sg7
L-27L
sa(dp21
g6
L10L
sg7
L223L
sa(dp22
g6
L10L
sg7
L277L
sa(dp23
g6
L10L
sg7
L403L
sa(dp24
g6
L10L
sg7
L598L
sa(dp25
g6
L10L
sg7
L608L
sass."
EndChar

StartChar: uni0E07
Encoding: 407 3591 133
GlifName: uni0E_07
Width: 525
VWidth: 0
GlyphClass: 2
Flags: HMW
AnchorPoint: "ThaiAbove.mark" 545 0 basechar 0
LayerCount: 2
Fore
SplineSet
305 548 m 0
 281 548 267 531 267 508 c 0
 267 485 281 468 305 468 c 0
 329 468 343 485 343 508 c 0
 343 531 329 548 305 548 c 0
2 323 m 1
 80 395 l 1
 339 107 l 1
 331 127 324 157 324 190 c 2
 324 292 l 2
 324 351 337 374 345 412 c 1
 333 408 319 406 305 406 c 0
 242 406 194 446 194 508 c 0
 194 570 242 610 305 610 c 0
 406 610 457 551 457 463 c 0
 457 408 448 353 448 280 c 2
 448 0 l 1
 311 0 l 1
 2 323 l 1
EndSplineSet
PickledDataWithLists: "(dp0
Vcom.fontlab.hintData
p1
(dp2
Vvhints
p3
(lp4
(dp5
Vwidth
p6
L10L
sVposition
p7
L41L
sa(dp8
g6
L10L
sg7
L151L
sa(dp9
g6
L10L
sg7
L381L
sa(dp10
g6
L10L
sg7
L469L
sasVhhints
p11
(lp12
(dp13
g6
L10L
sg7
L-26L
sa(dp14
g6
L10L
sg7
L355L
sa(dp15
g6
L10L
sg7
L504L
sa(dp16
g6
L10L
sg7
L549L
sa(dp17
g6
L10L
sg7
L611L
sass."
EndChar

StartChar: uni0E08
Encoding: 408 3592 134
GlifName: uni0E_08
Width: 590
VWidth: 0
GlyphClass: 2
Flags: HMW
AnchorPoint: "ThaiBelow.mark" 560 0 basechar 0
LayerCount: 2
Fore
SplineSet
22 427 m 1
 35 523 119 620 275 620 c 0
 427 620 527 532 527 413 c 0
 527 266 467 195 467 90 c 2
 467 0 l 1
 330 0 l 1
 328 71 309 146 282 194 c 1
 262 170 230 156 193 156 c 0
 130 156 82 196 82 258 c 0
 82 320 130 360 193 360 c 0
 294 360 345 264 369 169 c 1
 374 257 399 301 399 413 c 0
 399 494 349 525 275 525 c 0
 205 525 160 488 150 418 c 1
 22 427 l 1
193 218 m 0
 217 218 231 235 231 258 c 0
 231 281 217 298 193 298 c 0
 169 298 155 281 155 258 c 0
 155 235 169 218 193 218 c 0
EndSplineSet
PickledDataWithLists: "(dp0
Vcom.fontlab.hintData
p1
(dp2
Vvhints
p3
(lp4
(dp5
Vwidth
p6
L10L
sVposition
p7
L31L
sa(dp8
g6
L10L
sg7
L101L
sa(dp9
g6
L10L
sg7
L444L
sa(dp10
g6
L10L
sg7
L529L
sasVhhints
p11
(lp12
(dp13
g6
L10L
sg7
L-11L
sa(dp14
g6
L10L
sg7
L229L
sa(dp15
g6
L10L
sg7
L307L
sa(dp16
g6
L10L
sg7
L429L
sa(dp17
g6
L9L
sg7
L552L
sa(dp18
g6
L10L
sg7
L614L
sass."
EndChar

StartChar: uni0E09
Encoding: 409 3593 135
GlifName: uni0E_09
Width: 645
VWidth: 0
GlyphClass: 2
Flags: HMW
LayerCount: 2
Fore
SplineSet
127 0 m 1
 127 111 l 2
 127 130 133 145 141 157 c 1
 87 164 48 202 48 258 c 0
 48 320 96 360 159 360 c 0
 222 360 270 320 270 258 c 0
 270 208 250 187 250 138 c 2
 250 106 l 1
 292 148 350 188 438 197 c 1
 439 202 440 207 440 212 c 2
 440 405 l 2
 440 491 385 525 305 525 c 0
 229 525 181 484 171 410 c 1
 43 420 l 1
 57 520 143 620 305 620 c 0
 463 620 568 529 568 405 c 2
 568 238 l 2
 568 216 557 200 543 187 c 1
 583 173 610 139 610 92 c 0
 610 30 562 -10 499 -10 c 0
 436 -10 388 30 388 92 c 0
 388 100 389 107 390 114 c 1
 325 93 281 47 245 0 c 1
 127 0 l 1
499 132 m 0
 475 132 461 115 461 92 c 0
 461 69 475 52 499 52 c 0
 523 52 537 69 537 92 c 0
 537 115 523 132 499 132 c 0
159 298 m 0
 135 298 121 281 121 258 c 0
 121 235 135 218 159 218 c 0
 183 218 197 235 197 258 c 0
 197 281 183 298 159 298 c 0
EndSplineSet
PickledDataWithLists: "(dp0
Vcom.fontlab.hintData
p1
(dp2
Vvhints
p3
(lp4
(dp5
Vwidth
p6
L10L
sVposition
p7
L33L
sa(dp8
g6
L10L
sg7
L87L
sa(dp9
g6
L10L
sg7
L156L
sa(dp10
g6
L10L
sg7
L410L
sa(dp11
g6
L10L
sg7
L426L
sa(dp12
g6
L10L
sg7
L480L
sa(dp13
g6
L10L
sg7
L498L
sa(dp14
g6
L10L
sg7
L570L
sa(dp15
g6
L10L
sg7
L640L
sasVhhints
p16
(lp17
(dp18
g6
L10L
sg7
L-19L
sa(dp19
g6
L10L
sg7
L29L
sa(dp20
g6
L10L
sg7
L231L
sa(dp21
g6
L10L
sg7
L279L
sa(dp22
g6
L10L
sg7
L318L
sa(dp23
g6
L10L
sg7
L431L
sa(dp24
g6
L10L
sg7
L557L
sa(dp25
g6
L10L
sg7
L616L
sass."
EndChar

StartChar: uni0E0A
Encoding: 410 3594 136
GlifName: uni0E_0A_
Width: 640
VWidth: 0
GlyphClass: 2
Flags: HMW
LayerCount: 2
Fore
SplineSet
119 512 m 0
 95 512 81 495 81 472 c 0
 81 449 95 432 119 432 c 0
 143 432 157 449 157 472 c 0
 157 495 143 512 119 512 c 0
380 489 m 1
 453 502 482 549 484 626 c 1
 613 616 l 1
 612 541 560 481 479 455 c 1
 530 438 563 407 563 360 c 2
 563 180 l 2
 563 70 478 -20 335 -20 c 0
 193 -20 108 56 108 153 c 0
 108 321 288 349 288 468 c 0
 288 517 255 545 195 549 c 1
 217 531 230 504 230 472 c 0
 230 410 182 370 119 370 c 0
 56 370 8 410 8 472 c 0
 8 547 73 614 194 614 c 0
 300 614 366 563 380 489 c 1
379 421 m 1
 355 312 236 267 236 163 c 0
 236 104 281 75 335 75 c 0
 388 75 435 102 435 180 c 2
 435 360 l 2
 435 395 421 414 379 421 c 1
EndSplineSet
PickledDataWithLists: "(dp0
Vcom.fontlab.hintData
p1
(dp2
Vvhints
p3
(lp4
(dp5
Vwidth
p6
L10L
sVposition
p7
L44L
sa(dp8
g6
L10L
sg7
L186L
sa(dp9
g6
L10L
sg7
L197L
sa(dp10
g6
L10L
sg7
L268L
sa(dp11
g6
L10L
sg7
L279L
sa(dp12
g6
L10L
sg7
L473L
sa(dp13
g6
L10L
sg7
L555L
sa(dp14
g6
L10L
sg7
L586L
sasVhhints
p15
(lp16
(dp17
g6
L10L
sg7
L-29L
sa(dp18
g6
L10L
sg7
L29L
sa(dp19
g6
L10L
sg7
L437L
sa(dp20
g6
L10L
sg7
L599L
sa(dp21
g6
L10L
sg7
L644L
sass."
EndChar

StartChar: uni0E0B
Encoding: 411 3595 137
GlifName: uni0E_0B_
Width: 640
VWidth: 0
GlyphClass: 2
Flags: HMW
LayerCount: 2
Fore
SplineSet
119 548 m 0
 95 548 81 531 81 508 c 0
 81 485 95 468 119 468 c 0
 143 468 157 485 157 508 c 0
 157 531 143 548 119 548 c 0
119 610 m 0
 182 610 230 570 230 508 c 0
 230 500 230 491 228 484 c 1
 257 514 278 557 290 599 c 1
 334 605 l 1
 354 586 378 546 382 490 c 1
 454 503 482 550 484 626 c 1
 613 616 l 1
 612 541 560 481 479 455 c 1
 530 438 563 407 563 360 c 2
 563 181 l 2
 563 71 478 -20 335 -20 c 0
 193 -20 108 56 108 153 c 0
 108 315 279 350 292 475 c 1
 261 429 215 395 136 395 c 0
 56 395 8 441 8 508 c 0
 8 570 56 610 119 610 c 0
435 360 m 2
 435 396 420 416 376 422 c 1
 347 319 236 264 236 163 c 0
 236 104 281 75 335 75 c 0
 388 75 435 103 435 181 c 2
 435 360 l 2
EndSplineSet
PickledDataWithLists: "(dp0
Vcom.fontlab.hintData
p1
(dp2
Vvhints
p3
(lp4
(dp5
Vwidth
p6
L10L
sVposition
p7
L11L
sa(dp8
g6
L10L
sg7
L199L
sa(dp9
g6
L10L
sg7
L226L
sa(dp10
g6
L10L
sg7
L278L
sa(dp11
g6
L10L
sg7
L296L
sa(dp12
g6
L10L
sg7
L474L
sa(dp13
g6
L10L
sg7
L556L
sa(dp14
g6
L10L
sg7
L586L
sasVhhints
p15
(lp16
(dp17
g6
L10L
sg7
L-24L
sa(dp18
g6
L10L
sg7
L34L
sa(dp19
g6
L10L
sg7
L398L
sa(dp20
g6
L10L
sg7
L603L
sa(dp21
g6
L10L
sg7
L608L
sa(dp22
g6
L10L
sg7
L644L
sass."
EndChar

StartChar: uni0E0C
Encoding: 412 3596 138
GlifName: uni0E_0C_
Width: 950
VWidth: 0
GlyphClass: 2
Flags: HMW
LayerCount: 2
Fore
SplineSet
491 132 m 0
 467 132 453 115 453 92 c 0
 453 69 467 52 491 52 c 0
 515 52 529 69 529 92 c 0
 529 115 515 132 491 132 c 0
193 132 m 0
 169 132 155 115 155 92 c 0
 155 69 169 52 193 52 c 0
 217 52 231 69 231 92 c 0
 231 115 217 132 193 132 c 0
474 193 m 1
 466 205 460 221 460 240 c 2
 460 395 l 2
 460 486 400 525 315 525 c 0
 247 525 202 495 181 440 c 1
 317 411 l 1
 303 358 l 2
 302 358 284 362 270 362 c 0
 232 362 221 337 221 305 c 2
 221 240 l 2
 221 221 216 206 209 193 c 1
 264 187 304 149 304 92 c 0
 304 30 256 -10 193 -10 c 0
 130 -10 82 30 82 92 c 0
 82 139 93 164 93 210 c 2
 93 292 l 2
 93 340 117 374 160 389 c 1
 43 412 l 1
 58 516 147 620 315 620 c 0
 480 620 588 524 588 395 c 2
 588 212 l 2
 588 205 588 198 589 192 c 1
 662 180 712 147 749 110 c 1
 747 143 746 178 746 210 c 2
 746 600 l 1
 874 600 l 1
 874 0 l 1
 756 0 l 1
 719 51 676 99 601 116 c 1
 602 109 602 101 602 92 c 0
 602 30 554 -10 491 -10 c 0
 428 -10 380 30 380 92 c 0
 380 148 420 186 474 193 c 1
EndSplineSet
PickledDataWithLists: "(dp0
Vcom.fontlab.hintData
p1
(dp2
Vvhints
p3
(lp4
(dp5
Vwidth
p6
L10L
sVposition
p7
L84L
sa(dp8
g6
L10L
sg7
L93L
sa(dp9
g6
L10L
sg7
L114L
sa(dp10
g6
L10L
sg7
L166L
sa(dp11
g6
L10L
sg7
L196L
sa(dp12
g6
L10L
sg7
L343L
sa(dp13
g6
L10L
sg7
L414L
sa(dp14
g6
L10L
sg7
L502L
sa(dp15
g6
L10L
sg7
L507L
sa(dp16
g6
L10L
sg7
L576L
sa(dp17
g6
L10L
sg7
L780L
sa(dp18
g6
L10L
sg7
L789L
sa(dp19
g6
L10L
sg7
L861L
sa(dp20
g6
L10L
sg7
L871L
sasVhhints
p21
(lp22
(dp23
g6
L10L
sg7
L-26L
sa(dp24
g6
L10L
sg7
L-17L
sa(dp25
g6
L10L
sg7
L41L
sa(dp26
g6
L10L
sg7
L234L
sa(dp27
g6
L10L
sg7
L286L
sa(dp28
g6
L10L
sg7
L546L
sa(dp29
g6
L10L
sg7
L593L
sa(dp30
g6
L10L
sg7
L604L
sass."
EndChar

StartChar: uni0E0D
Encoding: 413 3597 139
GlifName: uni0E_0D_
Width: 950
VWidth: 0
GlyphClass: 2
Flags: HMW
LayerCount: 2
Fore
SplineSet
568 -117 m 0
 548 -117 535 -131 535 -150 c 0
 535 -169 548 -183 568 -183 c 0
 588 -183 601 -169 601 -150 c 0
 601 -131 588 -117 568 -117 c 0
568 -62 m 0
 622 -62 663 -96 663 -150 c 0
 663 -171 657 -188 647 -202 c 1
 650 -202 653 -202 656 -202 c 2
 671 -202 l 2
 729 -202 773 -175 773 -78 c 1
 868 -88 l 1
 868 -195 794 -262 688 -262 c 2
 623 -262 l 2
 533 -262 473 -221 473 -150 c 0
 473 -96 514 -62 568 -62 c 0
EndSplineSet
Refer: 140 63642 N 1 0 0 1 0 0 2
PickledDataWithLists: "(dp0
Vcom.fontlab.hintData
p1
(dp2
Vvhints
p3
(lp4
(dp5
Vwidth
p6
L10L
sVposition
p7
L81L
sa(dp8
g6
L10L
sg7
L101L
sa(dp9
g6
L10L
sg7
L169L
sa(dp10
g6
L10L
sg7
L189L
sa(dp11
g6
L10L
sg7
L315L
sa(dp12
g6
L10L
sg7
L471L
sa(dp13
g6
L10L
sg7
L476L
sa(dp14
g6
L10L
sg7
L513L
sa(dp15
g6
L10L
sg7
L559L
sa(dp16
g6
L10L
sg7
L564L
sa(dp17
g6
L10L
sg7
L591L
sa(dp18
g6
L10L
sg7
L771L
sa(dp19
g6
L10L
sg7
L781L
sa(dp20
g6
L10L
sg7
L859L
sa(dp21
g6
L10L
sg7
L869L
sa(dp22
g6
L10L
sg7
L879L
sasVhhints
p23
(lp24
(dp25
g6
L10L
sg7
L-252L
sa(dp26
g6
L10L
sg7
L-197L
sa(dp27
g6
L10L
sg7
L-98L
sa(dp28
g6
L10L
sg7
L-19L
sa(dp29
g6
L10L
sg7
L43L
sa(dp30
g6
L10L
sg7
L56L
sa(dp31
g6
L10L
sg7
L544L
sa(dp32
g6
L10L
sg7
L595L
sa(dp33
g6
L10L
sg7
L606L
sass."
Substitution2: "ThaiRC.rd subtable" uni0E0D.rd
Colour: ff00ff
EndChar

StartChar: uni0E0D.rd
Encoding: 832 63642 140
GlifName: uni0E_0D_.rd
Width: 950
VWidth: 0
GlyphClass: 2
Flags: HMW
LayerCount: 2
Fore
SplineSet
193 132 m 0
 169 132 155 115 155 92 c 0
 155 69 169 52 193 52 c 0
 217 52 231 69 231 92 c 0
 231 115 217 132 193 132 c 0
315 620 m 0
 480 620 588 524 588 395 c 2
 588 164 l 2
 588 97 628 75 670 75 c 0
 712 75 751 97 751 164 c 2
 751 600 l 1
 879 600 l 1
 879 164 l 2
 879 65 802 -20 670 -20 c 0
 538 -20 460 65 460 164 c 2
 460 395 l 2
 460 486 400 525 315 525 c 0
 247 525 202 495 181 440 c 1
 317 411 l 1
 303 358 l 2
 302 358 284 362 270 362 c 0
 232 362 221 337 221 305 c 2
 221 240 l 2
 221 221 216 206 209 193 c 1
 264 187 304 149 304 92 c 0
 304 30 256 -10 193 -10 c 0
 130 -10 82 30 82 92 c 0
 82 139 93 164 93 210 c 2
 93 292 l 2
 93 340 117 374 160 389 c 1
 43 412 l 1
 58 516 147 620 315 620 c 0
EndSplineSet
PickledDataWithLists: "(dp0
Vcom.fontlab.hintData
p1
(dp2
Vvhints
p3
(lp4
(dp5
Vwidth
p6
L10L
sVposition
p7
L81L
sa(dp8
g6
L10L
sg7
L101L
sa(dp9
g6
L10L
sg7
L169L
sa(dp10
g6
L10L
sg7
L189L
sa(dp11
g6
L10L
sg7
L315L
sa(dp12
g6
L10L
sg7
L471L
sa(dp13
g6
L10L
sg7
L476L
sa(dp14
g6
L10L
sg7
L559L
sa(dp15
g6
L10L
sg7
L564L
sa(dp16
g6
L10L
sg7
L771L
sa(dp17
g6
L10L
sg7
L781L
sa(dp18
g6
L10L
sg7
L859L
sa(dp19
g6
L10L
sg7
L869L
sasVhhints
p20
(lp21
(dp22
g6
L10L
sg7
L-19L
sa(dp23
g6
L10L
sg7
L43L
sa(dp24
g6
L10L
sg7
L56L
sa(dp25
g6
L10L
sg7
L544L
sa(dp26
g6
L10L
sg7
L595L
sa(dp27
g6
L10L
sg7
L606L
sass."
EndChar

StartChar: uni0E0E
Encoding: 414 3598 141
GlifName: uni0E_0E_
Width: 665
VWidth: 0
GlyphClass: 2
Flags: HMW
LayerCount: 2
Fore
SplineSet
148 132 m 0
 124 132 110 115 110 92 c 0
 110 69 124 52 148 52 c 0
 172 52 186 69 186 92 c 0
 186 115 172 132 148 132 c 0
325 620 m 0
 490 620 598 524 598 395 c 2
 598 -70 l 1
 598 -235 l 1
 483 -235 l 1
 434 -200 368 -164 312 -140 c 1
 313 -144 313 -148 313 -152 c 0
 313 -192 281 -248 208 -248 c 0
 142 -248 102 -206 102 -152 c 0
 102 -95 144 -57 212 -57 c 0
 280 -57 385 -101 473 -153 c 1
 471 -130 470 -101 470 -70 c 2
 470 395 l 2
 470 486 410 525 325 525 c 0
 258 525 212 495 191 441 c 1
 342 411 l 1
 328 358 l 2
 327 358 309 362 295 362 c 0
 257 362 246 337 246 305 c 2
 246 210 l 2
 246 164 259 139 259 92 c 0
 259 30 211 -10 148 -10 c 0
 85 -10 37 30 37 92 c 0
 37 148 77 186 131 193 c 1
 123 206 118 221 118 240 c 2
 118 292 l 2
 118 340 141 373 184 388 c 1
 53 412 l 1
 68 516 157 620 325 620 c 0
243 -117 m 1
 232 -115 224 -113 216 -113 c 0
 197 -113 175 -122 175 -152 c 0
 175 -180 195 -191 212 -191 c 0
 238 -191 254 -174 254 -152 c 0
 254 -136 249 -125 243 -117 c 1
EndSplineSet
PickledDataWithLists: "(dp0
Vcom.fontlab.hintData
p1
(dp2
Vvhints
p3
(lp4
(dp5
Vwidth
p6
L10L
sVposition
p7
L26L
sa(dp8
g6
L10L
sg7
L81L
sa(dp9
g6
L10L
sg7
L126L
sa(dp10
g6
L10L
sg7
L219L
sa(dp11
g6
L10L
sg7
L470L
sa(dp12
g6
L10L
sg7
L476L
sa(dp13
g6
L10L
sg7
L556L
sa(dp14
g6
L10L
sg7
L564L
sasVhhints
p15
(lp16
(dp17
g6
L10L
sg7
L-242L
sa(dp18
g6
L10L
sg7
L-235L
sa(dp19
g6
L10L
sg7
L-137L
sa(dp20
g6
L10L
sg7
L-87L
sa(dp21
g6
L10L
sg7
L-16L
sa(dp22
g6
L10L
sg7
L66L
sa(dp23
g6
L10L
sg7
L544L
sa(dp24
g6
L10L
sg7
L606L
sass."
EndChar

StartChar: uni0E0F
Encoding: 415 3599 142
GlifName: uni0E_0F_
Width: 665
VWidth: 0
GlyphClass: 2
Flags: HMW
LayerCount: 2
Fore
SplineSet
148 132 m 0
 124 132 110 115 110 92 c 0
 110 69 124 52 148 52 c 0
 172 52 186 69 186 92 c 0
 186 115 172 132 148 132 c 0
325 620 m 0
 490 620 598 524 598 395 c 2
 598 -70 l 1
 598 -235 l 1
 483 -235 l 1
 366 -143 l 1
 356 -160 341 -179 322 -196 c 0
 291 -222 248 -248 197 -248 c 0
 129 -248 87 -209 87 -152 c 0
 87 -98 127 -56 193 -56 c 0
 258 -56 291 -101 297 -139 c 1
 320 -110 333 -75 335 -70 c 1
 374 -70 l 1
 473 -152 l 1
 471 -129 470 -101 470 -70 c 2
 470 395 l 2
 470 486 410 525 325 525 c 0
 258 525 212 495 191 441 c 1
 342 411 l 1
 328 358 l 2
 327 358 309 362 295 362 c 0
 257 362 246 337 246 305 c 2
 246 210 l 2
 246 164 259 139 259 92 c 0
 259 30 211 -10 148 -10 c 0
 85 -10 37 30 37 92 c 0
 37 148 77 186 131 193 c 1
 123 206 118 221 118 240 c 2
 118 292 l 2
 118 340 141 373 184 388 c 1
 53 412 l 1
 68 516 157 620 325 620 c 0
160 -152 m 0
 160 -182 182 -191 201 -191 c 0
 210 -191 219 -190 228 -188 c 1
 234 -179 239 -168 239 -152 c 0
 239 -130 223 -113 197 -113 c 0
 180 -113 160 -124 160 -152 c 0
EndSplineSet
PickledDataWithLists: "(dp0
Vcom.fontlab.hintData
p1
(dp2
Vvhints
p3
(lp4
(dp5
Vwidth
p6
L10L
sVposition
p7
L26L
sa(dp8
g6
L10L
sg7
L81L
sa(dp9
g6
L10L
sg7
L97L
sa(dp10
g6
L10L
sg7
L131L
sa(dp11
g6
L10L
sg7
L166L
sa(dp12
g6
L10L
sg7
L179L
sa(dp13
g6
L10L
sg7
L221L
sa(dp14
g6
L10L
sg7
L470L
sa(dp15
g6
L10L
sg7
L476L
sa(dp16
g6
L10L
sg7
L553L
sa(dp17
g6
L10L
sg7
L564L
sasVhhints
p18
(lp19
(dp20
g6
L10L
sg7
L-240L
sa(dp21
g6
L10L
sg7
L-234L
sa(dp22
g6
L10L
sg7
L-191L
sa(dp23
g6
L10L
sg7
L-88L
sa(dp24
g6
L10L
sg7
L-83L
sa(dp25
g6
L10L
sg7
L-16L
sa(dp26
g6
L10L
sg7
L66L
sa(dp27
g6
L10L
sg7
L544L
sa(dp28
g6
L10L
sg7
L606L
sass."
EndChar

StartChar: uni0E10
Encoding: 416 3600 143
GlifName: uni0E_10
Width: 555
VWidth: 0
GlyphClass: 2
Flags: HMW
AnchorPoint: "ThaiTone.mark" 535 0 basechar 0
AnchorPoint: "ThaiAbove.mark" 575 0 basechar 0
LayerCount: 2
Fore
SplineSet
277 -139 m 1
 300 -110 313 -75 315 -70 c 1
 354 -70 l 1
 422 -140 l 1
 421 -119 420 -96 420 -70 c 1
 515 -70 l 1
 515 -235 l 1
 433 -235 l 1
 344 -147 l 1
 334 -163 320 -180 302 -196 c 0
 271 -222 228 -248 177 -248 c 0
 109 -248 67 -209 67 -152 c 0
 67 -98 107 -56 173 -56 c 0
 238 -56 271 -101 277 -139 c 1
140 -152 m 0
 140 -182 162 -191 181 -191 c 0
 190 -191 199 -190 208 -188 c 1
 214 -179 219 -168 219 -152 c 0
 219 -130 203 -113 177 -113 c 0
 160 -113 140 -124 140 -152 c 0
EndSplineSet
Refer: 144 63646 N 1 0 0 1 0 0 2
PickledDataWithLists: "(dp0
Vcom.fontlab.hintData
p1
(dp2
Vvhints
p3
(lp4
(dp5
Vwidth
p6
L10L
sVposition
p7
L30L
sa(dp8
g6
L10L
sg7
L80L
sa(dp9
g6
L10L
sg7
L89L
sa(dp10
g6
L10L
sg7
L110L
sa(dp11
g6
L10L
sg7
L149L
sa(dp12
g6
L10L
sg7
L160L
sa(dp13
g6
L10L
sg7
L434L
sa(dp14
g6
L10L
sg7
L504L
sa(dp15
g6
L10L
sg7
L510L
sa(dp16
g6
L10L
sg7
L516L
sa(dp17
g6
L10L
sg7
L569L
sasVhhints
p18
(lp19
(dp20
g6
L10L
sg7
L-237L
sa(dp21
g6
L10L
sg7
L-229L
sa(dp22
g6
L10L
sg7
L-189L
sa(dp23
g6
L10L
sg7
L-92L
sa(dp24
g6
L10L
sg7
L-87L
sa(dp25
g6
L10L
sg7
L-72L
sa(dp26
g6
L10L
sg7
L-9L
sa(dp27
g6
L10L
sg7
L197L
sa(dp28
g6
L10L
sg7
L215L
sa(dp29
g6
L10L
sg7
L272L
sa(dp30
g6
L10L
sg7
L366L
sa(dp31
g6
L10L
sg7
L420L
sa(dp32
g6
L10L
sg7
L558L
sa(dp33
g6
L10L
sg7
L612L
sa(dp34
g6
L10L
sg7
L652L
sass."
Substitution2: "ThaiRC.rd subtable" uni0E10.rd
Colour: ff00ff
EndChar

StartChar: uni0E10.rd
Encoding: 836 63646 144
GlifName: uni0E_10.rd
Width: 555
VWidth: 0
GlyphClass: 2
Flags: HMW
AnchorPoint: "ThaiBelow.mark" 510 0 basechar 0
AnchorPoint: "ThaiTone.mark" 535 0 basechar 0
AnchorPoint: "ThaiAbove.mark" 575 0 basechar 0
LayerCount: 2
Fore
SplineSet
153 330 m 0
 262 330 312 227 333 132 c 1
 337 180 353 234 353 284 c 0
 353 362 257 390 42 390 c 1
 42 420 l 2
 42 538 132 620 263 620 c 0
 336 620 385 594 417 566 c 1
 419 571 421 575 423 579 c 2
 442 614 l 1
 537 596 l 1
 537 590 l 1
 447 478 l 1
 408 478 l 1
 391 500 354 534 284 534 c 0
 228 534 176 512 164 448 c 1
 355 440 477 404 477 300 c 0
 477 224 427 138 427 60 c 2
 427 0 l 1
 289 0 l 1
 287 62 272 127 248 172 c 1
 229 143 194 126 153 126 c 0
 90 126 42 166 42 228 c 0
 42 290 90 330 153 330 c 0
153 268 m 0
 129 268 115 251 115 228 c 0
 115 205 129 188 153 188 c 0
 177 188 191 205 191 228 c 0
 191 251 177 268 153 268 c 0
EndSplineSet
PickledDataWithLists: "(dp0
Vcom.fontlab.hintData
p1
(dp2
Vvhints
p3
(lp4
(dp5
Vwidth
p6
L10L
sVposition
p7
L30L
sa(dp8
g6
L10L
sg7
L89L
sa(dp9
g6
L10L
sg7
L110L
sa(dp10
g6
L10L
sg7
L430L
sa(dp11
g6
L10L
sg7
L510L
sa(dp12
g6
L10L
sg7
L569L
sasVhhints
p13
(lp14
(dp15
g6
L10L
sg7
L-9L
sa(dp16
g6
L10L
sg7
L197L
sa(dp17
g6
L10L
sg7
L215L
sa(dp18
g6
L10L
sg7
L272L
sa(dp19
g6
L10L
sg7
L366L
sa(dp20
g6
L10L
sg7
L420L
sa(dp21
g6
L10L
sg7
L558L
sa(dp22
g6
L10L
sg7
L612L
sa(dp23
g6
L10L
sg7
L652L
sass."
EndChar

StartChar: uni0E11
Encoding: 417 3601 145
GlifName: uni0E_11
Width: 665
VWidth: 0
GlyphClass: 2
Flags: HMW
LayerCount: 2
Fore
SplineSet
119 548 m 0
 95 548 81 531 81 508 c 0
 81 485 95 468 119 468 c 0
 143 468 157 485 157 508 c 0
 157 531 143 548 119 548 c 0
119 610 m 0
 182 610 230 570 230 508 c 0
 230 500 230 491 228 484 c 1
 257 514 278 557 290 599 c 1
 334 605 l 1
 349 590 368 564 378 526 c 1
 412 574 454 610 498 610 c 0
 584 610 593 529 593 483 c 2
 593 0 l 1
 464 0 l 1
 464 460 l 2
 464 480 461 499 448 502 c 1
 428 493 400 459 378 424 c 1
 353 319 252 264 252 163 c 2
 252 0 l 1
 123 0 l 1
 123 153 l 2
 123 315 280 350 292 475 c 1
 261 428 215 395 136 395 c 0
 56 395 8 441 8 508 c 0
 8 570 56 610 119 610 c 0
EndSplineSet
PickledDataWithLists: "(dp0
Vcom.fontlab.hintData
p1
(dp2
Vvhints
p3
(lp4
(dp5
Vwidth
p6
L10L
sVposition
p7
L11L
sa(dp8
g6
L10L
sg7
L161L
sa(dp9
g6
L10L
sg7
L235L
sa(dp10
g6
L10L
sg7
L283L
sa(dp11
g6
L10L
sg7
L524L
sa(dp12
g6
L10L
sg7
L529L
sa(dp13
g6
L10L
sg7
L606L
sa(dp14
g6
L10L
sg7
L608L
sasVhhints
p15
(lp16
(dp17
g6
L10L
sg7
L-15L
sa(dp18
g6
L10L
sg7
L-8L
sa(dp19
g6
L10L
sg7
L398L
sa(dp20
g6
L10L
sg7
L602L
sa(dp21
g6
L10L
sg7
L611L
sass."
EndChar

StartChar: uni0E12
Encoding: 418 3602 146
GlifName: uni0E_12
Width: 960
VWidth: 0
GlyphClass: 2
Flags: HMW
LayerCount: 2
Fore
SplineSet
330 357 m 0
 306 357 292 340 292 317 c 0
 292 294 306 277 330 277 c 0
 354 277 368 294 368 317 c 0
 368 340 354 357 330 357 c 0
500 132 m 0
 476 132 462 115 462 92 c 0
 462 69 476 52 500 52 c 0
 524 52 538 69 538 92 c 0
 538 115 524 132 500 132 c 0
240 614 m 1
 330 537 l 1
 420 614 l 1
 574 614 597 473 597 395 c 2
 597 212 l 2
 597 205 597 198 598 192 c 1
 671 180 721 146 757 110 c 1
 755 143 754 178 754 210 c 2
 754 600 l 1
 882 600 l 1
 882 0 l 1
 764 0 l 1
 727 51 684 99 610 116 c 1
 611 109 611 101 611 92 c 0
 611 30 563 -10 500 -10 c 0
 437 -10 389 30 389 92 c 0
 389 149 430 188 486 193 c 1
 479 205 474 221 474 240 c 2
 474 395 l 2
 474 481 456 518 426 524 c 1
 344 459 l 1
 330 459 l 1
 316 459 l 1
 233 524 l 1
 202 518 180 481 180 395 c 0
 180 255 199 222 199 158 c 0
 199 139 198 120 196 104 c 1
 237 151 291 180 330 215 c 1
 267 215 219 255 219 317 c 0
 219 379 267 419 330 419 c 0
 393 419 441 379 441 317 c 0
 441 161 254 119 222 0 c 1
 76 0 l 1
 76 0 86 71 86 117 c 0
 86 215 62 243 62 395 c 0
 62 473 86 614 240 614 c 1
EndSplineSet
PickledDataWithLists: "(dp0
Vcom.fontlab.hintData
p1
(dp2
Vvhints
p3
(lp4
(dp5
Vwidth
p6
L10L
sVposition
p7
L64L
sa(dp8
g6
L10L
sg7
L146L
sa(dp9
g6
L10L
sg7
L322L
sa(dp10
g6
L10L
sg7
L328L
sa(dp11
g6
L10L
sg7
L375L
sa(dp12
g6
L10L
sg7
L445L
sa(dp13
g6
L10L
sg7
L535L
sa(dp14
g6
L10L
sg7
L605L
sa(dp15
g6
L10L
sg7
L781L
sa(dp16
g6
L10L
sg7
L789L
sa(dp17
g6
L10L
sg7
L861L
sa(dp18
g6
L10L
sg7
L871L
sasVhhints
p19
(lp20
(dp21
g6
L10L
sg7
L-19L
sa(dp22
g6
L10L
sg7
L-15L
sa(dp23
g6
L10L
sg7
L37L
sa(dp24
g6
L10L
sg7
L241L
sa(dp25
g6
L10L
sg7
L289L
sa(dp26
g6
L10L
sg7
L412L
sa(dp27
g6
L10L
sg7
L546L
sa(dp28
g6
L10L
sg7
L587L
sa(dp29
g6
L10L
sg7
L593L
sa(dp30
g6
L10L
sg7
L603L
sass."
EndChar

StartChar: uni0E13
Encoding: 419 3603 147
GlifName: uni0E_13
Width: 960
VWidth: 0
GlyphClass: 2
Flags: HMW
LayerCount: 2
Fore
SplineSet
193 132 m 0
 169 132 155 115 155 92 c 0
 155 69 169 52 193 52 c 0
 217 52 231 69 231 92 c 0
 231 115 217 132 193 132 c 0
808 132 m 0
 784 132 770 115 770 92 c 0
 770 69 784 52 808 52 c 0
 832 52 846 69 846 92 c 0
 846 115 832 132 808 132 c 0
181 440 m 1
 317 411 l 1
 303 358 l 2
 302 358 284 362 270 362 c 0
 232 362 221 337 221 305 c 2
 221 240 l 2
 221 221 216 206 209 193 c 1
 264 187 304 149 304 92 c 0
 304 30 256 -10 193 -10 c 0
 130 -10 82 30 82 92 c 0
 82 139 93 164 93 210 c 2
 93 292 l 2
 93 340 117 374 160 389 c 1
 43 412 l 1
 58 516 147 620 315 620 c 0
 480 620 588 524 588 395 c 2
 588 210 l 2
 588 180 586 147 585 116 c 1
 622 154 673 187 747 196 c 1
 748 201 749 206 749 212 c 2
 749 600 l 1
 878 600 l 1
 878 238 l 2
 878 216 867 200 852 187 c 1
 892 173 919 138 919 92 c 0
 919 30 871 -10 808 -10 c 0
 745 -10 697 30 697 92 c 0
 697 99 698 106 699 112 c 1
 644 90 608 46 578 0 c 1
 460 0 l 1
 460 395 l 2
 460 486 400 525 315 525 c 0
 247 525 202 495 181 440 c 1
EndSplineSet
PickledDataWithLists: "(dp0
Vcom.fontlab.hintData
p1
(dp2
Vvhints
p3
(lp4
(dp5
Vwidth
p6
L10L
sVposition
p7
L84L
sa(dp8
g6
L10L
sg7
L104L
sa(dp9
g6
L10L
sg7
L166L
sa(dp10
g6
L10L
sg7
L186L
sa(dp11
g6
L10L
sg7
L311L
sa(dp12
g6
L10L
sg7
L454L
sa(dp13
g6
L10L
sg7
L469L
sa(dp14
g6
L10L
sg7
L540L
sa(dp15
g6
L10L
sg7
L551L
sa(dp16
g6
L10L
sg7
L709L
sa(dp17
g6
L10L
sg7
L780L
sa(dp18
g6
L10L
sg7
L816L
sa(dp19
g6
L10L
sg7
L865L
sa(dp20
g6
L10L
sg7
L935L
sasVhhints
p21
(lp22
(dp23
g6
L10L
sg7
L-17L
sa(dp24
g6
L10L
sg7
L29L
sa(dp25
g6
L10L
sg7
L41L
sa(dp26
g6
L10L
sg7
L54L
sa(dp27
g6
L10L
sg7
L241L
sa(dp28
g6
L10L
sg7
L289L
sa(dp29
g6
L10L
sg7
L546L
sa(dp30
g6
L10L
sg7
L594L
sa(dp31
g6
L10L
sg7
L604L
sass."
EndChar

StartChar: uni0E14
Encoding: 420 3604 148
GlifName: uni0E_14
Width: 665
VWidth: 0
GlyphClass: 2
Flags: HMW
LayerCount: 2
Fore
SplineSet
469 0 m 1
 469 95 l 2
 469 162 474 235 474 395 c 0
 474 487 415 525 330 525 c 0
 245 525 180 487 180 395 c 0
 180 255 199 222 199 158 c 0
 199 139 198 120 196 104 c 1
 237 151 291 180 330 215 c 1
 267 215 219 255 219 317 c 0
 219 379 267 419 330 419 c 0
 393 419 441 379 441 317 c 0
 441 161 254 119 222 0 c 1
 76 0 l 1
 76 0 86 71 86 117 c 0
 86 215 62 243 62 395 c 0
 62 523 167 620 330 620 c 0
 493 620 597 523 597 395 c 2
 597 0 l 1
 469 0 l 1
330 357 m 0
 306 357 292 340 292 317 c 0
 292 294 306 277 330 277 c 0
 354 277 368 294 368 317 c 0
 368 340 354 357 330 357 c 0
EndSplineSet
PickledDataWithLists: "(dp0
Vcom.fontlab.hintData
p1
(dp2
Vvhints
p3
(lp4
(dp5
Vwidth
p6
L10L
sVposition
p7
L60L
sa(dp8
g6
L10L
sg7
L149L
sa(dp9
g6
L10L
sg7
L306L
sa(dp10
g6
L10L
sg7
L394L
sa(dp11
g6
L10L
sg7
L495L
sa(dp12
g6
L10L
sg7
L501L
sa(dp13
g6
L10L
sg7
L584L
sa(dp14
g6
L10L
sg7
L589L
sasVhhints
p15
(lp16
(dp17
g6
L10L
sg7
L-23L
sa(dp18
g6
L10L
sg7
L-15L
sa(dp19
g6
L10L
sg7
L40L
sa(dp20
g6
L10L
sg7
L140L
sa(dp21
g6
L10L
sg7
L547L
sa(dp22
g6
L10L
sg7
L609L
sass."
EndChar

StartChar: uni0E15
Encoding: 421 3605 149
GlifName: uni0E_15
Width: 665
VWidth: 0
GlyphClass: 2
Flags: HMW
LayerCount: 2
Fore
SplineSet
469 0 m 1
 469 95 l 2
 469 162 474 235 474 395 c 0
 474 481 456 518 426 524 c 1
 344 459 l 1
 330 459 l 1
 316 459 l 1
 233 524 l 1
 202 518 180 481 180 395 c 0
 180 255 199 222 199 158 c 0
 199 139 198 120 196 104 c 1
 237 151 291 180 330 215 c 1
 267 215 219 255 219 317 c 0
 219 379 267 419 330 419 c 0
 393 419 441 379 441 317 c 0
 441 161 254 119 222 0 c 1
 76 0 l 1
 76 0 86 71 86 117 c 0
 86 215 62 243 62 395 c 0
 62 473 86 614 240 614 c 1
 330 537 l 1
 420 614 l 1
 574 614 597 473 597 395 c 2
 597 0 l 1
 469 0 l 1
330 357 m 0
 306 357 292 340 292 317 c 0
 292 294 306 277 330 277 c 0
 354 277 368 294 368 317 c 0
 368 340 354 357 330 357 c 0
EndSplineSet
PickledDataWithLists: "(dp0
Vcom.fontlab.hintData
p1
(dp2
Vvhints
p3
(lp4
(dp5
Vwidth
p6
L10L
sVposition
p7
L64L
sa(dp8
g6
L10L
sg7
L146L
sa(dp9
g6
L10L
sg7
L309L
sa(dp10
g6
L10L
sg7
L332L
sa(dp11
g6
L10L
sg7
L337L
sa(dp12
g6
L10L
sg7
L391L
sa(dp13
g6
L10L
sg7
L405L
sa(dp14
g6
L10L
sg7
L513L
sa(dp15
g6
L10L
sg7
L597L
sa(dp16
g6
L10L
sg7
L602L
sasVhhints
p17
(lp18
(dp19
g6
L10L
sg7
L-21L
sa(dp20
g6
L10L
sg7
L-13L
sa(dp21
g6
L10L
sg7
L36L
sa(dp22
g6
L10L
sg7
L133L
sa(dp23
g6
L10L
sg7
L412L
sa(dp24
g6
L10L
sg7
L546L
sa(dp25
g6
L10L
sg7
L590L
sa(dp26
g6
L10L
sg7
L603L
sass."
EndChar

StartChar: uni0E16
Encoding: 422 3606 150
GlifName: uni0E_16
Width: 655
VWidth: 0
GlyphClass: 2
Flags: HMW
LayerCount: 2
Fore
SplineSet
315 620 m 0
 480 620 588 524 588 395 c 2
 588 0 l 1
 460 0 l 1
 460 395 l 2
 460 486 400 525 315 525 c 0
 247 525 202 494 181 440 c 1
 317 411 l 1
 303 358 l 2
 302 358 284 362 270 362 c 0
 232 362 221 337 221 305 c 2
 221 240 l 2
 221 221 216 206 209 193 c 1
 264 187 304 149 304 92 c 0
 304 30 256 -10 193 -10 c 0
 130 -10 82 30 82 92 c 0
 82 139 93 164 93 210 c 2
 93 292 l 2
 93 340 117 374 160 389 c 1
 43 412 l 1
 58 516 147 620 315 620 c 0
193 132 m 0
 169 132 155 115 155 92 c 0
 155 69 169 52 193 52 c 0
 217 52 231 69 231 92 c 0
 231 115 217 132 193 132 c 0
EndSplineSet
PickledDataWithLists: "(dp0
Vcom.fontlab.hintData
p1
(dp2
Vvhints
p3
(lp4
(dp5
Vwidth
p6
L10L
sVposition
p7
L81L
sa(dp8
g6
L10L
sg7
L86L
sa(dp9
g6
L10L
sg7
L111L
sa(dp10
g6
L10L
sg7
L169L
sa(dp11
g6
L10L
sg7
L199L
sa(dp12
g6
L10L
sg7
L315L
sa(dp13
g6
L10L
sg7
L465L
sa(dp14
g6
L10L
sg7
L476L
sa(dp15
g6
L10L
sg7
L556L
sa(dp16
g6
L10L
sg7
L564L
sasVhhints
p17
(lp18
(dp19
g6
L10L
sg7
L-19L
sa(dp20
g6
L10L
sg7
L43L
sa(dp21
g6
L10L
sg7
L56L
sa(dp22
g6
L10L
sg7
L544L
sa(dp23
g6
L10L
sg7
L606L
sass."
EndChar

StartChar: uni0E17
Encoding: 423 3607 151
GlifName: uni0E_17
Width: 660
VWidth: 0
GlyphClass: 2
Flags: HMW
LayerCount: 2
Fore
SplineSet
144 468 m 0
 168 468 182 485 182 508 c 0
 182 531 168 548 144 548 c 0
 120 548 106 531 106 508 c 0
 106 485 120 468 144 468 c 0
241 317 m 1
 283 457 354 610 465 610 c 0
 563 610 588 529 588 483 c 2
 588 0 l 1
 460 0 l 1
 460 459 l 2
 460 477 455 499 440 502 c 1
 352 463 261 193 241 87 c 1
 241 0 l 1
 113 0 l 1
 113 360 l 2
 113 379 118 394 126 407 c 1
 72 414 33 452 33 508 c 0
 33 570 81 610 144 610 c 0
 207 610 255 570 255 508 c 0
 255 461 241 436 241 390 c 2
 241 317 l 1
EndSplineSet
PickledDataWithLists: "(dp0
Vcom.fontlab.hintData
p1
(dp2
Vvhints
p3
(lp4
(dp5
Vwidth
p6
L10L
sVposition
p7
L58L
sa(dp8
g6
L10L
sg7
L104L
sa(dp9
g6
L10L
sg7
L479L
sa(dp10
g6
L10L
sg7
L484L
sa(dp11
g6
L10L
sg7
L561L
sa(dp12
g6
L10L
sg7
L566L
sasVhhints
p13
(lp14
(dp15
g6
L10L
sg7
L-13L
sa(dp16
g6
L10L
sg7
L-8L
sa(dp17
g6
L10L
sg7
L546L
sa(dp18
g6
L10L
sg7
L604L
sass."
EndChar

StartChar: uni0E18
Encoding: 424 3608 152
GlifName: uni0E_18
Width: 585
VWidth: 0
GlyphClass: 2
Flags: HMW
AnchorPoint: "ThaiTone.mark" 565 0 basechar 0
LayerCount: 2
Fore
SplineSet
68 181 m 2
 68 300 l 1
 196 300 l 1
 196 181 l 2
 196 103 242 75 295 75 c 0
 348 75 394 103 394 181 c 2
 394 280 l 2
 394 359 276 381 58 381 c 1
 58 420 l 2
 58 538 148 620 279 620 c 0
 352 620 401 594 433 566 c 1
 435 571 437 575 439 579 c 2
 458 614 l 1
 553 596 l 1
 553 590 l 1
 463 478 l 1
 424 478 l 1
 407 500 370 534 300 534 c 0
 243 534 190 511 180 444 c 1
 380 436 523 401 523 296 c 2
 523 181 l 2
 523 71 438 -20 295 -20 c 0
 152 -20 68 71 68 181 c 2
EndSplineSet
PickledDataWithLists: "(dp0
Vcom.fontlab.hintData
p1
(dp2
Vvhints
p3
(lp4
(dp5
Vwidth
p6
L10L
sVposition
p7
L64L
sa(dp8
g6
L10L
sg7
L109L
sa(dp9
g6
L10L
sg7
L146L
sa(dp10
g6
L10L
sg7
L195L
sa(dp11
g6
L10L
sg7
L430L
sa(dp12
g6
L10L
sg7
L513L
sasVhhints
p13
(lp14
(dp15
g6
L10L
sg7
L-14L
sa(dp16
g6
L10L
sg7
L44L
sa(dp17
g6
L10L
sg7
L294L
sa(dp18
g6
L10L
sg7
L496L
sa(dp19
g6
L10L
sg7
L555L
sa(dp20
g6
L10L
sg7
L612L
sass."
EndChar

StartChar: uni0E19
Encoding: 425 3609 153
GlifName: uni0E_19
Width: 650
VWidth: 0
GlyphClass: 2
Flags: HMW
LayerCount: 2
Fore
SplineSet
113 0 m 1
 113 360 l 2
 113 379 119 395 127 407 c 1
 73 414 33 452 33 508 c 0
 33 570 81 610 144 610 c 0
 207 610 255 570 255 508 c 0
 255 458 241 437 241 388 c 2
 241 210 l 2
 241 179 240 144 238 112 c 1
 283 152 346 188 437 197 c 1
 438 202 439 207 439 212 c 2
 439 600 l 1
 568 600 l 1
 568 238 l 2
 568 216 557 200 542 187 c 1
 582 173 609 138 609 92 c 0
 609 30 561 -10 498 -10 c 0
 435 -10 387 30 387 92 c 0
 387 100 388 109 390 116 c 1
 316 96 268 48 231 0 c 1
 113 0 l 1
498 132 m 0
 474 132 460 115 460 92 c 0
 460 69 474 52 498 52 c 0
 522 52 536 69 536 92 c 0
 536 115 522 132 498 132 c 0
144 468 m 0
 168 468 182 485 182 508 c 0
 182 531 168 548 144 548 c 0
 120 548 106 531 106 508 c 0
 106 485 120 468 144 468 c 0
EndSplineSet
PickledDataWithLists: "(dp0
Vcom.fontlab.hintData
p1
(dp2
Vvhints
p3
(lp4
(dp5
Vwidth
p6
L10L
sVposition
p7
L64L
sa(dp8
g6
L10L
sg7
L84L
sa(dp9
g6
L10L
sg7
L168L
sa(dp10
g6
L10L
sg7
L387L
sa(dp11
g6
L10L
sg7
L457L
sa(dp12
g6
L10L
sg7
L491L
sa(dp13
g6
L10L
sg7
L550L
sa(dp14
g6
L10L
sg7
L625L
sasVhhints
p15
(lp16
(dp17
g6
L10L
sg7
L-27L
sa(dp18
g6
L10L
sg7
L-20L
sa(dp19
g6
L10L
sg7
L22L
sa(dp20
g6
L10L
sg7
L248L
sa(dp21
g6
L10L
sg7
L307L
sa(dp22
g6
L10L
sg7
L589L
sa(dp23
g6
L10L
sg7
L598L
sass."
EndChar

StartChar: uni0E1A
Encoding: 426 3610 154
GlifName: uni0E_1A_
Width: 700
VWidth: 0
GlyphClass: 2
Flags: HMW
LayerCount: 2
Fore
SplineSet
138 468 m 0
 162 468 176 485 176 508 c 0
 176 531 162 548 138 548 c 0
 114 548 100 531 100 508 c 0
 100 485 114 468 138 468 c 0
249 508 m 0
 249 461 235 436 235 390 c 2
 235 192 l 2
 235 109 289 74 365 74 c 0
 441 74 494 109 494 192 c 2
 494 600 l 1
 622 600 l 1
 622 192 l 2
 622 71 521 -20 365 -20 c 0
 209 -20 107 71 107 192 c 2
 107 360 l 2
 107 379 112 394 120 407 c 1
 66 414 27 452 27 508 c 0
 27 570 75 610 138 610 c 0
 201 610 249 570 249 508 c 0
EndSplineSet
PickledDataWithLists: "(dp0
Vcom.fontlab.hintData
p1
(dp2
Vvhints
p3
(lp4
(dp5
Vwidth
p6
L10L
sVposition
p7
L81L
sa(dp8
g6
L10L
sg7
L106L
sa(dp9
g6
L10L
sg7
L194L
sa(dp10
g6
L10L
sg7
L511L
sa(dp11
g6
L10L
sg7
L516L
sa(dp12
g6
L10L
sg7
L599L
sa(dp13
g6
L10L
sg7
L604L
sasVhhints
p14
(lp15
(dp16
g6
L10L
sg7
L-26L
sa(dp17
g6
L10L
sg7
L36L
sa(dp18
g6
L10L
sg7
L596L
sass."
EndChar

StartChar: uni0E1B
Encoding: 427 3611 155
GlifName: uni0E_1B_
Width: 700
VWidth: 0
GlyphClass: 2
Flags: HMW
LayerCount: 2
Fore
SplineSet
138 468 m 0
 162 468 176 485 176 508 c 0
 176 531 162 548 138 548 c 0
 114 548 100 531 100 508 c 0
 100 485 114 468 138 468 c 0
249 508 m 0
 249 461 235 436 235 390 c 2
 235 192 l 2
 235 109 289 74 365 74 c 0
 441 74 494 109 494 192 c 2
 494 810 l 1
 622 810 l 1
 622 192 l 2
 622 71 521 -20 365 -20 c 0
 209 -20 107 71 107 192 c 2
 107 360 l 2
 107 379 112 394 120 407 c 1
 66 414 27 452 27 508 c 0
 27 570 75 610 138 610 c 0
 201 610 249 570 249 508 c 0
EndSplineSet
PickledDataWithLists: "(dp0
Vcom.fontlab.hintData
p1
(dp2
Vvhints
p3
(lp4
(dp5
Vwidth
p6
L10L
sVposition
p7
L81L
sa(dp8
g6
L10L
sg7
L106L
sa(dp9
g6
L10L
sg7
L194L
sa(dp10
g6
L10L
sg7
L521L
sa(dp11
g6
L10L
sg7
L526L
sa(dp12
g6
L10L
sg7
L609L
sa(dp13
g6
L10L
sg7
L614L
sasVhhints
p14
(lp15
(dp16
g6
L10L
sg7
L-26L
sa(dp17
g6
L10L
sg7
L36L
sa(dp18
g6
L10L
sg7
L600L
sa(dp19
g6
L10L
sg7
L836L
sass."
EndChar

StartChar: uni0E1C
Encoding: 428 3612 156
GlifName: uni0E_1C_
Width: 715
VWidth: 0
GlyphClass: 2
Flags: HMW
LayerCount: 2
Fore
SplineSet
513 211 m 2
 513 600 l 1
 637 600 l 1
 637 0 l 1
 517 0 l 1
 358 269 l 1
 200 0 l 1
 80 0 l 1
 80 280 l 2
 80 354 62 408 62 463 c 0
 62 551 121 610 222 610 c 0
 285 610 333 570 333 508 c 0
 333 446 285 406 222 406 c 0
 205 406 189 408 175 414 c 1
 185 374 204 352 204 292 c 2
 204 211 l 2
 204 191 201 171 198 152 c 1
 320 360 l 1
 358 360 l 1
 397 360 l 1
 519 152 l 1
 516 171 513 191 513 211 c 2
222 468 m 0
 246 468 260 485 260 508 c 0
 260 531 246 548 222 548 c 0
 198 548 184 531 184 508 c 0
 184 485 198 468 222 468 c 0
EndSplineSet
PickledDataWithLists: "(dp0
Vcom.fontlab.hintData
p1
(dp2
Vvhints
p3
(lp4
(dp5
Vwidth
p6
L10L
sVposition
p7
L64L
sa(dp8
g6
L10L
sg7
L148L
sa(dp9
g6
L10L
sg7
L372L
sa(dp10
g6
L10L
sg7
L559L
sa(dp11
g6
L10L
sg7
L643L
sa(dp12
g6
L10L
sg7
L653L
sasVhhints
p13
(lp14
(dp15
g6
L10L
sg7
L-14L
sa(dp16
g6
L10L
sg7
L-8L
sa(dp17
g6
L10L
sg7
L318L
sa(dp18
g6
L10L
sg7
L514L
sa(dp19
g6
L10L
sg7
L544L
sa(dp20
g6
L10L
sg7
L599L
sa(dp21
g6
L10L
sg7
L604L
sass."
EndChar

StartChar: uni0E1D
Encoding: 429 3613 157
GlifName: uni0E_1D_
Width: 715
VWidth: 0
GlyphClass: 2
Flags: HMW
LayerCount: 2
Fore
SplineSet
513 211 m 2
 513 810 l 1
 637 810 l 1
 637 0 l 1
 517 0 l 1
 358 269 l 1
 200 0 l 1
 80 0 l 1
 80 280 l 2
 80 354 62 408 62 463 c 0
 62 551 121 610 222 610 c 0
 285 610 333 570 333 508 c 0
 333 446 285 406 222 406 c 0
 205 406 189 408 175 414 c 1
 185 374 204 352 204 292 c 2
 204 211 l 2
 204 191 201 171 198 152 c 1
 320 360 l 1
 358 360 l 1
 397 360 l 1
 519 152 l 1
 516 171 513 191 513 211 c 2
222 468 m 0
 246 468 260 485 260 508 c 0
 260 531 246 548 222 548 c 0
 198 548 184 531 184 508 c 0
 184 485 198 468 222 468 c 0
EndSplineSet
PickledDataWithLists: "(dp0
Vcom.fontlab.hintData
p1
(dp2
Vvhints
p3
(lp4
(dp5
Vwidth
p6
L10L
sVposition
p7
L64L
sa(dp8
g6
L10L
sg7
L148L
sa(dp9
g6
L10L
sg7
L372L
sa(dp10
g6
L10L
sg7
L559L
sa(dp11
g6
L10L
sg7
L643L
sa(dp12
g6
L10L
sg7
L653L
sasVhhints
p13
(lp14
(dp15
g6
L10L
sg7
L-14L
sa(dp16
g6
L10L
sg7
L-8L
sa(dp17
g6
L10L
sg7
L318L
sa(dp18
g6
L10L
sg7
L514L
sa(dp19
g6
L10L
sg7
L544L
sa(dp20
g6
L10L
sg7
L604L
sa(dp21
g6
L10L
sg7
L834L
sass."
EndChar

StartChar: uni0E1E
Encoding: 430 3614 158
GlifName: uni0E_1E_
Width: 735
VWidth: 0
GlyphClass: 2
Flags: HMW
LayerCount: 2
Fore
SplineSet
657 600 m 1
 657 0 l 1
 546 0 l 1
 384 367 l 1
 223 0 l 1
 112 0 l 1
 112 360 l 2
 112 379 117 395 125 407 c 1
 71 414 32 452 32 508 c 0
 32 570 80 610 143 610 c 0
 206 610 254 570 254 508 c 0
 254 460 236 436 236 388 c 2
 236 268 l 2
 236 252 234 232 232 214 c 1
 354 495 l 1
 384 495 l 1
 415 495 l 1
 537 212 l 1
 535 231 533 251 533 268 c 2
 533 600 l 1
 657 600 l 1
143 468 m 0
 167 468 181 485 181 508 c 0
 181 531 167 548 143 548 c 0
 119 548 105 531 105 508 c 0
 105 485 119 468 143 468 c 0
EndSplineSet
PickledDataWithLists: "(dp0
Vcom.fontlab.hintData
p1
(dp2
Vvhints
p3
(lp4
(dp5
Vwidth
p6
L10L
sVposition
p7
L58L
sa(dp8
g6
L10L
sg7
L104L
sa(dp9
g6
L10L
sg7
L182L
sa(dp10
g6
L10L
sg7
L556L
sa(dp11
g6
L10L
sg7
L656L
sasVhhints
p12
(lp13
(dp14
g6
L10L
sg7
L-12L
sa(dp15
g6
L10L
sg7
L540L
sa(dp16
g6
L10L
sg7
L604L
sass."
EndChar

StartChar: uni0E1F
Encoding: 431 3615 159
GlifName: uni0E_1F_
Width: 735
VWidth: 0
GlyphClass: 2
Flags: HMW
LayerCount: 2
Fore
SplineSet
657 810 m 1
 657 0 l 1
 546 0 l 1
 384 367 l 1
 223 0 l 1
 112 0 l 1
 112 360 l 2
 112 379 117 395 125 407 c 1
 71 414 32 452 32 508 c 0
 32 570 80 610 143 610 c 0
 206 610 254 570 254 508 c 0
 254 460 236 436 236 388 c 2
 236 268 l 2
 236 252 234 232 232 214 c 1
 354 495 l 1
 384 495 l 1
 415 495 l 1
 537 212 l 1
 535 231 533 251 533 268 c 2
 533 810 l 1
 657 810 l 1
143 468 m 0
 167 468 181 485 181 508 c 0
 181 531 167 548 143 548 c 0
 119 548 105 531 105 508 c 0
 105 485 119 468 143 468 c 0
EndSplineSet
PickledDataWithLists: "(dp0
Vcom.fontlab.hintData
p1
(dp2
Vvhints
p3
(lp4
(dp5
Vwidth
p6
L10L
sVposition
p7
L58L
sa(dp8
g6
L10L
sg7
L104L
sa(dp9
g6
L10L
sg7
L182L
sa(dp10
g6
L10L
sg7
L565L
sa(dp11
g6
L9L
sg7
L641L
sa(dp12
g6
L11L
sg7
L686L
sasVhhints
p13
(lp14
(dp15
g6
L10L
sg7
L-12L
sa(dp16
g6
L10L
sg7
L540L
sa(dp17
g6
L10L
sg7
L604L
sa(dp18
g6
L10L
sg7
L834L
sass."
EndChar

StartChar: uni0E20
Encoding: 432 3616 160
GlifName: uni0E_20
Width: 665
VWidth: 0
GlyphClass: 2
Flags: HMW
LayerCount: 2
Fore
SplineSet
148 133 m 0
 124 133 110 116 110 93 c 0
 110 70 124 53 148 53 c 0
 172 53 186 70 186 93 c 0
 186 116 172 133 148 133 c 0
325 621 m 0
 490 621 598 525 598 396 c 2
 598 1 l 1
 470 1 l 1
 470 396 l 2
 470 487 410 526 325 526 c 0
 258 526 212 496 191 442 c 1
 342 412 l 1
 328 359 l 2
 327 359 309 363 295 363 c 0
 257 363 246 338 246 306 c 2
 246 211 l 2
 246 165 259 140 259 93 c 0
 259 31 211 -9 148 -9 c 0
 85 -9 37 31 37 93 c 0
 37 149 77 187 131 194 c 1
 123 207 118 222 118 241 c 2
 118 293 l 2
 118 341 141 374 184 389 c 1
 53 413 l 1
 68 517 157 621 325 621 c 0
EndSplineSet
PickledDataWithLists: "(dp0
Vcom.fontlab.hintData
p1
(dp2
Vvhints
p3
(lp4
(dp5
Vwidth
p6
L10L
sVposition
p7
L26L
sa(dp8
g6
L10L
sg7
L81L
sa(dp9
g6
L10L
sg7
L131L
sa(dp10
g6
L10L
sg7
L219L
sa(dp11
g6
L10L
sg7
L465L
sa(dp12
g6
L10L
sg7
L476L
sa(dp13
g6
L10L
sg7
L556L
sa(dp14
g6
L10L
sg7
L564L
sasVhhints
p15
(lp16
(dp17
g6
L10L
sg7
L-16L
sa(dp18
g6
L10L
sg7
L66L
sa(dp19
g6
L10L
sg7
L544L
sa(dp20
g6
L10L
sg7
L606L
sass."
EndChar

StartChar: uni0E21
Encoding: 433 3617 161
GlifName: uni0E_21
Width: 645
VWidth: 0
GlyphClass: 2
Flags: HMW
LayerCount: 2
Fore
SplineSet
164 132 m 0
 140 132 126 115 126 92 c 0
 126 69 140 52 164 52 c 0
 188 52 202 69 202 92 c 0
 202 115 188 132 164 132 c 0
154 468 m 0
 178 468 192 485 192 508 c 0
 192 531 178 548 154 548 c 0
 130 548 116 531 116 508 c 0
 116 485 130 468 154 468 c 0
139 192 m 1
 129 205 123 220 123 240 c 2
 123 360 l 2
 123 379 129 395 137 407 c 1
 83 414 43 452 43 508 c 0
 43 570 91 610 154 610 c 0
 217 610 265 570 265 508 c 0
 265 458 251 437 251 388 c 2
 251 212 l 2
 251 205 251 200 252 194 c 1
 337 182 399 148 443 110 c 1
 441 143 440 178 440 210 c 2
 440 600 l 1
 568 600 l 1
 568 0 l 1
 450 0 l 1
 412 50 356 98 273 117 c 1
 274 109 275 101 275 92 c 0
 275 30 227 -10 164 -10 c 0
 101 -10 53 30 53 92 c 0
 53 146 89 183 139 192 c 1
EndSplineSet
PickledDataWithLists: "(dp0
Vcom.fontlab.hintData
p1
(dp2
Vvhints
p3
(lp4
(dp5
Vwidth
p6
L10L
sVposition
p7
L25L
sa(dp8
g6
L10L
sg7
L56L
sa(dp9
g6
L10L
sg7
L100L
sa(dp10
g6
L10L
sg7
L200L
sa(dp11
g6
L10L
sg7
L280L
sa(dp12
g6
L10L
sg7
L476L
sa(dp13
g6
L10L
sg7
L484L
sa(dp14
g6
L10L
sg7
L556L
sa(dp15
g6
L10L
sg7
L566L
sasVhhints
p16
(lp17
(dp18
g6
L10L
sg7
L-27L
sa(dp19
g6
L10L
sg7
L243L
sa(dp20
g6
L10L
sg7
L297L
sa(dp21
g6
L10L
sg7
L528L
sa(dp22
g6
L10L
sg7
L548L
sa(dp23
g6
L10L
sg7
L588L
sa(dp24
g6
L10L
sg7
L602L
sass."
EndChar

StartChar: uni0E22
Encoding: 434 3618 162
GlifName: uni0E_22
Width: 645
VWidth: 0
GlyphClass: 2
Flags: HMW
LayerCount: 2
Fore
SplineSet
222 468 m 0
 246 468 260 485 260 508 c 0
 260 531 246 548 222 548 c 0
 198 548 184 531 184 508 c 0
 184 485 198 468 222 468 c 0
444 600 m 1
 572 600 l 1
 572 192 l 2
 572 71 471 -20 315 -20 c 0
 159 -20 57 66 57 181 c 0
 57 251 96 291 149 311 c 1
 96 339 57 393 57 462 c 0
 57 549 118 610 222 610 c 0
 285 610 333 570 333 508 c 0
 333 446 285 406 222 406 c 0
 193 406 167 414 148 429 c 1
 166 372 229 353 331 353 c 1
 331 277 l 1
 237 277 185 248 185 186 c 0
 185 109 239 74 315 74 c 0
 391 74 444 109 444 192 c 2
 444 600 l 1
EndSplineSet
PickledDataWithLists: "(dp0
Vcom.fontlab.hintData
p1
(dp2
Vvhints
p3
(lp4
(dp5
Vwidth
p6
L10L
sVposition
p7
L44L
sa(dp8
g6
L10L
sg7
L114L
sa(dp9
g6
L10L
sg7
L126L
sa(dp10
g6
L10L
sg7
L196L
sa(dp11
g6
L10L
sg7
L335L
sa(dp12
g6
L10L
sg7
L352L
sa(dp13
g6
L10L
sg7
L474L
sa(dp14
g6
L10L
sg7
L562L
sasVhhints
p15
(lp16
(dp17
g6
L10L
sg7
L-26L
sa(dp18
g6
L10L
sg7
L36L
sa(dp19
g6
L10L
sg7
L517L
sa(dp20
g6
L10L
sg7
L546L
sa(dp21
g6
L10L
sg7
L596L
sa(dp22
g6
L10L
sg7
L604L
sass."
EndChar

StartChar: uni0E23
Encoding: 435 3619 163
GlifName: uni0E_23
Width: 530
VWidth: 0
GlyphClass: 2
Flags: HMW
AnchorPoint: "ThaiBelow.mark" 500 0 basechar 0
AnchorPoint: "ThaiTone.mark" 510 0 basechar 0
AnchorPoint: "ThaiAbove.mark" 560 0 basechar 0
LayerCount: 2
Fore
SplineSet
384 567 m 1
 386 571 387 575 389 579 c 2
 408 614 l 1
 503 595 l 1
 503 590 l 1
 413 477 l 1
 374 477 l 1
 357 499 325 534 256 534 c 0
 200 534 149 512 140 444 c 1
 303 436 423 401 423 300 c 2
 423 190 l 1
 423 117 l 2
 423 41 370 -10 286 -10 c 0
 223 -10 175 30 175 92 c 0
 175 154 223 194 286 194 c 0
 290 194 294 193 298 193 c 1
 296 201 295 210 295 218 c 2
 295 284 l 2
 295 362 196 381 18 381 c 1
 18 420 l 2
 18 538 105 620 235 620 c 0
 306 620 354 594 384 567 c 1
286 132 m 0
 262 132 248 115 248 92 c 0
 248 69 262 52 286 52 c 0
 310 52 324 69 324 92 c 0
 324 115 310 132 286 132 c 0
EndSplineSet
PickledDataWithLists: "(dp0
Vcom.fontlab.hintData
p1
(dp2
Vvhints
p3
(lp4
(dp5
Vwidth
p6
L10L
sVposition
p7
L31L
sa(dp8
g6
L10L
sg7
L111L
sa(dp9
g6
L10L
sg7
L116L
sa(dp10
g6
L10L
sg7
L362L
sa(dp11
g6
L10L
sg7
L446L
sa(dp12
g6
L10L
sg7
L479L
sasVhhints
p13
(lp14
(dp15
g6
L10L
sg7
L-16L
sa(dp16
g6
L10L
sg7
L46L
sa(dp17
g6
L10L
sg7
L91L
sa(dp18
g6
L10L
sg7
L494L
sa(dp19
g6
L10L
sg7
L548L
sa(dp20
g6
L10L
sg7
L610L
sass."
EndChar

StartChar: uni0E24
Encoding: 436 3620 164
GlifName: uni0E_24
Width: 655
VWidth: 0
GlyphClass: 2
Flags: HMW
LayerCount: 2
Fore
SplineSet
315 620 m 0
 480 620 588 524 588 395 c 2
 588 -210 l 1
 460 -210 l 1
 460 395 l 2
 460 486 400 525 315 525 c 0
 247 525 202 494 181 440 c 1
 317 411 l 1
 303 358 l 2
 302 358 284 362 270 362 c 0
 232 362 221 337 221 305 c 2
 221 240 l 2
 221 221 216 206 209 193 c 1
 264 187 304 149 304 92 c 0
 304 30 256 -10 193 -10 c 0
 130 -10 82 30 82 92 c 0
 82 139 93 164 93 210 c 2
 93 292 l 2
 93 340 117 374 160 389 c 1
 43 412 l 1
 58 516 147 620 315 620 c 0
193 132 m 0
 169 132 155 115 155 92 c 0
 155 69 169 52 193 52 c 0
 217 52 231 69 231 92 c 0
 231 115 217 132 193 132 c 0
EndSplineSet
PickledDataWithLists: "(dp0
Vcom.fontlab.hintData
p1
(dp2
Vvhints
p3
(lp4
(dp5
Vwidth
p6
L10L
sVposition
p7
L81L
sa(dp8
g6
L10L
sg7
L86L
sa(dp9
g6
L10L
sg7
L111L
sa(dp10
g6
L10L
sg7
L169L
sa(dp11
g6
L10L
sg7
L199L
sa(dp12
g6
L10L
sg7
L315L
sa(dp13
g6
L10L
sg7
L465L
sa(dp14
g6
L10L
sg7
L476L
sa(dp15
g6
L10L
sg7
L556L
sa(dp16
g6
L10L
sg7
L564L
sasVhhints
p17
(lp18
(dp19
g6
L10L
sg7
L-246L
sa(dp20
g6
L10L
sg7
L-19L
sa(dp21
g6
L10L
sg7
L43L
sa(dp22
g6
L10L
sg7
L56L
sa(dp23
g6
L10L
sg7
L544L
sa(dp24
g6
L10L
sg7
L606L
sass."
EndChar

StartChar: uni0E240E45.liga
Encoding: 808 63617 165
GlifName: uni0E_240E_45.liga
Width: 950
VWidth: 0
GlyphClass: 3
Flags: HMW
LayerCount: 2
Fore
SplineSet
193 132 m 0
 169 132 155 115 155 92 c 0
 155 69 169 52 193 52 c 0
 217 52 231 69 231 92 c 0
 231 115 217 132 193 132 c 0
527 543 m 1
 558 583 607 614 680 614 c 0
 809 614 878 530 878 434 c 2
 878 -210 l 1
 750 -210 l 1
 750 434 l 2
 750 502 712 519 676 519 c 0
 622 519 597 474 586 424 c 0
 587 415 588 405 588 395 c 2
 588 -210 l 1
 460 -210 l 1
 460 395 l 2
 460 486 400 525 315 525 c 0
 247 525 202 494 181 440 c 1
 317 411 l 1
 303 358 l 2
 302 358 284 362 270 362 c 0
 232 362 221 337 221 305 c 2
 221 240 l 2
 221 221 216 206 209 193 c 1
 264 187 304 149 304 92 c 0
 304 30 256 -10 193 -10 c 0
 130 -10 82 30 82 92 c 0
 82 139 93 164 93 210 c 2
 93 292 l 2
 93 340 117 374 160 389 c 1
 43 412 l 1
 58 516 147 620 315 620 c 0
 406 620 479 591 527 543 c 1
EndSplineSet
PickledDataWithLists: "(dp0
Vcom.fontlab.hintData
p1
(dp2
Vvhints
p3
(lp4
(dp5
Vwidth
p6
L10L
sVposition
p7
L81L
sa(dp8
g6
L10L
sg7
L86L
sa(dp9
g6
L10L
sg7
L111L
sa(dp10
g6
L10L
sg7
L169L
sa(dp11
g6
L10L
sg7
L199L
sa(dp12
g6
L10L
sg7
L315L
sa(dp13
g6
L10L
sg7
L465L
sa(dp14
g6
L10L
sg7
L476L
sa(dp15
g6
L10L
sg7
L556L
sa(dp16
g6
L10L
sg7
L563L
sa(dp17
g6
L10L
sg7
L756L
sa(dp18
g6
L10L
sg7
L782L
sa(dp19
g6
L10L
sg7
L844L
sa(dp20
g6
L10L
sg7
L870L
sasVhhints
p21
(lp22
(dp23
g6
L10L
sg7
L-245L
sa(dp24
g6
L10L
sg7
L-19L
sa(dp25
g6
L10L
sg7
L43L
sa(dp26
g6
L10L
sg7
L56L
sa(dp27
g6
L10L
sg7
L544L
sa(dp28
g6
L10L
sg7
L606L
sass."
Ligature2: "Thai.liga subtable" uni0E24 uni200D uni0E45
Ligature2: "Thai.liga subtable" uni0E24 uni0E45
Colour: ff00ff
EndChar

StartChar: uni0E25
Encoding: 437 3621 166
GlifName: uni0E_25
Width: 635
VWidth: 0
GlyphClass: 2
Flags: HMW
LayerCount: 2
Fore
SplineSet
192 132 m 0
 168 132 154 115 154 92 c 0
 154 69 168 52 192 52 c 0
 216 52 230 69 230 92 c 0
 230 115 216 132 192 132 c 0
63 109 m 2
 63 198 l 2
 63 268 93 358 227 358 c 0
 322 358 393 304 440 243 c 1
 440 405 l 2
 440 491 385 525 305 525 c 0
 229 525 181 484 171 410 c 1
 43 420 l 1
 57 520 143 620 305 620 c 0
 463 620 568 529 568 405 c 2
 568 0 l 1
 440 0 l 1
 440 96 l 1
 423 164 342 272 235 272 c 0
 201 272 183 251 183 219 c 0
 183 209 181 200 178 193 c 1
 183 193 187 194 192 194 c 0
 255 194 303 154 303 92 c 0
 303 30 255 -10 192 -10 c 0
 118 -10 63 41 63 109 c 2
EndSplineSet
PickledDataWithLists: "(dp0
Vcom.fontlab.hintData
p1
(dp2
Vvhints
p3
(lp4
(dp5
Vwidth
p6
L10L
sVposition
p7
L41L
sa(dp8
g6
L10L
sg7
L91L
sa(dp9
g6
L10L
sg7
L179L
sa(dp10
g6
L10L
sg7
L504L
sa(dp11
g6
L10L
sg7
L589L
sasVhhints
p12
(lp13
(dp14
g6
L10L
sg7
L-16L
sa(dp15
g6
L10L
sg7
L-6L
sa(dp16
g6
L10L
sg7
L296L
sa(dp17
g6
L10L
sg7
L414L
sa(dp18
g6
L10L
sg7
L549L
sa(dp19
g6
L10L
sg7
L610L
sass."
EndChar

StartChar: uni0E26
Encoding: 438 3622 167
GlifName: uni0E_26
Width: 670
VWidth: 0
GlyphClass: 2
Flags: HMW
LayerCount: 2
Fore
SplineSet
148 133 m 0
 124 133 110 116 110 93 c 0
 110 70 124 53 148 53 c 0
 172 53 186 70 186 93 c 0
 186 116 172 133 148 133 c 0
325 621 m 0
 490 621 598 525 598 396 c 2
 598 -209 l 1
 470 -209 l 1
 470 396 l 2
 470 487 410 526 325 526 c 0
 258 526 212 496 191 442 c 1
 342 412 l 1
 328 359 l 2
 327 359 309 363 295 363 c 0
 257 363 246 338 246 306 c 2
 246 211 l 2
 246 165 259 140 259 93 c 0
 259 31 211 -9 148 -9 c 0
 85 -9 37 31 37 93 c 0
 37 149 77 187 131 194 c 1
 123 207 118 222 118 241 c 2
 118 293 l 2
 118 341 141 374 184 389 c 1
 53 413 l 1
 68 517 157 621 325 621 c 0
EndSplineSet
PickledDataWithLists: "(dp0
Vcom.fontlab.hintData
p1
(dp2
Vvhints
p3
(lp4
(dp5
Vwidth
p6
L10L
sVposition
p7
L26L
sa(dp8
g6
L10L
sg7
L81L
sa(dp9
g6
L10L
sg7
L131L
sa(dp10
g6
L10L
sg7
L219L
sa(dp11
g6
L10L
sg7
L465L
sa(dp12
g6
L10L
sg7
L476L
sa(dp13
g6
L10L
sg7
L556L
sa(dp14
g6
L10L
sg7
L564L
sasVhhints
p15
(lp16
(dp17
g6
L10L
sg7
L-246L
sa(dp18
g6
L10L
sg7
L-16L
sa(dp19
g6
L10L
sg7
L66L
sa(dp20
g6
L10L
sg7
L544L
sa(dp21
g6
L10L
sg7
L606L
sass."
EndChar

StartChar: uni0E260E45.liga
Encoding: 809 63618 168
GlifName: uni0E_260E_45.liga
Width: 960
VWidth: 0
GlyphClass: 3
Flags: HMW
LayerCount: 2
Fore
SplineSet
148 132 m 0
 124 132 110 115 110 92 c 0
 110 69 124 52 148 52 c 0
 172 52 186 69 186 92 c 0
 186 115 172 132 148 132 c 0
537 543 m 1
 568 583 617 614 690 614 c 0
 819 614 888 530 888 434 c 2
 888 -210 l 1
 760 -210 l 1
 760 434 l 2
 760 502 722 519 686 519 c 0
 632 519 607 474 596 424 c 0
 597 415 598 405 598 395 c 2
 598 -210 l 1
 470 -210 l 1
 470 395 l 2
 470 486 410 525 325 525 c 0
 258 525 212 495 191 441 c 1
 342 411 l 1
 328 358 l 2
 327 358 309 362 295 362 c 0
 257 362 246 337 246 305 c 2
 246 210 l 2
 246 164 259 139 259 92 c 0
 259 30 211 -10 148 -10 c 0
 85 -10 37 30 37 92 c 0
 37 148 77 186 131 193 c 1
 123 206 118 221 118 240 c 2
 118 292 l 2
 118 340 141 373 184 388 c 1
 53 412 l 1
 68 516 157 620 325 620 c 0
 416 620 489 591 537 543 c 1
EndSplineSet
PickledDataWithLists: "(dp0
Vcom.fontlab.hintData
p1
(dp2
Vvhints
p3
(lp4
(dp5
Vwidth
p6
L10L
sVposition
p7
L26L
sa(dp8
g6
L10L
sg7
L81L
sa(dp9
g6
L10L
sg7
L131L
sa(dp10
g6
L10L
sg7
L219L
sa(dp11
g6
L10L
sg7
L465L
sa(dp12
g6
L10L
sg7
L476L
sa(dp13
g6
L10L
sg7
L556L
sa(dp14
g6
L10L
sg7
L563L
sa(dp15
g6
L10L
sg7
L756L
sa(dp16
g6
L10L
sg7
L782L
sa(dp17
g6
L10L
sg7
L844L
sa(dp18
g6
L10L
sg7
L870L
sasVhhints
p19
(lp20
(dp21
g6
L10L
sg7
L-245L
sa(dp22
g6
L10L
sg7
L-16L
sa(dp23
g6
L10L
sg7
L66L
sa(dp24
g6
L10L
sg7
L544L
sa(dp25
g6
L10L
sg7
L606L
sass."
Ligature2: "Thai.liga subtable" uni0E26 uni200D uni0E45
Ligature2: "Thai.liga subtable" uni0E26 uni0E45
Colour: ff00ff
EndChar

StartChar: uni0E27
Encoding: 439 3623 169
GlifName: uni0E_27
Width: 535
VWidth: 0
GlyphClass: 2
Flags: HMW
AnchorPoint: "ThaiAbove.mark" 545 0 basechar 0
LayerCount: 2
Fore
SplineSet
8 448 m 1
 21 530 94 620 236 620 c 0
 379 620 463 530 463 420 c 2
 463 190 l 1
 463 117 l 2
 463 41 410 -10 326 -10 c 0
 263 -10 215 30 215 92 c 0
 215 154 263 194 326 194 c 0
 330 194 334 193 338 193 c 1
 336 201 335 210 335 218 c 2
 335 420 l 2
 335 498 289 525 236 525 c 0
 182 525 146 496 136 438 c 1
 8 448 l 1
326 132 m 0
 302 132 288 115 288 92 c 0
 288 69 302 52 326 52 c 0
 350 52 364 69 364 92 c 0
 364 115 350 132 326 132 c 0
EndSplineSet
PickledDataWithLists: "(dp0
Vcom.fontlab.hintData
p1
(dp2
Vvhints
p3
(lp4
(dp5
Vwidth
p6
L10L
sVposition
p7
L21L
sa(dp8
g6
L10L
sg7
L168L
sa(dp9
g6
L10L
sg7
L255L
sa(dp10
g6
L10L
sg7
L411L
sa(dp11
g6
L10L
sg7
L499L
sasVhhints
p12
(lp13
(dp14
g6
L10L
sg7
L-15L
sa(dp15
g6
L10L
sg7
L46L
sa(dp16
g6
L10L
sg7
L136L
sa(dp17
g6
L10L
sg7
L394L
sa(dp18
g6
L9L
sg7
L552L
sa(dp19
g6
L10L
sg7
L614L
sass."
EndChar

StartChar: uni0E28
Encoding: 440 3624 170
GlifName: uni0E_28
Width: 680
VWidth: 0
GlyphClass: 2
Flags: HMW
LayerCount: 2
Fore
SplineSet
330 357 m 0
 306 357 292 340 292 317 c 0
 292 294 306 277 330 277 c 0
 354 277 368 294 368 317 c 0
 368 340 354 357 330 357 c 0
469 0 m 1
 469 95 l 2
 469 162 474 235 474 395 c 0
 474 420 470 440 462 457 c 1
 437 440 413 422 390 405 c 1
 421 388 440 357 440 317 c 0
 440 255 393 215 330 215 c 0
 295 215 265 227 245 248 c 1
 229 214 219 167 216 95 c 2
 214 0 l 1
 76 0 l 1
 76 0 86 71 86 117 c 0
 86 215 62 243 62 395 c 0
 62 523 167 620 330 620 c 0
 396 620 452 604 496 577 c 1
 526 608 566 639 626 644 c 1
 647 533 l 1
 612 532 585 526 561 514 c 1
 584 480 597 439 597 395 c 2
 597 0 l 1
 469 0 l 1
422 503 m 1
 398 518 366 525 330 525 c 0
 245 525 185 487 185 395 c 0
 185 343 186 304 187 272 c 1
 199 319 219 361 252 390 c 0
 269 405 292 415 317 418 c 1
 350 446 386 475 422 503 c 1
EndSplineSet
PickledDataWithLists: "(dp0
Vcom.fontlab.hintData
p1
(dp2
Vvhints
p3
(lp4
(dp5
Vwidth
p6
L10L
sVposition
p7
L59L
sa(dp8
g6
L10L
sg7
L142L
sa(dp9
g6
L10L
sg7
L439L
sa(dp10
g6
L10L
sg7
L508L
sa(dp11
g6
L10L
sg7
L590L
sa(dp12
g6
L10L
sg7
L637L
sasVhhints
p13
(lp14
(dp15
g6
L10L
sg7
L-18L
sa(dp16
g6
L10L
sg7
L-4L
sa(dp17
g6
L10L
sg7
L551L
sa(dp18
g6
L10L
sg7
L608L
sa(dp19
g6
L10L
sg7
L654L
sass."
EndChar

StartChar: uni0E29
Encoding: 441 3625 171
GlifName: uni0E_29
Width: 710
VWidth: 0
GlyphClass: 2
Flags: HMW
LayerCount: 2
Fore
SplineSet
138 468 m 0
 162 468 176 485 176 508 c 0
 176 531 162 548 138 548 c 0
 114 548 100 531 100 508 c 0
 100 485 114 468 138 468 c 0
370 375 m 0
 352 375 340 363 340 345 c 0
 340 327 352 315 370 315 c 0
 388 315 400 327 400 345 c 0
 400 363 388 375 370 375 c 0
370 425 m 0
 420 425 457 394 457 345 c 0
 457 327 452 311 443 299 c 1
 449 300 455 301 460 301 c 0
 471 301 482 302 494 303 c 1
 494 600 l 1
 622 600 l 1
 622 337 l 1
 647 347 669 356 685 365 c 1
 706 299 l 1
 683 289 655 279 622 270 c 1
 622 192 l 2
 622 71 521 -20 365 -20 c 0
 209 -20 107 71 107 192 c 2
 107 360 l 2
 107 379 112 394 120 407 c 1
 66 414 27 452 27 508 c 0
 27 570 75 610 138 610 c 0
 201 610 249 570 249 508 c 0
 249 461 235 436 235 390 c 2
 235 192 l 2
 235 109 289 74 365 74 c 0
 441 74 494 109 494 192 c 2
 494 247 l 1
 471 245 447 244 423 244 c 0
 336 244 283 279 283 345 c 0
 283 394 320 425 370 425 c 0
EndSplineSet
PickledDataWithLists: "(dp0
Vcom.fontlab.hintData
p1
(dp2
Vvhints
p3
(lp4
(dp5
Vwidth
p6
L10L
sVposition
p7
L84L
sa(dp8
g6
L10L
sg7
L109L
sa(dp9
g6
L10L
sg7
L191L
sa(dp10
g6
L10L
sg7
L312L
sa(dp11
g6
L10L
sg7
L375L
sa(dp12
g6
L10L
sg7
L524L
sa(dp13
g6
L10L
sg7
L529L
sa(dp14
g6
L10L
sg7
L606L
sa(dp15
g6
L10L
sg7
L708L
sasVhhints
p16
(lp17
(dp18
g6
L10L
sg7
L-24L
sa(dp19
g6
L10L
sg7
L34L
sa(dp20
g6
L10L
sg7
L391L
sa(dp21
g6
L10L
sg7
L439L
sa(dp22
g6
L10L
sg7
L561L
sa(dp23
g6
L10L
sg7
L599L
sa(dp24
g6
L10L
sg7
L609L
sa(dp25
g6
L10L
sg7
L629L
sass."
EndChar

StartChar: uni0E2A
Encoding: 442 3626 172
GlifName: uni0E_2A_
Width: 650
VWidth: 0
GlyphClass: 2
Flags: HMW
LayerCount: 2
Fore
SplineSet
63 109 m 2
 63 198 l 2
 63 268 93 358 227 358 c 0
 228 358 228 358 229 358 c 0
 270 398 336 451 399 500 c 1
 376 517 343 525 305 525 c 0
 229 525 181 484 171 410 c 1
 43 420 l 1
 57 520 143 620 305 620 c 0
 373 620 431 603 475 574 c 1
 505 606 546 639 607 644 c 1
 628 533 l 1
 590 532 563 525 538 512 c 1
 558 481 568 445 568 405 c 2
 568 0 l 1
 440 0 l 1
 440 96 l 1
 423 164 342 272 235 272 c 0
 201 272 183 251 183 219 c 0
 183 209 181 200 178 193 c 1
 183 193 187 194 192 194 c 0
 255 194 303 154 303 92 c 0
 303 30 255 -10 192 -10 c 0
 118 -10 63 41 63 109 c 2
192 132 m 0
 168 132 154 115 154 92 c 0
 154 69 168 52 192 52 c 0
 216 52 230 69 230 92 c 0
 230 115 216 132 192 132 c 0
300 347 m 1
 360 328 406 288 440 243 c 1
 440 405 l 2
 440 422 438 438 434 451 c 1
 384 415 335 378 300 347 c 1
EndSplineSet
PickledDataWithLists: "(dp0
Vcom.fontlab.hintData
p1
(dp2
Vvhints
p3
(lp4
(dp5
Vwidth
p6
L10L
sVposition
p7
L54L
sa(dp8
g6
L10L
sg7
L94L
sa(dp9
g6
L10L
sg7
L136L
sa(dp10
g6
L10L
sg7
L176L
sa(dp11
g6
L10L
sg7
L504L
sa(dp12
g6
L10L
sg7
L586L
sa(dp13
g6
L10L
sg7
L616L
sasVhhints
p14
(lp15
(dp16
g6
L10L
sg7
L-14L
sa(dp17
g6
L10L
sg7
L-4L
sa(dp18
g6
L10L
sg7
L294L
sa(dp19
g6
L10L
sg7
L370L
sa(dp20
g6
L10L
sg7
L429L
sa(dp21
g6
L10L
sg7
L548L
sa(dp22
g6
L10L
sg7
L606L
sa(dp23
g6
L10L
sg7
L654L
sass."
EndChar

StartChar: uni0E2B
Encoding: 443 3627 173
GlifName: uni0E_2B_
Width: 660
VWidth: 0
GlyphClass: 2
Flags: HMW
LayerCount: 2
Fore
SplineSet
498 468 m 0
 522 468 536 485 536 508 c 0
 536 531 522 548 498 548 c 0
 474 548 460 531 460 508 c 0
 460 485 474 468 498 468 c 0
144 468 m 0
 168 468 182 485 182 508 c 0
 182 531 168 548 144 548 c 0
 120 548 106 531 106 508 c 0
 106 485 120 468 144 468 c 0
415 437 m 1
 397 455 387 479 387 508 c 0
 387 570 435 610 498 610 c 0
 561 610 609 570 609 508 c 0
 609 466 586 433 552 417 c 1
 572 403 588 385 588 360 c 2
 588 0 l 1
 460 0 l 1
 460 368 l 1
 353 335 255 207 241 81 c 1
 241 0 l 1
 113 0 l 1
 113 360 l 2
 113 379 118 394 126 407 c 1
 72 414 33 452 33 508 c 0
 33 570 81 610 144 610 c 0
 207 610 255 570 255 508 c 0
 255 461 241 436 241 390 c 2
 241 285 l 1
 284 351 343 408 415 437 c 1
EndSplineSet
PickledDataWithLists: "(dp0
Vcom.fontlab.hintData
p1
(dp2
Vvhints
p3
(lp4
(dp5
Vwidth
p6
L10L
sVposition
p7
L84L
sa(dp8
g6
L10L
sg7
L166L
sa(dp9
g6
L11L
sg7
L191L
sa(dp10
g6
L10L
sg7
L320L
sa(dp11
g6
L10L
sg7
L395L
sa(dp12
g6
L10L
sg7
L493L
sa(dp13
g6
L10L
sg7
L525L
sa(dp14
g6
L10L
sg7
L600L
sa(dp15
g6
L10L
sg7
L638L
sasVhhints
p16
(lp17
(dp18
g6
L10L
sg7
L-24L
sa(dp19
g6
L10L
sg7
L-12L
sa(dp20
g6
L10L
sg7
L553L
sa(dp21
g6
L10L
sg7
L589L
sa(dp22
g6
L10L
sg7
L602L
sass."
EndChar

StartChar: uni0E2C
Encoding: 444 3628 174
GlifName: uni0E_2C_
Width: 760
VWidth: 0
GlyphClass: 2
Flags: HMW
AnchorPoint: "ThaiBelow.mark" 720 0 basechar 0
AnchorPoint: "ThaiTone.mark" 720 0 basechar 0
AnchorPoint: "ThaiAbove.mark" 720 0 basechar 0
LayerCount: 2
Fore
SplineSet
533 268 m 2
 533 400 l 2
 533 414 537 426 542 436 c 1
 483 439 439 479 439 538 c 0
 439 600 487 640 550 640 c 0
 612 640 660 601 661 540 c 1
 671 561 676 589 679 629 c 1
 752 620 l 1
 742 536 707 491 658 463 c 1
 657 452 657 440 657 425 c 2
 657 0 l 1
 546 0 l 1
 384 337 l 1
 223 0 l 1
 112 0 l 1
 112 360 l 2
 112 379 117 395 125 407 c 1
 71 414 32 452 32 508 c 0
 32 570 80 610 143 610 c 0
 206 610 254 570 254 508 c 0
 254 460 236 436 236 388 c 2
 236 268 l 2
 236 247 233 221 230 199 c 1
 354 465 l 1
 384 465 l 1
 415 465 l 1
 539 197 l 1
 536 219 533 246 533 268 c 2
550 498 m 0
 574 498 588 515 588 538 c 0
 588 561 574 578 550 578 c 0
 526 578 512 561 512 538 c 0
 512 515 526 498 550 498 c 0
143 468 m 0
 167 468 181 485 181 508 c 0
 181 531 167 548 143 548 c 0
 119 548 105 531 105 508 c 0
 105 485 119 468 143 468 c 0
EndSplineSet
PickledDataWithLists: "(dp0
Vcom.fontlab.hintData
p1
(dp2
Vvhints
p3
(lp4
(dp5
Vwidth
p6
L10L
sVposition
p7
L58L
sa(dp8
g6
L10L
sg7
L104L
sa(dp9
g6
L10L
sg7
L185L
sa(dp10
g6
L10L
sg7
L367L
sa(dp11
g6
L10L
sg7
L430L
sa(dp12
g6
L10L
sg7
L587L
sa(dp13
g6
L10L
sg7
L661L
sa(dp14
g6
L10L
sg7
L760L
sasVhhints
p15
(lp16
(dp17
g6
L10L
sg7
L-18L
sa(dp18
g6
L10L
sg7
L-13L
sa(dp19
g6
L10L
sg7
L329L
sa(dp20
g6
L10L
sg7
L391L
sa(dp21
g6
L10L
sg7
L439L
sa(dp22
g6
L10L
sg7
L561L
sa(dp23
g6
L10L
sg7
L604L
sa(dp24
g6
L10L
sg7
L609L
sa(dp25
g6
L10L
sg7
L629L
sass."
EndChar

StartChar: uni0E2D
Encoding: 445 3629 175
GlifName: uni0E_2D_
Width: 635
VWidth: 0
GlyphClass: 2
Flags: HMW
LayerCount: 2
Fore
SplineSet
43 420 m 1
 57 520 143 620 305 620 c 0
 463 620 568 529 568 405 c 2
 568 188 l 2
 568 71 473 -20 321 -20 c 0
 169 -20 73 71 73 188 c 2
 73 258 l 2
 73 320 121 360 184 360 c 0
 247 360 295 320 295 258 c 0
 295 200 254 162 197 157 c 1
 211 100 263 75 321 75 c 0
 389 75 440 108 440 188 c 2
 440 405 l 2
 440 491 385 525 305 525 c 0
 229 525 181 484 171 410 c 1
 43 420 l 1
184 298 m 0
 160 298 146 281 146 258 c 0
 146 235 160 218 184 218 c 0
 208 218 222 235 222 258 c 0
 222 281 208 298 184 298 c 0
EndSplineSet
PickledDataWithLists: "(dp0
Vcom.fontlab.hintData
p1
(dp2
Vvhints
p3
(lp4
(dp5
Vwidth
p6
L10L
sVposition
p7
L50L
sa(dp8
g6
L10L
sg7
L61L
sa(dp9
g6
L10L
sg7
L149L
sa(dp10
g6
L10L
sg7
L289L
sa(dp11
g6
L10L
sg7
L481L
sa(dp12
g6
L10L
sg7
L569L
sasVhhints
p13
(lp14
(dp15
g6
L10L
sg7
L-19L
sa(dp16
g6
L10L
sg7
L43L
sa(dp17
g6
L10L
sg7
L215L
sa(dp18
g6
L10L
sg7
L230L
sa(dp19
g6
L10L
sg7
L292L
sa(dp20
g6
L10L
sg7
L414L
sa(dp21
g6
L9L
sg7
L549L
sa(dp22
g6
L10L
sg7
L611L
sass."
EndChar

StartChar: uni0E2E
Encoding: 446 3630 176
GlifName: uni0E_2E_
Width: 640
VWidth: 0
GlyphClass: 2
Flags: HMW
LayerCount: 2
Fore
SplineSet
178 298 m 0
 154 298 140 281 140 258 c 0
 140 235 154 218 178 218 c 0
 202 218 216 235 216 258 c 0
 216 281 202 298 178 298 c 0
178 360 m 0
 241 360 289 320 289 258 c 0
 289 200 248 162 191 157 c 1
 205 100 257 75 315 75 c 0
 383 75 434 108 434 188 c 2
 434 300 l 2
 434 362 443 377 443 413 c 1
 407 395 358 382 289 382 c 0
 147 382 47 424 47 487 c 0
 47 543 118 620 285 620 c 0
 386 620 449 582 483 549 c 1
 494 575 499 608 500 640 c 1
 612 630 l 1
 611 576 588 522 544 487 c 1
 554 468 562 440 562 414 c 2
 562 188 l 2
 562 71 467 -20 315 -20 c 0
 163 -20 67 71 67 188 c 2
 67 258 l 2
 67 320 115 360 178 360 c 0
167 487 m 0
 167 474 181 455 289 455 c 0
 351 455 395 466 424 483 c 1
 400 520 355 541 289 541 c 0
 204 541 167 515 167 487 c 0
EndSplineSet
PickledDataWithLists: "(dp0
Vcom.fontlab.hintData
p1
(dp2
Vvhints
p3
(lp4
(dp5
Vwidth
p6
L10L
sVposition
p7
L54L
sa(dp8
g6
L10L
sg7
L64L
sa(dp9
g6
L10L
sg7
L136L
sa(dp10
g6
L10L
sg7
L146L
sa(dp11
g6
L10L
sg7
L286L
sa(dp12
g6
L10L
sg7
L484L
sa(dp13
g6
L10L
sg7
L566L
sa(dp14
g6
L10L
sg7
L616L
sasVhhints
p15
(lp16
(dp17
g6
L10L
sg7
L-18L
sa(dp18
g6
L10L
sg7
L40L
sa(dp19
g6
L10L
sg7
L216L
sa(dp20
g6
L10L
sg7
L233L
sa(dp21
g6
L10L
sg7
L289L
sa(dp22
g6
L10L
sg7
L363L
sa(dp23
g6
L10L
sg7
L420L
sa(dp24
g6
L10L
sg7
L552L
sa(dp25
g6
L10L
sg7
L610L
sa(dp26
g6
L10L
sg7
L654L
sass."
EndChar

StartChar: uni0E2F
Encoding: 447 3631 177
GlifName: uni0E_2F_
Width: 495
VWidth: 0
GlyphClass: 2
Flags: HMW
LayerCount: 2
Fore
SplineSet
144 548 m 0
 120 548 106 531 106 508 c 0
 106 485 120 468 144 468 c 0
 168 468 182 485 182 508 c 0
 182 531 168 548 144 548 c 0
144 610 m 0
 207 610 255 570 255 508 c 0
 255 493 253 480 248 468 c 1
 302 492 332 540 347 594 c 1
 404 600 l 1
 426 580 428 538 428 473 c 2
 428 158 l 2
 428 35 288 -6 156 -20 c 1
 138 72 l 1
 262 86 300 106 300 158 c 2
 300 356 l 2
 300 396 315 415 323 444 c 1
 285 415 234 395 167 395 c 0
 86 395 33 441 33 508 c 0
 33 570 81 610 144 610 c 0
EndSplineSet
PickledDataWithLists: "(dp0
Vcom.fontlab.hintData
p1
(dp2
Vvhints
p3
(lp4
(dp5
Vwidth
p6
L10L
sVposition
p7
L31L
sa(dp8
g6
L10L
sg7
L119L
sa(dp9
g6
L10L
sg7
L153L
sa(dp10
g6
L10L
sg7
L356L
sa(dp11
g6
L10L
sg7
L356L
sa(dp12
g6
L10L
sg7
L434L
sa(dp13
g6
L10L
sg7
L439L
sasVhhints
p14
(lp15
(dp16
g6
L10L
sg7
L-16L
sa(dp17
g6
L10L
sg7
L394L
sa(dp18
g6
L10L
sg7
L456L
sa(dp19
g6
L10L
sg7
L589L
sa(dp20
g6
L10L
sg7
L596L
sass."
EndChar

StartChar: uni0E30
Encoding: 448 3632 178
GlifName: uni0E_30
Width: 540
VWidth: 0
GlyphClass: 2
Flags: HMW
LayerCount: 2
Fore
SplineSet
163 500 m 0
 139 500 125 483 125 460 c 0
 125 437 139 420 163 420 c 0
 187 420 201 437 201 460 c 0
 201 483 187 500 163 500 c 0
163 562 m 0
 226 562 274 522 274 460 c 0
 274 438 268 420 258 404 c 1
 261 404 263 404 265 404 c 2
 285 404 l 2
 346 404 378 461 379 542 c 1
 487 529 l 1
 486 425 421 339 289 339 c 2
 214 339 l 2
 108 339 52 392 52 460 c 0
 52 522 100 562 163 562 c 0
163 200 m 0
 139 200 125 183 125 160 c 0
 125 137 139 120 163 120 c 0
 187 120 201 137 201 160 c 0
 201 183 187 200 163 200 c 0
163 262 m 0
 226 262 274 222 274 160 c 0
 274 138 268 120 258 104 c 1
 261 104 263 104 265 104 c 2
 285 104 l 2
 346 104 378 161 379 242 c 1
 487 229 l 1
 486 125 421 39 289 39 c 2
 214 39 l 2
 108 39 52 92 52 160 c 0
 52 222 100 262 163 262 c 0
EndSplineSet
PickledDataWithLists: "(dp0
Vcom.fontlab.hintData
p1
(dp2
Vvhints
p3
(lp4
(dp5
Vwidth
p6
L10L
sVposition
p7
L51L
sa(dp8
g6
L10L
sg7
L60L
sa(dp9
g6
L10L
sg7
L139L
sa(dp10
g6
L10L
sg7
L144L
sa(dp11
g6
L10L
sg7
L154L
sa(dp12
g6
L10L
sg7
L450L
sasVhhints
p13
(lp14
(dp15
g6
L10L
sg7
L60L
sa(dp16
g6
L10L
sg7
L122L
sa(dp17
g6
L10L
sg7
L228L
sa(dp18
g6
L10L
sg7
L360L
sa(dp19
g6
L10L
sg7
L421L
sa(dp20
g6
L10L
sg7
L536L
sass."
EndChar

StartChar: uni0E31
Encoding: 449 3633 179
GlifName: uni0E_31
Width: 0
VWidth: 0
GlyphClass: 4
Flags: HMW
AnchorPoint: "ThaiExtendedAbove.mkmk" 0 0 basemark 0
AnchorPoint: "ThaiAbove.mark" 0 0 mark 0
LayerCount: 2
Fore
SplineSet
-270 843 m 0
 -290 843 -303 829 -303 810 c 0
 -303 791 -290 777 -270 777 c 0
 -250 777 -237 791 -237 810 c 0
 -237 829 -250 843 -270 843 c 0
-270 898 m 0
 -216 898 -175 864 -175 810 c 0
 -175 789 -181 772 -191 758 c 1
 -188 758 -185 758 -182 758 c 2
 -167 758 l 2
 -109 758 -65 785 -65 882 c 1
 30 872 l 1
 30 765 -44 698 -150 698 c 2
 -215 698 l 2
 -305 698 -365 739 -365 810 c 0
 -365 864 -324 898 -270 898 c 0
EndSplineSet
PickledDataWithLists: "(dp0
Vcom.fontlab.hintData
p1
(dp2
Vvhints
p3
(lp4
(dp5
Vwidth
p6
L10L
sVposition
p7
L-391L
sa(dp8
g6
L10L
sg7
L-313L
sa(dp9
g6
L10L
sg7
L-306L
sa(dp10
g6
L10L
sg7
L55L
sasVhhints
p11
(lp12
(dp13
g6
L10L
sg7
L717L
sa(dp14
g6
L10L
sg7
L772L
sa(dp15
g6
L10L
sg7
L882L
sa(dp16
g6
L10L
sg7
L952L
sass."
Substitution2: "Thai.sl subtable" uni0E31.sl
EndChar

StartChar: uni0E32
Encoding: 450 3634 180
GlifName: uni0E_32
Width: 485
VWidth: 0
GlyphClass: 2
Flags: HMW
LayerCount: 2
Fore
SplineSet
8 465 m 1
 19 538 82 620 210 620 c 0
 339 620 413 536 413 440 c 2
 413 0 l 1
 285 0 l 1
 285 440 l 2
 285 508 247 525 210 525 c 0
 172 525 144 505 136 455 c 1
 8 465 l 1
EndSplineSet
PickledDataWithLists: "(dp0
Vcom.fontlab.hintData
p1
(dp2
Vvhints
p3
(lp4
(dp5
Vwidth
p6
L10L
sVposition
p7
L15L
sa(dp8
g6
L10L
sg7
L291L
sa(dp9
g6
L10L
sg7
L312L
sa(dp10
g6
L10L
sg7
L379L
sa(dp11
g6
L10L
sg7
L400L
sasVhhints
p12
(lp13
(dp14
g6
L10L
sg7
L-25L
sa(dp15
g6
L10L
sg7
L399L
sa(dp16
g6
L10L
sg7
L545L
sa(dp17
g6
L10L
sg7
L606L
sass."
EndChar

StartChar: uni0E34
Encoding: 452 3636 182
GlifName: uni0E_34
Width: 0
VWidth: 0
GlyphClass: 4
Flags: HMW
AnchorPoint: "ThaiExtendedAbove.mkmk" 0 0 basemark 0
AnchorPoint: "ThaiAbove.mark" 0 0 mark 0
LayerCount: 2
Fore
SplineSet
-424 775 m 1
 -194 735 l 1
 -221 776 -269 826 -347 826 c 0
 -381 826 -412 811 -424 775 c 1
-97 688 m 1
 -107 670 l 1
 -532 737 l 1
 -532 812 -479 895 -351 895 c 0
 -169 895 -107 714 -97 688 c 1
EndSplineSet
PickledDataWithLists: "(dp0
Vcom.fontlab.hintData
p1
(dp2
Vvhints
p3
(lp4
(dp5
Vwidth
p6
L10L
sVposition
p7
L-534L
sa(dp8
g6
L10L
sg7
L-456L
sasVhhints
p9
(lp10
(dp11
g6
L10L
sg7
L682L
sa(dp12
g6
L9L
sg7
L871L
sa(dp13
g6
L10L
sg7
L919L
sass."
Substitution2: "Thai.sl subtable" uni0E34.sl
EndChar

StartChar: uni0E35
Encoding: 453 3637 183
GlifName: uni0E_35
Width: 0
VWidth: 0
GlyphClass: 4
Flags: HMW
AnchorPoint: "ThaiExtendedAbove.mkmk" 0 0 basemark 0
AnchorPoint: "ThaiAbove.mark" 0 0 mark 0
LayerCount: 2
Fore
SplineSet
-183 834 m 2
 -183 900 l 1
 -88 883 l 1
 -88 679 l 1
 -102 665 l 1
 -533 732 l 1
 -533 807 -480 890 -360 890 c 0
 -269 890 -209 834 -171 780 c 1
 -178 800 -183 819 -183 834 c 2
-425 770 m 1
 -177 727 l 1
 -207 769 -262 821 -348 821 c 0
 -382 821 -413 806 -425 770 c 1
EndSplineSet
PickledDataWithLists: "(dp0
Vcom.fontlab.hintData
p1
(dp2
Vvhints
p3
(lp4
(dp5
Vwidth
p6
L10L
sVposition
p7
L-530L
sa(dp8
g6
L10L
sg7
L-460L
sa(dp9
g6
L10L
sg7
L-189L
sa(dp10
g6
L10L
sg7
L-175L
sa(dp11
g6
L10L
sg7
L-116L
sasVhhints
p12
(lp13
(dp14
g6
L10L
sg7
L691L
sa(dp15
g6
L10L
sg7
L861L
sa(dp16
g6
L10L
sg7
L909L
sa(dp17
g6
L10L
sg7
L929L
sass."
Substitution2: "Thai.sl subtable" uni0E35.sl
EndChar

StartChar: uni0E36
Encoding: 454 3638 184
GlifName: uni0E_36
Width: 0
VWidth: 0
GlyphClass: 4
Flags: HMW
AnchorPoint: "ThaiExtendedAbove.mkmk" 0 0 basemark 0
AnchorPoint: "ThaiAbove.mark" 0 0 mark 0
LayerCount: 2
Fore
SplineSet
-179 825 m 0
 -203 825 -217 808 -217 785 c 0
 -217 762 -203 745 -179 745 c 0
 -155 745 -141 762 -141 785 c 0
 -141 808 -155 825 -179 825 c 0
-179 887 m 0
 -116 887 -68 847 -68 785 c 0
 -68 723 -116 683 -179 683 c 0
 -202 683 -223 688 -240 698 c 1
 -533 732 l 1
 -533 807 -481 890 -361 890 c 0
 -318 890 -287 876 -262 856 c 1
 -242 876 -212 887 -179 887 c 0
-288 806 m 1
 -303 815 -323 821 -348 821 c 0
 -382 821 -412 807 -424 771 c 1
 -285 752 l 1
 -288 762 -290 773 -290 785 c 0
 -290 792 -289 799 -288 806 c 1
EndSplineSet
PickledDataWithLists: "(dp0
Vcom.fontlab.hintData
p1
(dp2
Vvhints
p3
(lp4
(dp5
Vwidth
p6
L10L
sVposition
p7
L-544L
sa(dp8
g6
L10L
sg7
L-466L
sa(dp9
g6
L10L
sg7
L-208L
sa(dp10
g6
L10L
sg7
L-134L
sa(dp11
g6
L10L
sg7
L-84L
sasVhhints
p12
(lp13
(dp14
g6
L10L
sg7
L689L
sa(dp15
g6
L10L
sg7
L723L
sa(dp16
g6
L21L
sg7
L824L
sa(dp17
g6
L10L
sg7
L861L
sa(dp18
g6
L10L
sg7
L892L
sa(dp19
g6
L10L
sg7
L909L
sass."
Substitution2: "Thai.sl subtable" uni0E36.sl
EndChar

StartChar: uni0E37
Encoding: 455 3639 185
GlifName: uni0E_37
Width: 0
VWidth: 0
GlyphClass: 4
Flags: HMW
AnchorPoint: "ThaiExtendedAbove.mkmk" 0 0 basemark 0
AnchorPoint: "ThaiAbove.mark" 0 0 mark 0
LayerCount: 2
Fore
SplineSet
-283 883 m 2
 -283 925 l 1
 -205 908 l 1
 -205 731 l 1
 -156 722 l 1
 -162 734 -166 748 -166 763 c 2
 -166 900 l 1
 -88 883 l 1
 -88 679 l 1
 -101 665 l 1
 -533 731 l 1
 -533 806 -488 890 -370 890 c 0
 -330 890 -299 876 -276 856 c 1
 -280 866 -283 876 -283 883 c 2
-233 735 m 1
 -256 780 -299 821 -358 821 c 0
 -390 821 -416 806 -426 769 c 1
 -233 735 l 1
EndSplineSet
PickledDataWithLists: "(dp0
Vcom.fontlab.hintData
p1
(dp2
Vvhints
p3
(lp4
(dp5
Vwidth
p6
L10L
sVposition
p7
L-554L
sa(dp8
g6
L10L
sg7
L-476L
sa(dp9
g6
L10L
sg7
L-280L
sa(dp10
g6
L10L
sg7
L-218L
sa(dp11
g6
L10L
sg7
L-159L
sa(dp12
g6
L10L
sg7
L-148L
sa(dp13
g6
L10L
sg7
L-100L
sasVhhints
p14
(lp15
(dp16
g6
L10L
sg7
L698L
sa(dp17
g6
L10L
sg7
L861L
sa(dp18
g6
L10L
sg7
L909L
sa(dp19
g6
L10L
sg7
L922L
sa(dp20
g6
L10L
sg7
L932L
sass."
Substitution2: "Thai.sl subtable" uni0E37.sl
EndChar

StartChar: uni0E38
Encoding: 456 3640 186
GlifName: uni0E_38
Width: 0
VWidth: 0
GlyphClass: 4
Flags: HMW
AnchorPoint: "ThaiExtendedBelow.mkmk" 0 0 mark 0
AnchorPoint: "ThaiExtendedBelow.mkmk" 0 -280 basemark 0
AnchorPoint: "ThaiBelow.mark" 0 0 mark 0
LayerCount: 2
Fore
SplineSet
-180 -117 m 0
 -200 -117 -213 -131 -213 -150 c 0
 -213 -169 -200 -183 -180 -183 c 0
 -160 -183 -147 -169 -147 -150 c 0
 -147 -131 -160 -117 -180 -117 c 0
-178 -305 m 1
 -178 -260 l 2
 -178 -251 -175 -245 -172 -238 c 1
 -174 -238 -177 -238 -180 -238 c 0
 -234 -238 -275 -204 -275 -150 c 0
 -275 -96 -234 -62 -180 -62 c 0
 -126 -62 -85 -96 -85 -150 c 0
 -85 -192 -91 -206 -91 -242 c 2
 -91 -305 l 1
 -178 -305 l 1
EndSplineSet
PickledDataWithLists: "(dp0
Vcom.fontlab.hintData
p1
(dp2
Vvhints
p3
(lp4
(dp5
Vwidth
p6
L10L
sVposition
p7
L-285L
sa(dp8
g6
L10L
sg7
L-185L
sa(dp9
g6
L10L
sg7
L-104L
sasVhhints
p10
(lp11
(dp12
g6
L10L
sg7
L-322L
sa(dp13
g6
L10L
sg7
L-172L
sa(dp14
g6
L10L
sg7
L-98L
sass."
Substitution2: "ThaiBV.sd subtable" uni0E38.sd
EndChar

StartChar: uni0E39
Encoding: 457 3641 187
GlifName: uni0E_39
Width: 0
VWidth: 0
GlyphClass: 4
Flags: HMW
AnchorPoint: "ThaiExtendedBelow.mkmk" 0 0 mark 0
AnchorPoint: "ThaiExtendedBelow.mkmk" 0 -280 basemark 0
AnchorPoint: "ThaiBelow.mark" -30 0 mark 0
LayerCount: 2
Fore
SplineSet
-340 -117 m 0
 -360 -117 -373 -131 -373 -150 c 0
 -373 -169 -360 -183 -340 -183 c 0
 -320 -183 -307 -169 -307 -150 c 0
 -307 -131 -320 -117 -340 -117 c 0
-245 -150 m 0
 -245 -186 -255 -197 -255 -217 c 2
 -255 -230 l 2
 -255 -242 -247 -253 -214 -253 c 0
 -181 -253 -173 -242 -173 -230 c 2
 -173 -69 l 1
 -86 -69 l 1
 -86 -238 l 2
 -86 -284 -138 -310 -214 -310 c 0
 -290 -310 -337 -293 -337 -247 c 2
 -337 -238 l 2
 -338 -238 -339 -238 -340 -238 c 0
 -394 -238 -435 -204 -435 -150 c 0
 -435 -96 -394 -62 -340 -62 c 0
 -286 -62 -245 -96 -245 -150 c 0
EndSplineSet
PickledDataWithLists: "(dp0
Vcom.fontlab.hintData
p1
(dp2
Vvhints
p3
(lp4
(dp5
Vwidth
p6
L10L
sVposition
p7
L-401L
sa(dp8
g6
L10L
sg7
L-115L
sasVhhints
p9
(lp10
(dp11
g6
L10L
sg7
L-331L
sa(dp12
g6
L21L
sg7
L-267L
sa(dp13
g6
L10L
sg7
L-154L
sa(dp14
g6
L10L
sg7
L-106L
sass."
Substitution2: "ThaiBV.sd subtable" uni0E39.sd
EndChar

StartChar: uni0E3A
Encoding: 458 3642 188
GlifName: uni0E_3A_
Width: 0
VWidth: 0
GlyphClass: 4
Flags: HMW
AnchorPoint: "ThaiExtendedBelow.mkmk" 0 0 mark 0
AnchorPoint: "ThaiExtendedBelow.mkmk" 0 -210 basemark 0
AnchorPoint: "ThaiBelow.mark" 0 0 mark 0
LayerCount: 2
Fore
SplineSet
-150 -69 m 0
 -100 -69 -62 -100 -62 -150 c 0
 -62 -200 -100 -231 -150 -231 c 0
 -200 -231 -238 -200 -238 -150 c 0
 -238 -100 -200 -69 -150 -69 c 0
EndSplineSet
PickledDataWithLists: "(dp0
Vcom.fontlab.hintData
p1
(dp2
Vvhints
p3
(lp4
(dp5
Vwidth
p6
L10L
sVposition
p7
L-229L
sa(dp8
g6
L10L
sg7
L-81L
sasVhhints
p9
(lp10
(dp11
g6
L10L
sg7
L-231L
sa(dp12
g6
L10L
sg7
L-110L
sass."
Substitution2: "ThaiBV.sd subtable" uni0E3A.sd
EndChar

StartChar: uni0E3F
Encoding: 459 3647 189
GlifName: uni0E_3F_
Width: 720
VWidth: 0
GlyphClass: 2
Flags: HMW
LayerCount: 2
Fore
SplineSet
330 457 m 1
 385 464 442 500 442 579 c 0
 442 655 382 687 286 687 c 0
 260 687 238 686 220 685 c 1
 220 455 l 1
 252 456 289 457 330 457 c 1
487 436 m 1
 593 404 658 335 658 230 c 0
 658 95 549 10 386 -6 c 1
 386 -120 l 1
 283 -120 l 1
 283 -9 l 1
 175 -7 91 -1 83 0 c 1
 83 780 l 1
 91 781 176 788 283 789 c 1
 283 900 l 1
 386 900 l 1
 386 782 l 1
 500 761 583 695 583 591 c 0
 583 516 543 467 487 436 c 1
220 97 m 1
 245 96 278 94 314 94 c 0
 425 94 516 125 516 230 c 0
 516 335 425 362 314 362 c 0
 278 362 245 360 220 359 c 1
 220 97 l 1
EndSplineSet
PickledDataWithLists: "(dp0
Vcom.fontlab.hintData
p1
(dp2
Vvhints
p3
(lp4
(dp5
Vwidth
p6
L10L
sVposition
p7
L26L
sa(dp8
g6
L10L
sg7
L116L
sa(dp9
g6
L10L
sg7
L121L
sa(dp10
g6
L10L
sg7
L223L
sa(dp11
g6
L10L
sg7
L343L
sa(dp12
g6
L10L
sg7
L350L
sa(dp13
g6
L10L
sg7
L407L
sa(dp14
g6
L10L
sg7
L412L
sa(dp15
g6
L10L
sg7
L537L
sa(dp16
g6
L10L
sg7
L636L
sa(dp17
g6
L10L
sg7
L735L
sasVhhints
p18
(lp19
(dp20
g6
L10L
sg7
L-127L
sa(dp21
g6
L10L
sg7
L-22L
sa(dp22
g6
L10L
sg7
L49L
sa(dp23
g6
L10L
sg7
L395L
sa(dp24
g6
L10L
sg7
L634L
sa(dp25
g6
L10L
sg7
L661L
sa(dp26
g6
L10L
sg7
L916L
sass."
EndChar

StartChar: uni0E40
Encoding: 460 3648 190
GlifName: uni0E_40
Width: 330
VWidth: 0
GlyphClass: 2
Flags: HMW
LayerCount: 2
Fore
SplineSet
193 132 m 0
 169 132 155 115 155 92 c 0
 155 69 169 52 193 52 c 0
 217 52 231 69 231 92 c 0
 231 115 217 132 193 132 c 0
82 92 m 0
 82 139 93 164 93 210 c 2
 93 600 l 1
 221 600 l 1
 221 240 l 2
 221 221 216 206 209 193 c 1
 264 187 304 149 304 92 c 0
 304 30 256 -10 193 -10 c 0
 130 -10 82 30 82 92 c 0
EndSplineSet
PickledDataWithLists: "(dp0
Vcom.fontlab.hintData
p1
(dp2
Vvhints
p3
(lp4
(dp5
Vwidth
p6
L10L
sVposition
p7
L116L
sa(dp8
g6
L10L
sg7
L121L
sa(dp9
g6
L10L
sg7
L204L
sa(dp10
g6
L10L
sg7
L209L
sa(dp11
g6
L10L
sg7
L244L
sasVhhints
p12
(lp13
(dp14
g6
L10L
sg7
L-30L
sa(dp15
g6
L10L
sg7
L586L
sass."
EndChar

StartChar: uni0E42
Encoding: 462 3650 192
GlifName: uni0E_42
Width: 380
VWidth: 0
GlyphClass: 2
Flags: HMW
LayerCount: 2
Fore
SplineSet
238 132 m 0
 214 132 200 115 200 92 c 0
 200 69 214 52 238 52 c 0
 262 52 276 69 276 92 c 0
 276 115 262 132 238 132 c 0
127 92 m 0
 127 139 138 164 138 210 c 2
 138 610 l 2
 138 683 113 703 -3 703 c 1
 -3 733 l 2
 -3 833 66 914 189 914 c 0
 249 914 292 887 322 860 c 1
 324 865 326 869 328 873 c 2
 347 908 l 1
 442 890 l 1
 442 884 l 1
 352 772 l 1
 313 772 l 1
 297 794 266 828 206 828 c 0
 161 828 124 805 117 753 c 1
 218 739 266 700 266 610 c 2
 266 240 l 2
 266 221 261 206 254 193 c 1
 309 187 349 149 349 92 c 0
 349 30 301 -10 238 -10 c 0
 175 -10 127 30 127 92 c 0
EndSplineSet
PickledDataWithLists: "(dp0
Vcom.fontlab.hintData
p1
(dp2
Vvhints
p3
(lp4
(dp5
Vwidth
p6
L10L
sVposition
p7
L37L
sa(dp8
g6
L10L
sg7
L165L
sa(dp9
g6
L10L
sg7
L175L
sa(dp10
g6
L10L
sg7
L248L
sa(dp11
g6
L10L
sg7
L257L
sa(dp12
g6
L10L
sg7
L268L
sa(dp13
g6
L10L
sg7
L517L
sasVhhints
p14
(lp15
(dp16
g6
L10L
sg7
L-29L
sa(dp17
g6
L10L
sg7
L924L
sa(dp18
g6
L10L
sg7
L984L
sass."
EndChar

StartChar: uni0E43
Encoding: 463 3651 193
GlifName: uni0E_43
Width: 380
VWidth: 0
GlyphClass: 2
Flags: HMW
LayerCount: 2
Fore
SplineSet
111 812 m 0
 87 812 73 795 73 772 c 0
 73 749 87 732 111 732 c 0
 135 732 149 749 149 772 c 0
 149 795 135 812 111 812 c 0
238 132 m 0
 214 132 200 115 200 92 c 0
 200 69 214 52 238 52 c 0
 262 52 276 69 276 92 c 0
 276 115 262 132 238 132 c 0
127 92 m 0
 127 139 138 164 138 210 c 2
 138 510 l 2
 138 639 281 662 281 768 c 0
 281 818 247 846 187 849 c 1
 209 831 222 804 222 772 c 0
 222 710 174 670 111 670 c 0
 48 670 0 710 0 772 c 0
 0 847 66 914 187 914 c 0
 307 914 375 850 375 760 c 0
 375 639 266 619 266 510 c 2
 266 240 l 2
 266 221 261 206 254 193 c 1
 309 187 349 149 349 92 c 0
 349 30 301 -10 238 -10 c 0
 175 -10 127 30 127 92 c 0
EndSplineSet
PickledDataWithLists: "(dp0
Vcom.fontlab.hintData
p1
(dp2
Vvhints
p3
(lp4
(dp5
Vwidth
p6
L10L
sVposition
p7
L1L
sa(dp8
g6
L10L
sg7
L82L
sa(dp9
g6
L10L
sg7
L189L
sa(dp10
g6
L10L
sg7
L232L
sa(dp11
g6
L10L
sg7
L270L
sa(dp12
g6
L10L
sg7
L279L
sa(dp13
g6
L10L
sg7
L311L
sasVhhints
p14
(lp15
(dp16
g6
L10L
sg7
L-24L
sa(dp17
g6
L10L
sg7
L642L
sa(dp18
g6
L10L
sg7
L948L
sa(dp19
g6
L10L
sg7
L1002L
sass."
EndChar

StartChar: uni0E44
Encoding: 464 3652 194
GlifName: uni0E_44
Width: 380
VWidth: 0
GlyphClass: 2
Flags: HMW
LayerCount: 2
Fore
SplineSet
238 132 m 0
 214 132 200 115 200 92 c 0
 200 69 214 52 238 52 c 0
 262 52 276 69 276 92 c 0
 276 115 262 132 238 132 c 0
-3 881 m 1
 -3 886 l 1
 83 910 l 1
 124 835 l 2
 132 819 138 802 144 786 c 1
 156 807 171 830 183 849 c 0
 195 868 218 910 284 910 c 0
 358 910 382 858 382 824 c 0
 382 727 266 657 266 515 c 2
 266 240 l 2
 266 221 261 206 254 193 c 1
 309 187 349 149 349 92 c 0
 349 30 301 -10 238 -10 c 0
 175 -10 127 30 127 92 c 0
 127 139 138 164 138 210 c 2
 138 515 l 2
 138 630 293 766 293 820 c 0
 293 830 286 844 272 844 c 1
 260 836 240 806 237 802 c 0
 232 794 161 695 161 695 c 1
 113 695 l 1
 -3 881 l 1
EndSplineSet
PickledDataWithLists: "(dp0
Vcom.fontlab.hintData
p1
(dp2
Vvhints
p3
(lp4
(dp5
Vwidth
p6
L10L
sVposition
p7
L-47L
sa(dp8
g6
L10L
sg7
L152L
sa(dp9
g6
L10L
sg7
L234L
sa(dp10
g6
L10L
sg7
L415L
sasVhhints
p11
(lp12
(dp13
g6
L10L
sg7
L-28L
sa(dp14
g6
L10L
sg7
L849L
sa(dp15
g6
L10L
sg7
L906L
sa(dp16
g6
L10L
sg7
L1003L
sass."
EndChar

StartChar: uni0E45
Encoding: 465 3653 195
GlifName: uni0E_45
Width: 485
VWidth: 0
GlyphClass: 2
Flags: HMW
LayerCount: 2
Fore
SplineSet
8 465 m 1
 19 538 82 620 210 620 c 0
 339 620 413 536 413 440 c 2
 413 -210 l 1
 285 -210 l 1
 285 440 l 2
 285 508 247 525 210 525 c 0
 172 525 144 505 136 455 c 1
 8 465 l 1
EndSplineSet
PickledDataWithLists: "(dp0
Vcom.fontlab.hintData
p1
(dp2
Vvhints
p3
(lp4
(dp5
Vwidth
p6
L10L
sVposition
p7
L15L
sa(dp8
g6
L10L
sg7
L291L
sa(dp9
g6
L10L
sg7
L312L
sa(dp10
g6
L10L
sg7
L379L
sa(dp11
g6
L10L
sg7
L400L
sasVhhints
p12
(lp13
(dp14
g6
L10L
sg7
L-245L
sa(dp15
g6
L10L
sg7
L399L
sa(dp16
g6
L10L
sg7
L545L
sa(dp17
g6
L10L
sg7
L606L
sass."
EndChar

StartChar: uni0E46
Encoding: 466 3654 196
GlifName: uni0E_46
Width: 590
VWidth: 0
Flags: HMW
LayerCount: 2
Fore
SplineSet
205 360 m 0
 181 360 167 343 167 320 c 0
 167 297 181 280 205 280 c 0
 229 280 243 297 243 320 c 0
 243 343 229 360 205 360 c 0
205 422 m 0
 268 422 316 382 316 320 c 0
 316 258 268 218 205 218 c 0
 100 218 42 305 42 406 c 0
 42 553 135 611 186 614 c 1
 280 536 l 1
 373 614 l 1
 424 611 517 552 517 405 c 2
 517 -210 l 1
 388 -210 l 1
 388 405 l 2
 388 448 378 480 359 503 c 1
 289 450 l 1
 280 450 l 1
 271 450 l 1
 186 515 l 1
 161 491 145 458 145 408 c 1
 162 417 183 422 205 422 c 0
EndSplineSet
PickledDataWithLists: "(dp0
Vcom.fontlab.hintData
p1
(dp2
Vvhints
p3
(lp4
(dp5
Vwidth
p6
L10L
sVposition
p7
L54L
sa(dp8
g6
L10L
sg7
L136L
sa(dp9
g6
L10L
sg7
L262L
sa(dp10
g6
L10L
sg7
L434L
sa(dp11
g6
L10L
sg7
L444L
sa(dp12
g6
L10L
sg7
L516L
sa(dp13
g6
L10L
sg7
L526L
sasVhhints
p14
(lp15
(dp16
g6
L10L
sg7
L-244L
sa(dp17
g6
L10L
sg7
L216L
sa(dp18
g6
L10L
sg7
L274L
sa(dp19
g6
L10L
sg7
L390L
sa(dp20
g6
L10L
sg7
L536L
sa(dp21
g6
L10L
sg7
L588L
sa(dp22
g6
L10L
sg7
L594L
sass."
EndChar

StartChar: uni0E47
Encoding: 467 3655 197
GlifName: uni0E_47
Width: 0
VWidth: 0
GlyphClass: 4
Flags: HMW
AnchorPoint: "ThaiExtendedAbove.mkmk" -80 0 basemark 0
AnchorPoint: "ThaiAbove.mark" 0 0 mark 0
LayerCount: 2
Fore
SplineSet
-172 773 m 0
 -190 773 -202 761 -202 743 c 0
 -202 725 -190 713 -172 713 c 0
 -154 713 -142 725 -142 743 c 0
 -142 761 -154 773 -172 773 c 0
-172 823 m 0
 -122 823 -85 792 -85 743 c 0
 -85 694 -122 663 -172 663 c 0
 -218 663 -252 689 -258 731 c 1
 -298 668 l 1
 -388 668 -445 708 -445 785 c 0
 -445 862 -388 902 -298 902 c 2
 -189 902 l 2
 -152 902 -119 907 -96 926 c 1
 -65 869 l 1
 -98 845 -140 841 -185 841 c 2
 -298 841 l 2
 -345 841 -367 821 -367 785 c 0
 -367 756 -353 737 -324 731 c 1
 -283 795 l 1
 -274 795 l 1
 -251 779 l 1
 -238 807 -208 823 -172 823 c 0
EndSplineSet
PickledDataWithLists: "(dp0
Vcom.fontlab.hintData
p1
(dp2
Vvhints
p3
(lp4
(dp5
Vwidth
p6
L10L
sVposition
p7
L-460L
sa(dp8
g6
L10L
sg7
L-390L
sa(dp9
g6
L10L
sg7
L-265L
sa(dp10
g6
L10L
sg7
L-100L
sa(dp11
g6
L10L
sg7
L-71L
sasVhhints
p12
(lp13
(dp14
g6
L10L
sg7
L691L
sa(dp15
g6
L10L
sg7
L739L
sa(dp16
g6
L10L
sg7
L806L
sa(dp17
g6
L10L
sg7
L861L
sa(dp18
g6
L10L
sg7
L909L
sa(dp19
g6
L10L
sg7
L929L
sass."
Substitution2: "Thai.sul subtable" uni0E47.sul
Substitution2: "Thai.su subtable" uni0E47.su
Substitution2: "Thai.sl subtable" uni0E47.sl
EndChar

StartChar: uni0E48
Encoding: 468 3656 198
GlifName: uni0E_48
Width: 0
VWidth: 0
GlyphClass: 4
Flags: HMW
AnchorPoint: "ThaiExtendedAbove.mkmk" 0 0 mark 0
AnchorPoint: "ThaiExtendedAbove.mkmk" 0 240 basemark 0
LayerCount: 2
Fore
SplineSet
-183 960 m 1
 -183 1135 l 1
 -88 1135 l 1
 -88 943 l 1
 -183 960 l 1
EndSplineSet
PickledDataWithLists: "(dp0
Vcom.fontlab.hintData
p1
(dp2
Vvhints
p3
(lp4
(dp5
Vwidth
p6
L10L
sVposition
p7
L-127L
sasVhhints
p8
(lp9
(dp10
g6
L10L
sg7
L985L
sa(dp11
g6
L10L
sg7
L1197L
sass."
Substitution2: "Thai.sl subtable" uni0E48.sl
Substitution2: "Thai.sdl subtable" uni0E48.sdl
Substitution2: "Thai.sd subtable" uni0E48.sd
Substitution2: "ThaiT.0E4D subtable" uni0E4D
EndChar

StartChar: uni0E49
Encoding: 469 3657 199
GlifName: uni0E_49
Width: 0
VWidth: 0
GlyphClass: 4
Flags: HMW
AnchorPoint: "ThaiExtendedAbove.mkmk" 0 0 mark 0
AnchorPoint: "ThaiExtendedAbove.mkmk" 0 240 basemark 0
LayerCount: 2
Fore
SplineSet
-282 1090 m 0
 -296 1090 -303 1081 -303 1067 c 0
 -303 1053 -296 1044 -282 1044 c 0
 -268 1044 -261 1053 -261 1067 c 0
 -261 1081 -268 1090 -282 1090 c 0
-250 963 m 2
 -250 969 -250 975 -250 980 c 0
 -250 993 -250 1004 -251 1015 c 1
 -260 1011 -271 1008 -282 1008 c 0
 -318 1008 -345 1031 -345 1067 c 0
 -345 1103 -318 1126 -282 1126 c 0
 -229 1126 -201 1091 -196 1042 c 0
 -194 1026 -193 1013 -193 1001 c 1
 -155 1012 -127 1043 -126 1125 c 1
 -35 1113 l 1
 -36 1006 -109 950 -226 950 c 2
 -250 950 l 1
 -250 963 l 2
EndSplineSet
PickledDataWithLists: "(dp0
Vcom.fontlab.hintData
p1
(dp2
Vvhints
p3
(lp4
(dp5
Vwidth
p6
L10L
sVposition
p7
L-309L
sa(dp8
g6
L10L
sg7
L-263L
sa(dp9
g6
L10L
sg7
L-247L
sa(dp10
g6
L10L
sg7
L-188L
sa(dp11
g6
L10L
sg7
L7L
sasVhhints
p12
(lp13
(dp14
g6
L10L
sg7
L990L
sa(dp15
g6
L10L
sg7
L1197L
sass."
Substitution2: "Thai.sl subtable" uni0E49.sl
Substitution2: "Thai.sdl subtable" uni0E49.sdl
Substitution2: "Thai.sd subtable" uni0E49.sd
Substitution2: "ThaiT.0E4D subtable" uni0E4D
EndChar

StartChar: uni0E4A
Encoding: 470 3658 200
GlifName: uni0E_4A_
Width: 0
VWidth: 0
GlyphClass: 4
Flags: HMW
AnchorPoint: "ThaiExtendedAbove.mkmk" 0 0 mark 0
AnchorPoint: "ThaiExtendedAbove.mkmk" 0 240 basemark 0
LayerCount: 2
Fore
SplineSet
-229 1025 m 0
 -243 1025 -250 1016 -250 1002 c 0
 -250 988 -243 979 -229 979 c 0
 -215 979 -208 988 -208 1002 c 0
 -208 1016 -215 1025 -229 1025 c 0
-229 1061 m 0
 -193 1061 -166 1038 -166 1002 c 0
 -166 966 -193 943 -229 943 c 0
 -297 943 -315 992 -315 1032 c 0
 -315 1108 -255 1132 -234 1133 c 1
 -184 1106 l 1
 -134 1133 l 1
 -113 1132 -61 1108 -61 1032 c 0
 -61 1029 -61 1027 -61 1025 c 1
 -50 1048 -44 1076 -40 1108 c 1
 25 1095 l 1
 15 1017 -39 948 -139 945 c 1
 -148 979 l 1
 -128 992 -118 1006 -118 1032 c 0
 -118 1060 -129 1074 -141 1083 c 1
 -181 1062 l 1
 -184 1062 l 1
 -187 1062 l 1
 -230 1084 l 1
 -238 1079 -246 1071 -250 1058 c 1
 -243 1060 -236 1061 -229 1061 c 0
EndSplineSet
PickledDataWithLists: "(dp0
Vcom.fontlab.hintData
p1
(dp2
Vvhints
p3
(lp4
(dp5
Vwidth
p6
L10L
sVposition
p7
L-365L
sa(dp8
g6
L10L
sg7
L-305L
sa(dp9
g6
L10L
sg7
L-243L
sa(dp10
g6
L10L
sg7
L-152L
sa(dp11
g6
L10L
sg7
L-130L
sa(dp12
g6
L10L
sg7
L-79L
sa(dp13
g6
L10L
sg7
L24L
sasVhhints
p14
(lp15
(dp16
g6
L10L
sg7
L980L
sa(dp17
g6
L10L
sg7
L1097L
sa(dp18
g6
L10L
sg7
L1185L
sa(dp19
g6
L10L
sg7
L1195L
sass."
Substitution2: "Thai.sl subtable" uni0E4A.sl
Substitution2: "Thai.sdl subtable" uni0E4A.sdl
Substitution2: "Thai.sd subtable" uni0E4A.sd
Substitution2: "ThaiT.0E4D subtable" uni0E4D
EndChar

StartChar: uni0E4B
Encoding: 471 3659 201
GlifName: uni0E_4B_
Width: 0
VWidth: 0
GlyphClass: 4
Flags: HMW
AnchorPoint: "ThaiExtendedAbove.mkmk" 0 0 mark 0
AnchorPoint: "ThaiExtendedAbove.mkmk" 0 240 basemark 0
LayerCount: 2
Fore
SplineSet
-265 1015 m 1
 -265 1068 l 1
 -179 1068 l 1
 -179 1135 l 1
 -92 1135 l 1
 -92 1068 l 1
 -5 1068 l 1
 -5 1015 l 1
 -92 1015 l 1
 -92 943 l 1
 -179 960 l 1
 -179 1015 l 1
 -265 1015 l 1
EndSplineSet
PickledDataWithLists: "(dp0
Vcom.fontlab.hintData
p1
(dp2
Vvhints
p3
(lp4
(dp5
Vwidth
p6
L10L
sVposition
p7
L-193L
sa(dp8
g6
L10L
sg7
L-131L
sa(dp9
g6
L10L
sg7
L-23L
sasVhhints
p10
(lp11
(dp12
g6
L10L
sg7
L985L
sa(dp13
g6
L10L
sg7
L1073L
sa(dp14
g6
L10L
sg7
L1078L
sa(dp15
g6
L10L
sg7
L1117L
sa(dp16
g6
L10L
sg7
L1122L
sa(dp17
g6
L10L
sg7
L1207L
sass."
Substitution2: "Thai.sl subtable" uni0E4B.sl
Substitution2: "Thai.sdl subtable" uni0E4B.sdl
Substitution2: "Thai.sd subtable" uni0E4B.sd
Substitution2: "ThaiT.0E4D subtable" uni0E4D
EndChar

StartChar: uni0E4C
Encoding: 472 3660 202
GlifName: uni0E_4C_
Width: 0
VWidth: 0
GlyphClass: 4
Flags: HMW
AnchorPoint: "ThaiExtendedAbove.mkmk" 0 0 mark 0
AnchorPoint: "ThaiExtendedAbove.mkmk" 0 240 basemark 0
LayerCount: 2
Fore
SplineSet
-180 1060 m 0
 -200 1060 -213 1046 -213 1027 c 0
 -213 1008 -200 994 -180 994 c 0
 -160 994 -147 1008 -147 1027 c 0
 -147 1046 -160 1060 -180 1060 c 0
-275 1027 m 0
 -275 1079 -245 1121 -179 1121 c 2
 -150 1121 l 2
 -102 1121 -81 1135 -81 1179 c 1
 10 1168 l 1
 10 1117 -26 1079 -96 1071 c 1
 -89 1059 -85 1044 -85 1027 c 0
 -85 973 -126 939 -180 939 c 0
 -234 939 -275 973 -275 1027 c 0
EndSplineSet
PickledDataWithLists: "(dp0
Vcom.fontlab.hintData
p1
(dp2
Vvhints
p3
(lp4
(dp5
Vwidth
p6
L10L
sVposition
p7
L-277L
sa(dp8
g6
L10L
sg7
L-200L
sa(dp9
g6
L10L
sg7
L-185L
sa(dp10
g6
L10L
sg7
L-10L
sasVhhints
p11
(lp12
(dp13
g6
L10L
sg7
L978L
sa(dp14
g6
L10L
sg7
L1212L
sass."
Substitution2: "Thai.sl subtable" uni0E4C.sl
Substitution2: "Thai.sdl subtable" uni0E4C.sdl
Substitution2: "Thai.sd subtable" uni0E4C.sd
Substitution2: "ThaiT.0E4D subtable" uni0E4D
EndChar

StartChar: uni0E4D
Encoding: 473 3661 203
GlifName: uni0E_4D_
Width: 0
VWidth: 0
GlyphClass: 4
Flags: HMW
AnchorPoint: "ThaiExtendedAbove.mkmk" 0 0 basemark 0
AnchorPoint: "ThaiAbove.mark" 0 0 mark 0
LayerCount: 2
Fore
SplineSet
-180 882 m 0
 -117 882 -69 842 -69 780 c 0
 -69 718 -117 678 -180 678 c 0
 -243 678 -291 718 -291 780 c 0
 -291 842 -243 882 -180 882 c 0
-180 820 m 0
 -204 820 -218 803 -218 780 c 0
 -218 757 -204 740 -180 740 c 0
 -156 740 -142 757 -142 780 c 0
 -142 803 -156 820 -180 820 c 0
EndSplineSet
PickledDataWithLists: "(dp0
Vcom.fontlab.hintData
p1
(dp2
Vvhints
p3
(lp4
(dp5
Vwidth
p6
L10L
sVposition
p7
L-282L
sa(dp8
g6
L10L
sg7
L-218L
sa(dp9
g6
L10L
sg7
L-122L
sa(dp10
g6
L10L
sg7
L-58L
sasVhhints
p11
(lp12
(dp13
g6
L10L
sg7
L703L
sa(dp14
g6
L10L
sg7
L747L
sa(dp15
g6
L10L
sg7
L863L
sa(dp16
g6
L10L
sg7
L907L
sass."
Substitution2: "Thai.sul subtable" uni0E4D.sul
Substitution2: "Thai.su subtable" uni0E4D.su
Substitution2: "Thai.sl subtable" uni0E4D.sl
Substitution2: "Thai0E4D.0E4B subtable" uni0E4B
Substitution2: "Thai0E4D.0E4A subtable" uni0E4A
Substitution2: "Thai0E4D.0E49 subtable" uni0E49
Substitution2: "Thai0E4D.0E48 subtable" uni0E48
EndChar

StartChar: uni0E4E
Encoding: 474 3662 204
GlifName: uni0E_4E_
Width: 0
VWidth: 0
GlyphClass: 4
Flags: HMW
AnchorPoint: "ThaiExtendedAbove.mkmk" 0 -240 mark 0
AnchorPoint: "ThaiAbove.mark" 0 0 mark 0
LayerCount: 2
Fore
SplineSet
-365 760 m 0
 -365 800 -333 842 -271 842 c 0
 -268 842 -265 841 -262 841 c 1
 -261 881 -237 925 -176 925 c 0
 -146 925 -119 912 -101 894 c 2
 -65 855 l 1
 -110 815 l 1
 -157 862 l 2
 -167 872 -174 873 -176 873 c 0
 -182 873 -203 864 -203 840 c 0
 -203 829 -200 820 -194 812 c 2
 -159 775 l 1
 -205 735 l 1
 -252 782 l 2
 -262 792 -269 792 -271 792 c 0
 -277 792 -295 784 -295 760 c 0
 -295 749 -291 738 -281 728 c 2
 -243 691 l 1
 -290 650 l 1
 -337 697 l 2
 -355 715 -365 739 -365 760 c 0
EndSplineSet
PickledDataWithLists: "(dp0
Vcom.fontlab.hintData
p1
(dp2
Vvhints
p3
(lp4
(dp5
Vwidth
p6
L10L
sVposition
p7
L-400L
sa(dp8
g6
L10L
sg7
L-363L
sa(dp9
g6
L10L
sg7
L-335L
sa(dp10
g6
L10L
sg7
L-298L
sa(dp11
g6
L10L
sg7
L-211L
sa(dp12
g6
L10L
sg7
L-192L
sa(dp13
g6
L10L
sg7
L-141L
sasVhhints
p14
(lp15
(dp16
g6
L10L
sg7
L661L
sa(dp17
g6
L10L
sg7
L709L
sa(dp18
g6
L10L
sg7
L805L
sa(dp19
g6
L10L
sg7
L853L
sa(dp20
g6
L10L
sg7
L930L
sa(dp21
g6
L10L
sg7
L943L
sa(dp22
g6
L10L
sg7
L989L
sass."
Substitution2: "Thai.sl subtable" uni0E4E.sl
EndChar

StartChar: uni0E4F
Encoding: 475 3663 205
GlifName: uni0E_4F_
Width: 660
VWidth: 0
GlyphClass: 2
Flags: HMW
LayerCount: 2
Fore
SplineSet
330 340 m 0
 306 340 292 323 292 300 c 0
 292 277 306 260 330 260 c 0
 354 260 368 277 368 300 c 0
 368 323 354 340 330 340 c 0
330 402 m 0
 393 402 441 362 441 300 c 0
 441 238 393 198 330 198 c 0
 267 198 219 238 219 300 c 0
 219 362 267 402 330 402 c 0
330 46 m 0
 163 46 62 160 62 300 c 0
 62 440 163 554 330 554 c 0
 497 554 598 440 598 300 c 0
 598 160 497 46 330 46 c 0
330 115 m 0
 436 115 512 184 512 300 c 0
 512 416 436 485 330 485 c 0
 224 485 148 416 148 300 c 0
 148 184 224 115 330 115 c 0
EndSplineSet
PickledDataWithLists: "(dp0
Vcom.fontlab.hintData
p1
(dp2
Vvhints
p3
(lp4
(dp5
Vwidth
p6
L10L
sVposition
p7
L80L
sa(dp8
g6
L10L
sg7
L150L
sa(dp9
g6
L10L
sg7
L267L
sa(dp10
g6
L10L
sg7
L472L
sa(dp11
g6
L10L
sg7
L477L
sa(dp12
g6
L10L
sg7
L488L
sa(dp13
g6
L10L
sg7
L590L
sa(dp14
g6
L10L
sg7
L660L
sasVhhints
p15
(lp16
(dp17
g6
L10L
sg7
L1L
sa(dp18
g6
L10L
sg7
L49L
sa(dp19
g6
L10L
sg7
L199L
sa(dp20
g6
L10L
sg7
L391L
sa(dp21
g6
L10L
sg7
L523L
sa(dp22
g6
L10L
sg7
L531L
sa(dp23
g6
L10L
sg7
L543L
sa(dp24
g6
L10L
sg7
L579L
sass."
EndChar

StartChar: uni0E4F.extra
Encoding: 807 63616 206
GlifName: uni0E_4F_.extra
Width: 660
VWidth: 0
GlyphClass: 3
Flags: HMW
LayerCount: 2
Fore
SplineSet
374 895 m 1
 478 895 l 1
 461 630 l 1
 392 630 l 1
 374 895 l 1
181 895 m 1
 284 895 l 1
 267 630 l 1
 198 630 l 1
 181 895 l 1
EndSplineSet
Refer: 205 3663 N 1 0 0 1 0 0 2
PickledDataWithLists: "(dp0
Vcom.fontlab.hintData
p1
(dp2
Vvhints
p3
(lp4
(dp5
Vwidth
p6
L10L
sVposition
p7
L80L
sa(dp8
g6
L10L
sg7
L150L
sa(dp9
g6
L10L
sg7
L227L
sa(dp10
g6
L10L
sg7
L267L
sa(dp11
g6
L10L
sg7
L316L
sa(dp12
g6
L10L
sg7
L424L
sa(dp13
g6
L10L
sg7
L433L
sa(dp14
g6
L10L
sg7
L472L
sa(dp15
g6
L10L
sg7
L477L
sa(dp16
g6
L10L
sg7
L488L
sa(dp17
g6
L10L
sg7
L513L
sa(dp18
g6
L10L
sg7
L590L
sa(dp19
g6
L10L
sg7
L660L
sasVhhints
p20
(lp21
(dp22
g6
L10L
sg7
L1L
sa(dp23
g6
L10L
sg7
L49L
sa(dp24
g6
L10L
sg7
L199L
sa(dp25
g6
L10L
sg7
L391L
sa(dp26
g6
L10L
sg7
L523L
sa(dp27
g6
L10L
sg7
L531L
sa(dp28
g6
L10L
sg7
L543L
sa(dp29
g6
L10L
sg7
L579L
sa(dp30
g6
L10L
sg7
L668L
sa(dp31
g6
L10L
sg7
L673L
sa(dp32
g6
L10L
sg7
L947L
sass."
Ligature2: "Thai.extra subtable" uni0E4F uni200D uni0E48 uni200D uni0E48
Ligature2: "Thai.extra subtable" uni0E4F uni0E48 uni0E48
Ligature2: "Thai.liga subtable" uni0E4F uni200D period uni200D period
Ligature2: "Thai.liga subtable" uni0E4F period period
Colour: ff00ff
EndChar

StartChar: uni0E50
Encoding: 476 3664 207
GlifName: uni0E_50
Width: 720
VWidth: 0
GlyphClass: 2
Flags: HMW
LayerCount: 2
Fore
SplineSet
58 287 m 2
 58 313 l 2
 58 454 130 620 360 620 c 0
 590 620 662 454 662 313 c 2
 662 287 l 2
 662 146 590 -20 360 -20 c 0
 130 -20 58 146 58 287 c 2
360 75 m 0
 474 75 534 155 534 287 c 2
 534 313 l 2
 534 445 474 525 360 525 c 0
 246 525 186 445 186 313 c 2
 186 287 l 2
 186 155 246 75 360 75 c 0
EndSplineSet
PickledDataWithLists: "(dp0
Vcom.fontlab.hintData
p1
(dp2
Vvhints
p3
(lp4
(dp5
Vwidth
p6
L10L
sVposition
p7
L61L
sa(dp8
g6
L10L
sg7
L149L
sa(dp9
g6
L10L
sg7
L561L
sa(dp10
g6
L10L
sg7
L649L
sasVhhints
p11
(lp12
(dp13
g6
L10L
sg7
L-26L
sa(dp14
g6
L10L
sg7
L36L
sa(dp15
g6
L10L
sg7
L533L
sa(dp16
g6
L10L
sg7
L544L
sa(dp17
g6
L10L
sg7
L571L
sa(dp18
g6
L10L
sg7
L606L
sass."
EndChar

StartChar: uni0E51
Encoding: 477 3665 208
GlifName: uni0E_51
Width: 720
VWidth: 0
GlyphClass: 2
Flags: HMW
LayerCount: 2
Fore
SplineSet
58 332 m 0
 58 462 140 620 360 620 c 0
 590 620 663 451 663 312 c 2
 663 292 l 2
 663 139 528 -26 311 -42 c 1
 299 52 l 1
 427 61 538 172 538 292 c 2
 538 312 l 2
 538 442 478 527 360 527 c 0
 246 527 178 447 178 332 c 0
 178 253 232 217 284 217 c 0
 305 217 325 221 343 229 c 1
 289 236 249 274 249 330 c 0
 249 392 297 432 360 432 c 0
 423 432 471 392 471 330 c 0
 471 236 404 140 265 140 c 0
 127 140 58 247 58 332 c 0
360 370 m 0
 336 370 322 353 322 330 c 0
 322 307 336 290 360 290 c 0
 384 290 398 307 398 330 c 0
 398 353 384 370 360 370 c 0
EndSplineSet
PickledDataWithLists: "(dp0
Vcom.fontlab.hintData
p1
(dp2
Vvhints
p3
(lp4
(dp5
Vwidth
p6
L10L
sVposition
p7
L61L
sa(dp8
g6
L10L
sg7
L149L
sa(dp9
g6
L10L
sg7
L290L
sa(dp10
g6
L10L
sg7
L311L
sa(dp11
g6
L10L
sg7
L399L
sa(dp12
g6
L10L
sg7
L561L
sa(dp13
g6
L10L
sg7
L649L
sasVhhints
p14
(lp15
(dp16
g6
L10L
sg7
L-36L
sa(dp17
g6
L10L
sg7
L144L
sa(dp18
g6
L10L
sg7
L206L
sa(dp19
g6
L10L
sg7
L320L
sa(dp20
g6
L10L
sg7
L544L
sa(dp21
g6
L10L
sg7
L606L
sass."
EndChar

StartChar: uni0E52
Encoding: 478 3666 209
GlifName: uni0E_52
Width: 810
VWidth: 0
GlyphClass: 2
Flags: HMW
LayerCount: 2
Fore
SplineSet
72 197 m 2
 72 750 l 1
 196 750 l 1
 196 197 l 2
 196 128 249 94 286 94 c 2
 537 94 l 2
 574 94 627 128 627 197 c 2
 627 405 l 2
 627 451 615 483 594 507 c 1
 519 450 l 1
 510 450 l 1
 501 450 l 1
 416 515 l 1
 391 491 375 458 375 408 c 1
 392 417 413 422 435 422 c 0
 498 422 546 382 546 320 c 0
 546 258 498 218 435 218 c 0
 330 218 272 305 272 406 c 0
 272 553 365 611 416 614 c 1
 510 536 l 1
 603 614 l 1
 654 611 747 552 747 405 c 2
 747 197 l 2
 747 104 676 0 533 0 c 2
 286 0 l 2
 143 0 72 104 72 197 c 2
435 360 m 0
 411 360 397 343 397 320 c 0
 397 297 411 280 435 280 c 0
 459 280 473 297 473 320 c 0
 473 343 459 360 435 360 c 0
EndSplineSet
PickledDataWithLists: "(dp0
Vcom.fontlab.hintData
p1
(dp2
Vvhints
p3
(lp4
(dp5
Vwidth
p6
L10L
sVposition
p7
L89L
sa(dp8
g6
L10L
sg7
L101L
sa(dp9
g6
L10L
sg7
L183L
sa(dp10
g6
L10L
sg7
L249L
sa(dp11
g6
L10L
sg7
L331L
sa(dp12
g6
L10L
sg7
L463L
sa(dp13
g6
L10L
sg7
L528L
sa(dp14
g6
L10L
sg7
L634L
sa(dp15
g6
L10L
sg7
L716L
sa(dp16
g6
L10L
sg7
L721L
sasVhhints
p17
(lp18
(dp19
g6
L10L
sg7
L6L
sa(dp20
g6
L10L
sg7
L14L
sa(dp21
g6
L10L
sg7
L65L
sa(dp22
g6
L10L
sg7
L72L
sa(dp23
g6
L10L
sg7
L216L
sa(dp24
g6
L10L
sg7
L274L
sa(dp25
g6
L10L
sg7
L390L
sa(dp26
g6
L10L
sg7
L536L
sa(dp27
g6
L10L
sg7
L583L
sa(dp28
g6
L10L
sg7
L594L
sa(dp29
g6
L10L
sg7
L794L
sass."
EndChar

StartChar: uni0E53
Encoding: 479 3667 210
GlifName: uni0E_53
Width: 720
VWidth: 0
GlyphClass: 2
Flags: HMW
LayerCount: 2
Fore
SplineSet
223 132 m 0
 199 132 185 115 185 92 c 0
 185 69 199 52 223 52 c 0
 247 52 261 69 261 92 c 0
 261 115 247 132 223 132 c 0
223 194 m 0
 286 194 334 154 334 92 c 0
 334 30 286 -10 223 -10 c 0
 144 -10 87 44 75 116 c 0
 70 149 67 211 67 223 c 2
 67 420 l 2
 67 508 102 620 234 620 c 0
 292 620 333 588 359 543 c 1
 385 588 427 620 485 620 c 0
 617 620 652 508 652 420 c 2
 652 183 l 2
 652 93 636 35 574 -10 c 1
 480 55 l 1
 506 75 528 100 528 183 c 2
 528 420 l 2
 528 502 504 526 476 526 c 0
 440 526 419 479 419 420 c 2
 419 225 l 1
 300 225 l 1
 300 420 l 2
 300 479 279 526 243 526 c 0
 215 526 191 502 191 420 c 2
 191 212 l 2
 191 204 190 197 189 190 c 1
 200 193 211 194 223 194 c 0
EndSplineSet
PickledDataWithLists: "(dp0
Vcom.fontlab.hintData
p1
(dp2
Vvhints
p3
(lp4
(dp5
Vwidth
p6
L10L
sVposition
p7
L61L
sa(dp8
g6
L10L
sg7
L149L
sa(dp9
g6
L10L
sg7
L378L
sa(dp10
g6
L10L
sg7
L500L
sa(dp11
g6
L10L
sg7
L561L
sa(dp12
g6
L10L
sg7
L649L
sasVhhints
p13
(lp14
(dp15
g6
L10L
sg7
L-21L
sa(dp16
g6
L10L
sg7
L-15L
sa(dp17
g6
L10L
sg7
L41L
sa(dp18
g6
L10L
sg7
L77L
sa(dp19
g6
L10L
sg7
L237L
sa(dp20
g6
L10L
sg7
L606L
sass."
EndChar

StartChar: uni0E54
Encoding: 480 3668 211
GlifName: uni0E_54
Width: 720
VWidth: 0
GlyphClass: 2
Flags: HMW
LayerCount: 2
Fore
SplineSet
509 350 m 0
 485 350 471 333 471 310 c 0
 471 287 485 270 509 270 c 0
 533 270 547 287 547 310 c 0
 547 333 533 350 509 350 c 0
57 298 m 2
 57 313 l 2
 57 460 155 601 355 612 c 0
 392 614 449 619 468 621 c 0
 541 630 575 626 584 753 c 1
 712 740 l 1
 701 587 612 545 490 529 c 0
 462 525 405 520 363 518 c 0
 259 512 185 436 185 313 c 2
 185 298 l 2
 185 176 251 94 359 94 c 2
 414 94 l 1
 377 131 356 181 356 239 c 0
 356 330 405 412 509 412 c 0
 572 412 620 372 620 310 c 0
 620 248 572 208 509 208 c 0
 487 208 467 213 450 222 c 1
 455 143 521 94 596 94 c 2
 647 94 l 1
 647 0 l 1
 359 0 l 2
 139 0 57 162 57 298 c 2
EndSplineSet
PickledDataWithLists: "(dp0
Vcom.fontlab.hintData
p1
(dp2
Vvhints
p3
(lp4
(dp5
Vwidth
p6
L10L
sVposition
p7
L61L
sa(dp8
g6
L10L
sg7
L149L
sa(dp9
g6
L10L
sg7
L400L
sa(dp10
g6
L10L
sg7
L488L
sa(dp11
g6
L10L
sg7
L527L
sa(dp12
g6
L10L
sg7
L591L
sa(dp13
g6
L10L
sg7
L662L
sa(dp14
g6
L10L
sg7
L679L
sasVhhints
p15
(lp16
(dp17
g6
L10L
sg7
L0L
sa(dp18
g6
L10L
sg7
L63L
sa(dp19
g6
L10L
sg7
L351L
sa(dp20
g6
L10L
sg7
L796L
sass."
EndChar

StartChar: uni0E55
Encoding: 481 3669 212
GlifName: uni0E_55
Width: 720
VWidth: 0
GlyphClass: 2
Flags: HMW
LayerCount: 2
Fore
SplineSet
373 694 m 0
 349 694 335 677 335 654 c 0
 335 631 349 614 373 614 c 0
 397 614 411 631 411 654 c 0
 411 677 397 694 373 694 c 0
373 756 m 0
 436 756 484 716 484 654 c 0
 484 637 481 621 474 608 c 1
 475 608 l 0
 545 615 576 631 584 753 c 1
 712 740 l 1
 702 592 616 540 497 527 c 0
 485 526 469 525 452 525 c 0
 426 525 399 527 381 531 c 1
 258 515 185 439 185 313 c 2
 185 298 l 2
 185 176 251 94 359 94 c 2
 414 94 l 1
 377 131 356 181 356 239 c 0
 356 330 405 412 509 412 c 0
 572 412 620 372 620 310 c 0
 620 248 572 208 509 208 c 0
 487 208 467 213 450 222 c 1
 455 143 521 94 596 94 c 2
 647 94 l 1
 647 0 l 1
 359 0 l 2
 139 0 57 162 57 298 c 2
 57 313 l 2
 57 441 130 557 282 593 c 1
 269 609 262 630 262 654 c 0
 262 716 310 756 373 756 c 0
509 350 m 0
 485 350 471 333 471 310 c 0
 471 287 485 270 509 270 c 0
 533 270 547 287 547 310 c 0
 547 333 533 350 509 350 c 0
EndSplineSet
PickledDataWithLists: "(dp0
Vcom.fontlab.hintData
p1
(dp2
Vvhints
p3
(lp4
(dp5
Vwidth
p6
L10L
sVposition
p7
L61L
sa(dp8
g6
L10L
sg7
L149L
sa(dp9
g6
L10L
sg7
L224L
sa(dp10
g6
L10L
sg7
L301L
sa(dp11
g6
L10L
sg7
L394L
sa(dp12
g6
L10L
sg7
L400L
sa(dp13
g6
L10L
sg7
L471L
sa(dp14
g6
L10L
sg7
L488L
sa(dp15
g6
L10L
sg7
L527L
sa(dp16
g6
L10L
sg7
L594L
sa(dp17
g6
L10L
sg7
L662L
sa(dp18
g6
L10L
sg7
L677L
sasVhhints
p19
(lp20
(dp21
g6
L10L
sg7
L0L
sa(dp22
g6
L10L
sg7
L62L
sa(dp23
g6
L10L
sg7
L351L
sa(dp24
g6
L10L
sg7
L506L
sa(dp25
g6
L10L
sg7
L564L
sa(dp26
g6
L10L
sg7
L701L
sa(dp27
g6
L10L
sg7
L754L
sa(dp28
g6
L10L
sg7
L794L
sass."
EndChar

StartChar: uni0E56
Encoding: 482 3670 213
GlifName: uni0E_56
Width: 720
VWidth: 0
GlyphClass: 2
Flags: HMW
LayerCount: 2
Fore
SplineSet
209 200 m 0
 185 200 171 183 171 160 c 0
 171 137 185 120 209 120 c 0
 233 120 247 137 247 160 c 0
 247 183 233 200 209 200 c 0
209 262 m 0
 272 262 320 222 320 160 c 0
 320 126 305 99 282 81 c 1
 304 75 331 71 364 71 c 0
 483 71 535 155 535 287 c 2
 535 313 l 2
 535 445 475 521 372 521 c 0
 270 521 225 446 216 412 c 1
 117 420 l 1
 58 740 l 1
 187 753 l 1
 204 551 l 1
 237 589 291 620 376 620 c 0
 582 620 663 454 663 313 c 2
 663 287 l 2
 663 146 591 -20 372 -20 c 0
 177 -20 98 74 98 160 c 0
 98 222 146 262 209 262 c 0
EndSplineSet
PickledDataWithLists: "(dp0
Vcom.fontlab.hintData
p1
(dp2
Vvhints
p3
(lp4
(dp5
Vwidth
p6
L10L
sVposition
p7
L31L
sa(dp8
g6
L10L
sg7
L123L
sa(dp9
g6
L10L
sg7
L211L
sa(dp10
g6
L10L
sg7
L298L
sa(dp11
g6
L10L
sg7
L561L
sa(dp12
g6
L10L
sg7
L649L
sasVhhints
p13
(lp14
(dp15
g6
L10L
sg7
L-16L
sa(dp16
g6
L10L
sg7
L46L
sa(dp17
g6
L10L
sg7
L316L
sa(dp18
g6
L10L
sg7
L481L
sa(dp19
g6
L10L
sg7
L544L
sa(dp20
g6
L10L
sg7
L606L
sa(dp21
g6
L10L
sg7
L795L
sass."
EndChar

StartChar: uni0E57
Encoding: 483 3671 214
GlifName: uni0E_57
Width: 905
VWidth: 0
GlyphClass: 2
Flags: HMW
LayerCount: 2
Fore
SplineSet
223 132 m 0
 199 132 185 115 185 92 c 0
 185 69 199 52 223 52 c 0
 247 52 261 69 261 92 c 0
 261 115 247 132 223 132 c 0
223 194 m 0
 286 194 334 154 334 92 c 0
 334 30 286 -10 223 -10 c 0
 144 -10 87 44 75 116 c 0
 70 149 67 211 67 223 c 2
 67 420 l 2
 67 508 102 620 234 620 c 0
 292 620 333 588 359 543 c 1
 385 588 427 620 485 620 c 0
 617 620 644 508 644 420 c 2
 644 183 l 2
 644 141 639 106 627 76 c 1
 675 95 716 131 716 192 c 2
 716 750 l 1
 832 750 l 1
 832 192 l 2
 832 75 734 -10 557 -10 c 1
 480 55 l 1
 506 75 528 100 528 183 c 2
 528 420 l 2
 528 502 504 526 476 526 c 0
 440 526 419 479 419 420 c 2
 419 225 l 1
 300 225 l 1
 300 420 l 2
 300 479 279 526 243 526 c 0
 215 526 191 502 191 420 c 2
 191 212 l 2
 191 204 190 197 189 190 c 1
 200 193 211 194 223 194 c 0
EndSplineSet
PickledDataWithLists: "(dp0
Vcom.fontlab.hintData
p1
(dp2
Vvhints
p3
(lp4
(dp5
Vwidth
p6
L10L
sVposition
p7
L61L
sa(dp8
g6
L10L
sg7
L149L
sa(dp9
g6
L10L
sg7
L378L
sa(dp10
g6
L10L
sg7
L505L
sa(dp11
g6
L10L
sg7
L561L
sa(dp12
g6
L10L
sg7
L639L
sa(dp13
g6
L10L
sg7
L716L
sa(dp14
g6
L10L
sg7
L799L
sasVhhints
p15
(lp16
(dp17
g6
L10L
sg7
L-21L
sa(dp18
g6
L10L
sg7
L-15L
sa(dp19
g6
L10L
sg7
L41L
sa(dp20
g6
L10L
sg7
L77L
sa(dp21
g6
L10L
sg7
L237L
sa(dp22
g6
L10L
sg7
L606L
sa(dp23
g6
L10L
sg7
L625L
sass."
EndChar

StartChar: uni0E58
Encoding: 484 3672 215
GlifName: uni0E_58
Width: 750
VWidth: 0
GlyphClass: 2
Flags: HMW
LayerCount: 2
Fore
SplineSet
552 350 m 0
 528 350 514 333 514 310 c 0
 514 287 528 270 552 270 c 0
 576 270 590 287 590 310 c 0
 590 333 576 350 552 350 c 0
58 298 m 2
 58 314 l 2
 58 459 156 598 356 609 c 0
 393 611 454 616 473 618 c 0
 545 627 576 626 585 753 c 1
 713 740 l 1
 702 586 615 541 495 525 c 0
 467 521 406 517 364 515 c 0
 260 509 186 436 186 314 c 2
 186 298 l 2
 186 225 205 175 219 129 c 1
 309 265 l 1
 404 265 l 1
 404 137 431 80 497 80 c 0
 556 80 584 127 588 213 c 1
 577 210 565 208 552 208 c 0
 489 208 441 248 441 310 c 0
 441 372 489 412 552 412 c 0
 658 412 687 319 687 233 c 0
 687 125 650 -10 497 -10 c 0
 390 -10 341 62 323 142 c 1
 230 0 l 1
 123 0 l 1
 123 29 l 2
 123 102 58 178 58 298 c 2
EndSplineSet
PickledDataWithLists: "(dp0
Vcom.fontlab.hintData
p1
(dp2
Vvhints
p3
(lp4
(dp5
Vwidth
p6
L10L
sVposition
p7
L61L
sa(dp8
g6
L10L
sg7
L149L
sa(dp9
g6
L10L
sg7
L369L
sa(dp10
g6
L10L
sg7
L435L
sa(dp11
g6
L10L
sg7
L556L
sa(dp12
g6
L10L
sg7
L581L
sa(dp13
g6
L10L
sg7
L591L
sa(dp14
g6
L10L
sg7
L669L
sa(dp15
g6
L10L
sg7
L679L
sasVhhints
p16
(lp17
(dp18
g6
L10L
sg7
L4L
sa(dp19
g6
L10L
sg7
L66L
sa(dp20
g6
L10L
sg7
L246L
sa(dp21
g6
L10L
sg7
L315L
sa(dp22
g6
L10L
sg7
L796L
sass."
EndChar

StartChar: uni0E59
Encoding: 485 3673 216
GlifName: uni0E_59
Width: 720
VWidth: 0
GlyphClass: 2
Flags: HMW
LayerCount: 2
Fore
SplineSet
550 194 m 0
 526 194 512 177 512 154 c 0
 512 131 526 114 550 114 c 0
 574 114 588 131 588 154 c 0
 588 177 574 194 550 194 c 0
163 446 m 0
 163 533 236 593 340 604 c 0
 390 609 444 612 460 614 c 0
 532 623 565 621 574 752 c 1
 702 739 l 1
 691 582 602 540 482 524 c 0
 451 520 389 519 346 514 c 0
 306 509 279 488 279 442 c 0
 279 420 286 407 293 400 c 1
 312 402 332 403 354 403 c 2
 557 403 l 1
 557 308 l 1
 354 308 l 2
 215 308 175 254 175 189 c 0
 175 127 214 69 354 69 c 0
 406 69 443 73 469 82 c 1
 450 100 439 124 439 154 c 0
 439 216 487 256 550 256 c 0
 613 256 661 216 661 154 c 0
 661 65 570 -21 354 -21 c 0
 136 -21 47 79 47 189 c 0
 47 267 90 341 191 378 c 1
 175 396 163 418 163 446 c 0
EndSplineSet
PickledDataWithLists: "(dp0
Vcom.fontlab.hintData
p1
(dp2
Vvhints
p3
(lp4
(dp5
Vwidth
p6
L10L
sVposition
p7
L61L
sa(dp8
g6
L10L
sg7
L149L
sa(dp9
g6
L10L
sg7
L205L
sa(dp10
g6
L10L
sg7
L293L
sa(dp11
g6
L10L
sg7
L531L
sa(dp12
g6
L10L
sg7
L619L
sa(dp13
g6
L10L
sg7
L679L
sasVhhints
p14
(lp15
(dp16
g6
L10L
sg7
L-26L
sa(dp17
g6
L10L
sg7
L36L
sa(dp18
g6
L10L
sg7
L155L
sa(dp19
g6
L10L
sg7
L314L
sa(dp20
g6
L10L
sg7
L370L
sa(dp21
g6
L10L
sg7
L796L
sass."
EndChar

StartChar: uni0E5A
Encoding: 486 3674 217
GlifName: uni0E_5A_
Width: 675
VWidth: 0
GlyphClass: 2
Flags: HMW
LayerCount: 2
Fore
SplineSet
598 0 m 1
 487 0 l 1
 487 600 l 1
 598 600 l 1
 598 0 l 1
144 548 m 0
 120 548 106 531 106 508 c 0
 106 485 120 468 144 468 c 0
 168 468 182 485 182 508 c 0
 182 531 168 548 144 548 c 0
144 610 m 0
 207 610 255 570 255 508 c 0
 255 493 253 480 248 468 c 1
 302 492 332 540 347 594 c 1
 387 600 l 1
 409 580 411 538 411 473 c 2
 411 158 l 2
 411 35 288 -6 156 -20 c 1
 138 72 l 1
 262 86 300 106 300 158 c 2
 300 356 l 2
 300 396 315 415 323 444 c 1
 285 415 234 395 167 395 c 0
 86 395 33 441 33 508 c 0
 33 570 81 610 144 610 c 0
EndSplineSet
PickledDataWithLists: "(dp0
Vcom.fontlab.hintData
p1
(dp2
Vvhints
p3
(lp4
(dp5
Vwidth
p6
L10L
sVposition
p7
L34L
sa(dp8
g6
L10L
sg7
L116L
sa(dp9
g6
L10L
sg7
L136L
sa(dp10
g6
L10L
sg7
L334L
sa(dp11
g6
L10L
sg7
L334L
sa(dp12
g6
L10L
sg7
L411L
sa(dp13
g6
L10L
sg7
L416L
sa(dp14
g6
L10L
sg7
L504L
sa(dp15
g6
L10L
sg7
L509L
sa(dp16
g6
L10L
sg7
L586L
sa(dp17
g6
L10L
sg7
L592L
sasVhhints
p18
(lp19
(dp20
g6
L10L
sg7
L-14L
sa(dp21
g6
L10L
sg7
L7L
sa(dp22
g6
L10L
sg7
L396L
sa(dp23
g6
L10L
sg7
L454L
sa(dp24
g6
L10L
sg7
L588L
sa(dp25
g6
L10L
sg7
L594L
sass."
EndChar

StartChar: uni0E5B
Encoding: 487 3675 218
GlifName: uni0E_5B_
Width: 900
VWidth: 0
GlyphClass: 2
Flags: HMW
LayerCount: 2
Fore
SplineSet
62 300 m 0
 62 440 163 554 330 554 c 1
 330 485 l 1
 224 485 148 416 148 300 c 0
 148 184 224 115 330 115 c 0
 436 115 511 184 511 300 c 0
 511 358 489 410 464 436 c 1
 525 479 l 1
 546 456 562 428 574 398 c 2
 649 236 l 1
 685 430 l 1
 732 435 l 1
 794 322 l 1
 877 322 l 1
 877 278 l 1
 767 278 l 1
 725 349 l 1
 686 145 l 1
 630 140 l 1
 583 242 l 1
 561 130 473 46 330 46 c 0
 163 46 62 160 62 300 c 0
330 340 m 0
 306 340 292 323 292 300 c 0
 292 277 306 260 330 260 c 0
 354 260 368 277 368 300 c 0
 368 323 354 340 330 340 c 0
330 402 m 0
 393 402 441 362 441 300 c 0
 441 238 393 198 330 198 c 0
 267 198 219 238 219 300 c 0
 219 362 267 402 330 402 c 0
EndSplineSet
PickledDataWithLists: "(dp0
Vcom.fontlab.hintData
p1
(dp2
Vvhints
p3
(lp4
(dp5
Vwidth
p6
L10L
sVposition
p7
L80L
sa(dp8
g6
L10L
sg7
L150L
sa(dp9
g6
L10L
sg7
L306L
sa(dp10
g6
L10L
sg7
L430L
sa(dp11
g6
L10L
sg7
L500L
sa(dp12
g6
L16L
sg7
L633L
sa(dp13
g6
L10L
sg7
L639L
sa(dp14
g6
L10L
sg7
L1147L
sasVhhints
p15
(lp16
(dp17
g6
L10L
sg7
L1L
sa(dp18
g6
L10L
sg7
L49L
sa(dp19
g6
L10L
sg7
L124L
sa(dp20
g6
L10L
sg7
L191L
sa(dp21
g6
L10L
sg7
L239L
sa(dp22
g6
L10L
sg7
L261L
sa(dp23
g6
L10L
sg7
L302L
sa(dp24
g6
L10L
sg7
L427L
sa(dp25
g6
L10L
sg7
L513L
sa(dp26
g6
L10L
sg7
L531L
sa(dp27
g6
L10L
sg7
L579L
sass."
EndChar

StartChar: uni0E48.sd
Encoding: 817 63627 222
GlifName: uni0E_48.sd
Width: 0
VWidth: 0
GlyphClass: 4
Flags: HMW
AnchorPoint: "ThaiExtendedAbove.mkmk" 0 0 basemark 0
AnchorPoint: "ThaiTone.mark" 0 0 mark 0
LayerCount: 2
Fore
SplineSet
-191 707 m 1
 -191 895 l 1
 -88 895 l 1
 -88 690 l 1
 -191 707 l 1
EndSplineSet
PickledDataWithLists: "(dp0
Vcom.fontlab.hintData
p1
(dp2
Vvhints
p3
(lp4
(dp5
Vwidth
p6
L10L
sVposition
p7
L-127L
sasVhhints
p8
(lp9
(dp10
g6
L10L
sg7
L715L
sa(dp11
g6
L10L
sg7
L927L
sass."
Substitution2: "Thai.su subtable" uni0E48
EndChar

StartChar: uni0E49.sd
Encoding: 820 63630 223
GlifName: uni0E_49.sd
Width: 0
VWidth: 0
GlyphClass: 4
Flags: HMW
AnchorPoint: "ThaiExtendedAbove.mkmk" 0 0 basemark 0
AnchorPoint: "ThaiTone.mark" 0 0 mark 0
LayerCount: 2
Fore
SplineSet
-312 862 m 0
 -326 862 -333 853 -333 839 c 0
 -333 825 -326 816 -312 816 c 0
 -298 816 -291 825 -291 839 c 0
 -291 853 -298 862 -312 862 c 0
-293 782 m 1
 -299 780 -305 780 -312 780 c 0
 -348 780 -375 803 -375 839 c 0
 -375 875 -348 898 -312 898 c 0
 -252 898 -235 852 -229 808 c 0
 -227 794 -225 778 -225 766 c 1
 -178 775 -134 806 -134 903 c 1
 -35 890 l 1
 -35 766 -143 703 -256 703 c 2
 -280 703 l 1
 -293 720 l 1
 -291 728 -290 739 -290 755 c 0
 -290 765 -291 774 -293 782 c 1
EndSplineSet
PickledDataWithLists: "(dp0
Vcom.fontlab.hintData
p1
(dp2
Vvhints
p3
(lp4
(dp5
Vwidth
p6
L10L
sVposition
p7
L-309L
sa(dp8
g6
L10L
sg7
L-263L
sa(dp9
g6
L10L
sg7
L-247L
sa(dp10
g6
L10L
sg7
L-188L
sa(dp11
g6
L10L
sg7
L7L
sasVhhints
p12
(lp13
(dp14
g6
L10L
sg7
L720L
sa(dp15
g6
L10L
sg7
L927L
sass."
Substitution2: "Thai.su subtable" uni0E49
EndChar

StartChar: uni0E4A.sd
Encoding: 823 63633 224
GlifName: uni0E_4A_.sd
Width: 0
VWidth: 0
GlyphClass: 4
Flags: HMW
AnchorPoint: "ThaiExtendedAbove.mkmk" 0 0 basemark 0
AnchorPoint: "ThaiTone.mark" 0 0 mark 0
LayerCount: 2
Fore
SplineSet
-288 779 m 0
 -302 779 -309 770 -309 756 c 0
 -309 742 -302 733 -288 733 c 0
 -274 733 -267 742 -267 756 c 0
 -267 770 -274 779 -288 779 c 0
-288 815 m 0
 -252 815 -225 792 -225 756 c 0
 -225 720 -252 697 -288 697 c 0
 -361 697 -385 746 -385 794 c 0
 -385 879 -318 901 -294 902 c 1
 -238 867 l 1
 -183 902 l 1
 -159 901 -108 874 -108 794 c 0
 -108 784 -110 773 -113 764 c 1
 -89 794 -82 845 -79 897 c 1
 -5 885 l 1
 -19 792 -66 712 -175 702 c 1
 -192 733 l 1
 -172 745 -165 764 -165 794 c 0
 -165 822 -171 839 -183 850 c 1
 -234 819 l 1
 -238 819 l 1
 -242 819 l 1
 -295 851 l 1
 -309 843 -320 831 -323 806 c 1
 -313 812 -301 815 -288 815 c 0
EndSplineSet
PickledDataWithLists: "(dp0
Vcom.fontlab.hintData
p1
(dp2
Vvhints
p3
(lp4
(dp5
Vwidth
p6
L10L
sVposition
p7
L-365L
sa(dp8
g6
L10L
sg7
L-305L
sa(dp9
g6
L10L
sg7
L-243L
sa(dp10
g6
L10L
sg7
L-152L
sa(dp11
g6
L10L
sg7
L-130L
sa(dp12
g6
L10L
sg7
L-79L
sa(dp13
g6
L10L
sg7
L24L
sasVhhints
p14
(lp15
(dp16
g6
L10L
sg7
L710L
sa(dp17
g6
L10L
sg7
L827L
sa(dp18
g6
L21L
sg7
L869L
sa(dp19
g6
L10L
sg7
L915L
sa(dp20
g6
L10L
sg7
L925L
sass."
Substitution2: "Thai.su subtable" uni0E4A
EndChar

